<svg width="32" height="32" viewBox="0 0 32 32" fill="none" xmlns="http://www.w3.org/2000/svg">
<rect width="32" height="32" rx="16" fill="url(#paint0_linear_93_366)"/>
<path d="M12.5136 23.4943H7.48857C6.82084 23.4943 6.40422 22.7706 6.73951 22.1932L14.9832 7.99569C15.3162 7.42214 16.144 7.42035 16.4795 7.99246L18.9211 12.1559C19.264 12.7406 19.2705 13.4634 18.9382 14.0542L14.1745 22.523C13.8369 23.123 13.202 23.4943 12.5136 23.4943Z" fill="white"/>
<path d="M18.0235 21.9723L20.6543 17.4696C21.0693 16.7594 22.0934 16.753 22.5172 17.458L25.2238 21.9607C25.6576 22.6824 25.1379 23.6013 24.2959 23.6013H18.9584C18.1224 23.6013 17.6018 22.6941 18.0235 21.9723Z" fill="white"/>
<defs>
<linearGradient id="paint0_linear_93_366" x1="16" y1="-7.46667" x2="16" y2="37.8667" gradientUnits="userSpaceOnUse">
<stop stop-color="#F14E56"/>
<stop offset="1" stop-color="#E7252E"/>
</linearGradient>
</defs>
</svg>
