<svg width="275" height="276" viewBox="0 0 275 276" fill="none" xmlns="http://www.w3.org/2000/svg">
<path d="M2.5 137.699C2.5 212.258 62.9416 272.699 137.5 272.699C212.058 272.699 272.5 212.258 272.5 137.699C272.5 63.1408 212.058 2.69922 137.5 2.69922C62.9416 2.69922 2.5 63.1408 2.5 137.699Z" fill="#101010" stroke="#121212" stroke-width="5"/>
<g clip-path="url(#clip0_3409_54913)">
<path d="M156.604 203.673C192.381 203.673 221.384 174.259 221.384 137.974C221.384 101.689 192.381 72.2744 156.604 72.2744C120.827 72.2744 91.824 101.689 91.824 137.974C91.824 174.259 120.827 203.673 156.604 203.673Z" stroke="url(#paint0_linear_3409_54913)" stroke-width="2"/>
<g filter="url(#filter0_f_3409_54913)">
<path d="M156.604 203.673C192.381 203.673 221.384 174.259 221.384 137.974C221.384 101.689 192.381 72.2744 156.604 72.2744C120.827 72.2744 91.824 101.689 91.824 137.974C91.824 174.259 120.827 203.673 156.604 203.673Z" stroke="url(#paint1_linear_3409_54913)" stroke-width="2"/>
</g>
<g filter="url(#filter1_f_3409_54913)">
<path d="M156.604 203.673C192.381 203.673 221.384 174.259 221.384 137.974C221.384 101.689 192.381 72.2744 156.604 72.2744C120.827 72.2744 91.824 101.689 91.824 137.974C91.824 174.259 120.827 203.673 156.604 203.673Z" stroke="url(#paint2_linear_3409_54913)" stroke-width="17"/>
</g>
<g filter="url(#filter2_d_3409_54913)">
<path d="M156.604 203.673C192.381 203.673 221.384 174.259 221.384 137.974C221.384 101.689 192.381 72.2744 156.604 72.2744C120.827 72.2744 91.824 101.689 91.824 137.974C91.824 174.259 120.827 203.673 156.604 203.673Z" stroke="url(#paint3_linear_3409_54913)" stroke-opacity="0.75" stroke-width="7" shape-rendering="crispEdges"/>
</g>
<g filter="url(#filter3_d_3409_54913)">
<path d="M115.424 93.2863C114.596 93.2863 113.924 93.9579 113.924 94.7863C113.924 95.6147 114.596 96.2863 115.424 96.2863V93.2863ZM137.634 96.2863C138.462 96.2863 139.134 95.6147 139.134 94.7863C139.134 93.9579 138.462 93.2863 137.634 93.2863V96.2863ZM120.356 87.0293C119.528 87.0293 118.856 87.7009 118.856 88.5293C118.856 89.3577 119.528 90.0293 120.356 90.0293V87.0293ZM132.695 90.0293C133.524 90.0293 134.195 89.3577 134.195 88.5293C134.195 87.7009 133.524 87.0293 132.695 87.0293V90.0293ZM110.485 98.2922C109.656 98.2922 108.985 98.9637 108.985 99.7922C108.985 100.621 109.656 101.292 110.485 101.292V98.2922ZM141.332 101.292C142.161 101.292 142.832 100.621 142.832 99.7922C142.832 98.9637 142.161 98.2922 141.332 98.2922V101.292ZM105.552 104.549C104.724 104.549 104.052 105.221 104.052 106.049C104.052 106.878 104.724 107.549 105.552 107.549V104.549ZM145.037 107.549C145.865 107.549 146.537 106.878 146.537 106.049C146.537 105.221 145.865 104.549 145.037 104.549V107.549ZM101.849 110.806C101.021 110.806 100.349 111.478 100.349 112.306C100.349 113.135 101.021 113.806 101.849 113.806V110.806ZM148.738 113.806C149.566 113.806 150.238 113.135 150.238 112.306C150.238 111.478 149.566 110.806 148.738 110.806V113.806ZM99.3833 115.812C98.5549 115.812 97.8833 116.484 97.8833 117.312C97.8833 118.14 98.5549 118.812 99.3833 118.812V115.812ZM149.973 118.812C150.802 118.812 151.473 118.14 151.473 117.312C151.473 116.484 150.802 115.812 149.973 115.812V118.812ZM98.1466 122.069C97.3182 122.069 96.6466 122.741 96.6466 123.569C96.6466 124.397 97.3182 125.069 98.1466 125.069V122.069ZM152.742 125.069C153.57 125.069 154.242 124.397 154.242 123.569C154.242 122.741 153.57 122.069 152.742 122.069V125.069ZM95.6804 127.075C94.852 127.075 94.1804 127.746 94.1804 128.575C94.1804 129.403 94.852 130.075 95.6804 130.075V127.075ZM153.674 130.075C154.502 130.075 155.174 129.403 155.174 128.575C155.174 127.746 154.502 127.075 153.674 127.075V130.075ZM94.4441 132.08C93.6157 132.08 92.9441 132.752 92.9441 133.58C92.9441 134.409 93.6157 135.08 94.4441 135.08V132.08ZM154.202 135.08C155.031 135.08 155.702 134.409 155.702 133.58C155.702 132.752 155.031 132.08 154.202 132.08V135.08ZM94.4441 138.337C93.6157 138.337 92.9441 139.009 92.9441 139.837C92.9441 140.666 93.6157 141.337 94.4441 141.337V138.337ZM153.671 141.337C154.5 141.337 155.171 140.666 155.171 139.837C155.171 139.009 154.5 138.337 153.671 138.337V141.337ZM95.6804 144.595C94.852 144.595 94.1804 145.266 94.1804 146.095C94.1804 146.923 94.852 147.595 95.6804 147.595V144.595ZM153.674 147.595C154.502 147.595 155.174 146.923 155.174 146.095C155.174 145.266 154.502 144.595 153.674 144.595V147.595ZM97.1622 150.668C96.3337 150.668 95.6622 151.339 95.6622 152.168C95.6622 152.996 96.3337 153.668 97.1622 153.668V150.668ZM155.156 153.668C155.984 153.668 156.656 152.996 156.656 152.168C156.656 151.339 155.984 150.668 155.156 150.668V153.668ZM99.3833 155.857C98.5549 155.857 97.8833 156.529 97.8833 157.357C97.8833 158.186 98.5549 158.857 99.3833 158.857V155.857ZM151.207 158.857C152.036 158.857 152.707 158.186 152.707 157.357C152.707 156.529 152.036 155.857 151.207 155.857V158.857ZM100.613 160.863C99.7847 160.863 99.1132 161.535 99.1132 162.363C99.1132 163.192 99.7847 163.863 100.613 163.863V160.863ZM148.735 163.863C149.564 163.863 150.235 163.192 150.235 162.363C150.235 161.535 149.564 160.863 148.735 160.863V163.863ZM104.316 165.869C103.487 165.869 102.816 166.54 102.816 167.369C102.816 168.197 103.487 168.869 104.316 168.869V165.869ZM145.034 168.869C145.863 168.869 146.534 168.197 146.534 167.369C146.534 166.54 145.863 165.869 145.034 165.869V168.869ZM109.255 172.126C108.426 172.126 107.755 172.797 107.755 173.626C107.755 174.454 108.426 175.126 109.255 175.126V172.126ZM142.57 175.126C143.399 175.126 144.07 174.454 144.07 173.626C144.07 172.797 143.399 172.126 142.57 172.126V175.126ZM112.951 178.383C112.123 178.383 111.451 179.055 111.451 179.883C111.451 180.711 112.123 181.383 112.951 181.383V178.383ZM138.863 181.383C139.691 181.383 140.363 180.711 140.363 179.883C140.363 179.055 139.691 178.383 138.863 178.383V181.383ZM116.653 184.64C115.825 184.64 115.153 185.312 115.153 186.14C115.153 186.968 115.825 187.64 116.653 187.64V184.64ZM133.928 187.64C134.757 187.64 135.428 186.968 135.428 186.14C135.428 185.312 134.757 184.64 133.928 184.64V187.64ZM115.424 96.2863H137.634V93.2863H115.424V96.2863ZM120.356 90.0293H132.695V87.0293H120.356V90.0293ZM110.485 101.292H141.332V98.2922H110.485V101.292ZM105.552 107.549H145.037V104.549H105.552V107.549ZM101.849 113.806H148.738V110.806H101.849V113.806ZM99.3833 118.812H149.973V115.812H99.3833V118.812ZM98.1466 125.069H152.742V122.069H98.1466V125.069ZM95.6804 130.075H153.674V127.075H95.6804V130.075ZM94.4441 135.08C94.4902 135.08 94.5363 135.08 94.5823 135.08C94.6283 135.08 94.6743 135.08 94.7203 135.08C94.7662 135.08 94.8121 135.08 94.858 135.08C94.9039 135.08 94.9497 135.08 94.9955 135.08C95.0413 135.08 95.087 135.08 95.1327 135.08C95.1784 135.08 95.224 135.08 95.2697 135.08C95.3153 135.08 95.3608 135.08 95.4064 135.08C95.4519 135.08 95.4974 135.08 95.5429 135.08C95.5883 135.08 95.6337 135.08 95.6791 135.08C95.7245 135.08 95.7698 135.08 95.8151 135.08C95.8604 135.08 95.9056 135.08 95.9508 135.08C95.996 135.08 96.0412 135.08 96.0863 135.08C96.1314 135.08 96.1765 135.08 96.2216 135.08C96.2666 135.08 96.3116 135.08 96.3566 135.08C96.4015 135.08 96.4465 135.08 96.4914 135.08C96.5362 135.08 96.5811 135.08 96.6259 135.08C96.6707 135.08 96.7155 135.08 96.7602 135.08C96.8049 135.08 96.8496 135.08 96.8943 135.08C96.9389 135.08 96.9835 135.08 97.0281 135.08C97.0727 135.08 97.1172 135.08 97.1617 135.08C97.2062 135.08 97.2506 135.08 97.295 135.08C97.3395 135.08 97.3838 135.08 97.4282 135.08C97.4725 135.08 97.5168 135.08 97.5611 135.08C97.6053 135.08 97.6495 135.08 97.6937 135.08C97.7379 135.08 97.7821 135.08 97.8262 135.08C97.8703 135.08 97.9143 135.08 97.9584 135.08C98.0024 135.08 98.0464 135.08 98.0904 135.08C98.1343 135.08 98.1782 135.08 98.2221 135.08C98.266 135.08 98.3098 135.08 98.3536 135.08C98.3974 135.08 98.4412 135.08 98.4849 135.08C98.5287 135.08 98.5724 135.08 98.616 135.08C98.6597 135.08 98.7033 135.08 98.7469 135.08C98.7904 135.08 98.834 135.08 98.8775 135.08C98.921 135.08 98.9645 135.08 99.0079 135.08C99.0513 135.08 99.0947 135.08 99.1381 135.08C99.1815 135.08 99.2248 135.08 99.2681 135.08C99.3114 135.08 99.3546 135.08 99.3978 135.08C99.441 135.08 99.4842 135.08 99.5274 135.08C99.5705 135.08 99.6136 135.08 99.6567 135.08C99.6998 135.08 99.7428 135.08 99.7858 135.08C99.8288 135.08 99.8718 135.08 99.9147 135.08C99.9576 135.08 100.001 135.08 100.043 135.08C100.086 135.08 100.129 135.08 100.172 135.08C100.215 135.08 100.257 135.08 100.3 135.08C100.343 135.08 100.385 135.08 100.428 135.08C100.471 135.08 100.513 135.08 100.556 135.08C100.599 135.08 100.641 135.08 100.684 135.08C100.726 135.08 100.769 135.08 100.811 135.08C100.853 135.08 100.896 135.08 100.938 135.08C100.981 135.08 101.023 135.08 101.065 135.08C101.108 135.08 101.15 135.08 101.192 135.08C101.234 135.08 101.277 135.08 101.319 135.08C101.361 135.08 101.403 135.08 101.445 135.08C101.487 135.08 101.529 135.08 101.571 135.08C101.613 135.08 101.655 135.08 101.697 135.08C101.739 135.08 101.781 135.08 101.823 135.08C101.865 135.08 101.907 135.08 101.949 135.08C101.991 135.08 102.032 135.08 102.074 135.08C102.116 135.08 102.158 135.08 102.199 135.08C102.241 135.08 102.283 135.08 102.324 135.08C102.366 135.08 102.408 135.08 102.449 135.08C102.491 135.08 102.532 135.08 102.574 135.08C102.615 135.08 102.657 135.08 102.698 135.08C102.74 135.08 102.781 135.08 102.822 135.08C102.864 135.08 102.905 135.08 102.947 135.08C102.988 135.08 103.029 135.08 103.07 135.08C103.112 135.08 103.153 135.08 103.194 135.08C103.235 135.08 103.276 135.08 103.318 135.08C103.359 135.08 103.4 135.08 103.441 135.08C103.482 135.08 103.523 135.08 103.564 135.08C103.605 135.08 103.646 135.08 103.687 135.08C103.728 135.08 103.769 135.08 103.81 135.08C103.851 135.08 103.891 135.08 103.932 135.08C103.973 135.08 104.014 135.08 104.055 135.08C104.095 135.08 104.136 135.08 104.177 135.08C104.218 135.08 104.258 135.08 104.299 135.08C104.34 135.08 104.38 135.08 104.421 135.08C104.461 135.08 104.502 135.08 104.542 135.08C104.583 135.08 104.623 135.08 104.664 135.08C104.704 135.08 104.745 135.08 104.785 135.08C104.826 135.08 104.866 135.08 104.906 135.08C104.947 135.08 104.987 135.08 105.027 135.08C105.068 135.08 105.108 135.08 105.148 135.08C105.188 135.08 105.229 135.08 105.269 135.08C105.309 135.08 105.349 135.08 105.389 135.08C105.429 135.08 105.469 135.08 105.51 135.08C105.55 135.08 105.59 135.08 105.63 135.08C105.67 135.08 105.71 135.08 105.75 135.08C105.79 135.08 105.83 135.08 105.869 135.08C105.909 135.08 105.949 135.08 105.989 135.08C106.029 135.08 106.069 135.08 106.109 135.08C106.148 135.08 106.188 135.08 106.228 135.08C106.268 135.08 106.307 135.08 106.347 135.08C106.387 135.08 106.426 135.08 106.466 135.08C106.506 135.08 106.545 135.08 106.585 135.08C106.624 135.08 106.664 135.08 106.703 135.08C106.743 135.08 106.782 135.08 106.822 135.08C106.861 135.08 106.901 135.08 106.94 135.08C106.98 135.08 107.019 135.08 107.058 135.08C107.098 135.08 107.137 135.08 107.176 135.08C107.216 135.08 107.255 135.08 107.294 135.08C107.334 135.08 107.373 135.08 107.412 135.08C107.451 135.08 107.49 135.08 107.53 135.08C107.569 135.08 107.608 135.08 107.647 135.08C107.686 135.08 107.725 135.08 107.764 135.08C107.803 135.08 107.842 135.08 107.881 135.08C107.92 135.08 107.959 135.08 107.998 135.08C108.037 135.08 108.076 135.08 108.115 135.08C108.154 135.08 108.193 135.08 108.232 135.08C108.271 135.08 108.31 135.08 108.348 135.08C108.387 135.08 108.426 135.08 108.465 135.08C108.503 135.08 108.542 135.08 108.581 135.08C108.62 135.08 108.658 135.08 108.697 135.08C108.736 135.08 108.774 135.08 108.813 135.08C108.852 135.08 108.89 135.08 108.929 135.08C108.967 135.08 109.006 135.08 109.044 135.08C109.083 135.08 109.122 135.08 109.16 135.08C109.199 135.08 109.237 135.08 109.275 135.08C109.314 135.08 109.352 135.08 109.391 135.08C109.429 135.08 109.467 135.08 109.506 135.08C109.544 135.08 109.582 135.08 109.621 135.08C109.659 135.08 109.697 135.08 109.736 135.08C109.774 135.08 109.812 135.08 109.85 135.08C109.889 135.08 109.927 135.08 109.965 135.08C110.003 135.08 110.041 135.08 110.079 135.08C110.118 135.08 110.156 135.08 110.194 135.08C110.232 135.08 110.27 135.08 110.308 135.08C110.346 135.08 110.384 135.08 110.422 135.08C110.46 135.08 110.498 135.08 110.536 135.08C110.574 135.08 110.612 135.08 110.65 135.08C110.688 135.08 110.726 135.08 110.763 135.08C110.801 135.08 110.839 135.08 110.877 135.08C110.915 135.08 110.953 135.08 110.991 135.08C111.028 135.08 111.066 135.08 111.104 135.08C111.142 135.08 111.179 135.08 111.217 135.08C111.255 135.08 111.292 135.08 111.33 135.08C111.368 135.08 111.405 135.08 111.443 135.08C111.481 135.08 111.518 135.08 111.556 135.08C111.594 135.08 111.631 135.08 111.669 135.08C111.706 135.08 111.744 135.08 111.781 135.08C111.819 135.08 111.856 135.08 111.894 135.08C111.931 135.08 111.969 135.08 112.006 135.08C112.044 135.08 112.081 135.08 112.118 135.08C112.156 135.08 112.193 135.08 112.231 135.08C112.268 135.08 112.305 135.08 112.343 135.08C112.38 135.08 112.417 135.08 112.455 135.08C112.492 135.08 112.529 135.08 112.566 135.08C112.604 135.08 112.641 135.08 112.678 135.08C112.715 135.08 112.753 135.08 112.79 135.08C112.827 135.08 112.864 135.08 112.901 135.08C112.938 135.08 112.976 135.08 113.013 135.08C113.05 135.08 113.087 135.08 113.124 135.08C113.161 135.08 113.198 135.08 113.235 135.08C113.272 135.08 113.309 135.08 113.346 135.08C113.383 135.08 113.42 135.08 113.457 135.08C113.494 135.08 113.531 135.08 113.568 135.08C113.605 135.08 113.642 135.08 113.679 135.08C113.716 135.08 113.753 135.08 113.79 135.08C113.827 135.08 113.864 135.08 113.9 135.08C113.937 135.08 113.974 135.08 114.011 135.08C114.048 135.08 114.084 135.08 114.121 135.08C114.158 135.08 114.195 135.08 114.232 135.08C114.268 135.08 114.305 135.08 114.342 135.08C114.379 135.08 114.415 135.08 114.452 135.08C114.489 135.08 114.525 135.08 114.562 135.08C114.599 135.08 114.635 135.08 114.672 135.08C114.709 135.08 114.745 135.08 114.782 135.08C114.818 135.08 114.855 135.08 114.892 135.08C114.928 135.08 114.965 135.08 115.001 135.08C115.038 135.08 115.074 135.08 115.111 135.08C115.147 135.08 115.184 135.08 115.22 135.08C115.257 135.08 115.293 135.08 115.33 135.08C115.366 135.08 115.403 135.08 115.439 135.08C115.476 135.08 115.512 135.08 115.548 135.08C115.585 135.08 115.621 135.08 115.658 135.08C115.694 135.08 115.73 135.08 115.767 135.08C115.803 135.08 115.839 135.08 115.876 135.08C115.912 135.08 115.948 135.08 115.985 135.08C116.021 135.08 116.057 135.08 116.094 135.08C116.13 135.08 116.166 135.08 116.202 135.08C116.239 135.08 116.275 135.08 116.311 135.08C116.347 135.08 116.384 135.08 116.42 135.08C116.456 135.08 116.492 135.08 116.528 135.08C116.565 135.08 116.601 135.08 116.637 135.08C116.673 135.08 116.709 135.08 116.745 135.08C116.781 135.08 116.818 135.08 116.854 135.08C116.89 135.08 116.926 135.08 116.962 135.08C116.998 135.08 117.034 135.08 117.07 135.08C117.106 135.08 117.142 135.08 117.178 135.08C117.214 135.08 117.25 135.08 117.286 135.08C117.322 135.08 117.358 135.08 117.394 135.08C117.43 135.08 117.466 135.08 117.502 135.08C117.538 135.08 117.574 135.08 117.61 135.08C117.646 135.08 117.682 135.08 117.718 135.08C117.754 135.08 117.79 135.08 117.826 135.08C117.862 135.08 117.898 135.08 117.934 135.08C117.969 135.08 118.005 135.08 118.041 135.08C118.077 135.08 118.113 135.08 118.149 135.08C118.185 135.08 118.221 135.08 118.256 135.08C118.292 135.08 118.328 135.08 118.364 135.08C118.4 135.08 118.435 135.08 118.471 135.08C118.507 135.08 118.543 135.08 118.579 135.08C118.614 135.08 118.65 135.08 118.686 135.08C118.722 135.08 118.757 135.08 118.793 135.08C118.829 135.08 118.865 135.08 118.9 135.08C118.936 135.08 118.972 135.08 119.008 135.08C119.043 135.08 119.079 135.08 119.115 135.08C119.15 135.08 119.186 135.08 119.222 135.08C119.257 135.08 119.293 135.08 119.329 135.08C119.364 135.08 119.4 135.08 119.436 135.08C119.471 135.08 119.507 135.08 119.543 135.08C119.578 135.08 119.614 135.08 119.65 135.08C119.685 135.08 119.721 135.08 119.756 135.08C119.792 135.08 119.828 135.08 119.863 135.08C119.899 135.08 119.934 135.08 119.97 135.08C120.005 135.08 120.041 135.08 120.077 135.08C120.112 135.08 120.148 135.08 120.183 135.08C120.219 135.08 120.254 135.08 120.29 135.08C120.325 135.08 120.361 135.08 120.397 135.08C120.432 135.08 120.468 135.08 120.503 135.08C120.539 135.08 120.574 135.08 120.61 135.08C120.645 135.08 120.681 135.08 120.716 135.08C120.752 135.08 120.787 135.08 120.823 135.08C120.858 135.08 120.893 135.08 120.929 135.08C120.964 135.08 121 135.08 121.035 135.08C121.071 135.08 121.106 135.08 121.142 135.08C121.177 135.08 121.213 135.08 121.248 135.08C121.283 135.08 121.319 135.08 121.354 135.08C121.39 135.08 121.425 135.08 121.461 135.08C121.496 135.08 121.531 135.08 121.567 135.08C121.602 135.08 121.638 135.08 121.673 135.08C121.708 135.08 121.744 135.08 121.779 135.08C121.815 135.08 121.85 135.08 121.885 135.08C121.921 135.08 121.956 135.08 121.992 135.08C122.027 135.08 122.062 135.08 122.098 135.08C122.133 135.08 122.168 135.08 122.204 135.08C122.239 135.08 122.275 135.08 122.31 135.08C122.345 135.08 122.381 135.08 122.416 135.08C122.451 135.08 122.487 135.08 122.522 135.08C122.557 135.08 122.593 135.08 122.628 135.08C122.663 135.08 122.699 135.08 122.734 135.08C122.769 135.08 122.805 135.08 122.84 135.08C122.875 135.08 122.911 135.08 122.946 135.08C122.981 135.08 123.017 135.08 123.052 135.08C123.087 135.08 123.123 135.08 123.158 135.08C123.193 135.08 123.229 135.08 123.264 135.08C123.299 135.08 123.335 135.08 123.37 135.08C123.405 135.08 123.441 135.08 123.476 135.08C123.511 135.08 123.546 135.08 123.582 135.08C123.617 135.08 123.652 135.08 123.688 135.08C123.723 135.08 123.758 135.08 123.794 135.08C123.829 135.08 123.864 135.08 123.899 135.08C123.935 135.08 123.97 135.08 124.005 135.08C124.041 135.08 124.076 135.08 124.111 135.08C124.147 135.08 124.182 135.08 124.217 135.08C124.252 135.08 124.288 135.08 124.323 135.08C124.358 135.08 124.394 135.08 124.429 135.08C124.464 135.08 124.5 135.08 124.535 135.08C124.57 135.08 124.605 135.08 124.641 135.08C124.676 135.08 124.711 135.08 124.747 135.08C124.782 135.08 124.817 135.08 124.853 135.08C124.888 135.08 124.923 135.08 124.959 135.08C124.994 135.08 125.029 135.08 125.064 135.08C125.1 135.08 125.135 135.08 125.17 135.08C125.206 135.08 125.241 135.08 125.276 135.08C125.312 135.08 125.347 135.08 125.382 135.08C125.418 135.08 125.453 135.08 125.488 135.08C125.524 135.08 125.559 135.08 125.594 135.08C125.629 135.08 125.665 135.08 125.7 135.08C125.735 135.08 125.771 135.08 125.806 135.08C125.841 135.08 125.877 135.08 125.912 135.08C125.947 135.08 125.983 135.08 126.018 135.08C126.053 135.08 126.089 135.08 126.124 135.08C126.16 135.08 126.195 135.08 126.23 135.08C126.266 135.08 126.301 135.08 126.336 135.08C126.372 135.08 126.407 135.08 126.442 135.08C126.478 135.08 126.513 135.08 126.548 135.08C126.584 135.08 126.619 135.08 126.655 135.08C126.69 135.08 126.725 135.08 126.761 135.08C126.796 135.08 126.832 135.08 126.867 135.08C126.902 135.08 126.938 135.08 126.973 135.08C127.009 135.08 127.044 135.08 127.079 135.08C127.115 135.08 127.15 135.08 127.186 135.08C127.221 135.08 127.256 135.08 127.292 135.08C127.327 135.08 127.363 135.08 127.398 135.08C127.434 135.08 127.469 135.08 127.504 135.08C127.54 135.08 127.575 135.08 127.611 135.08C127.646 135.08 127.682 135.08 127.717 135.08C127.753 135.08 127.788 135.08 127.824 135.08C127.859 135.08 127.895 135.08 127.93 135.08C127.966 135.08 128.001 135.08 128.037 135.08C128.072 135.08 128.108 135.08 128.143 135.08C128.179 135.08 128.214 135.08 128.25 135.08C128.285 135.08 128.321 135.08 128.356 135.08C128.392 135.08 128.427 135.08 128.463 135.08C128.498 135.08 128.534 135.08 128.57 135.08C128.605 135.08 128.641 135.08 128.676 135.08C128.712 135.08 128.747 135.08 128.783 135.08C128.819 135.08 128.854 135.08 128.89 135.08C128.925 135.08 128.961 135.08 128.997 135.08C129.032 135.08 129.068 135.08 129.104 135.08C129.139 135.08 129.175 135.08 129.21 135.08C129.246 135.08 129.282 135.08 129.317 135.08C129.353 135.08 129.389 135.08 129.424 135.08C129.46 135.08 129.496 135.08 129.532 135.08C129.567 135.08 129.603 135.08 129.639 135.08C129.674 135.08 129.71 135.08 129.746 135.08C129.782 135.08 129.817 135.08 129.853 135.08C129.889 135.08 129.924 135.08 129.96 135.08C129.996 135.08 130.032 135.08 130.068 135.08C130.103 135.08 130.139 135.08 130.175 135.08C130.211 135.08 130.247 135.08 130.282 135.08C130.318 135.08 130.354 135.08 130.39 135.08C130.426 135.08 130.462 135.08 130.497 135.08C130.533 135.08 130.569 135.08 130.605 135.08C130.641 135.08 130.677 135.08 130.713 135.08C130.749 135.08 130.784 135.08 130.82 135.08C130.856 135.08 130.892 135.08 130.928 135.08C130.964 135.08 131 135.08 131.036 135.08C131.072 135.08 131.108 135.08 131.144 135.08C131.18 135.08 131.216 135.08 131.252 135.08C131.288 135.08 131.324 135.08 131.36 135.08C131.396 135.08 131.432 135.08 131.468 135.08C131.504 135.08 131.54 135.08 131.576 135.08C131.612 135.08 131.648 135.08 131.684 135.08C131.72 135.08 131.756 135.08 131.793 135.08C131.829 135.08 131.865 135.08 131.901 135.08C131.937 135.08 131.973 135.08 132.009 135.08C132.045 135.08 132.082 135.08 132.118 135.08C132.154 135.08 132.19 135.08 132.226 135.08C132.263 135.08 132.299 135.08 132.335 135.08C132.371 135.08 132.408 135.08 132.444 135.08C132.48 135.08 132.516 135.08 132.553 135.08C132.589 135.08 132.625 135.08 132.661 135.08C132.698 135.08 132.734 135.08 132.77 135.08C132.807 135.08 132.843 135.08 132.879 135.08C132.916 135.08 132.952 135.08 132.989 135.08C133.025 135.08 133.061 135.08 133.098 135.08C133.134 135.08 133.171 135.08 133.207 135.08C133.243 135.08 133.28 135.08 133.316 135.08C133.353 135.08 133.389 135.08 133.426 135.08C133.462 135.08 133.499 135.08 133.535 135.08C133.572 135.08 133.608 135.08 133.645 135.08C133.681 135.08 133.718 135.08 133.755 135.08C133.791 135.08 133.828 135.08 133.864 135.08C133.901 135.08 133.938 135.08 133.974 135.08C134.011 135.08 134.048 135.08 134.084 135.08C134.121 135.08 134.158 135.08 134.194 135.08C134.231 135.08 134.268 135.08 134.304 135.08C134.341 135.08 134.378 135.08 134.415 135.08C134.451 135.08 134.488 135.08 134.525 135.08C134.562 135.08 134.598 135.08 134.635 135.08C134.672 135.08 134.709 135.08 134.746 135.08C134.783 135.08 134.82 135.08 134.856 135.08C134.893 135.08 134.93 135.08 134.967 135.08C135.004 135.08 135.041 135.08 135.078 135.08C135.115 135.08 135.152 135.08 135.189 135.08C135.226 135.08 135.263 135.08 135.3 135.08C135.337 135.08 135.374 135.08 135.411 135.08C135.448 135.08 135.485 135.08 135.522 135.08C135.559 135.08 135.596 135.08 135.633 135.08C135.671 135.08 135.708 135.08 135.745 135.08C135.782 135.08 135.819 135.08 135.856 135.08C135.894 135.08 135.931 135.08 135.968 135.08C136.005 135.08 136.042 135.08 136.08 135.08C136.117 135.08 136.154 135.08 136.192 135.08C136.229 135.08 136.266 135.08 136.303 135.08C136.341 135.08 136.378 135.08 136.416 135.08C136.453 135.08 136.49 135.08 136.528 135.08C136.565 135.08 136.603 135.08 136.64 135.08C136.677 135.08 136.715 135.08 136.752 135.08C136.79 135.08 136.827 135.08 136.865 135.08C136.902 135.08 136.94 135.08 136.977 135.08C137.015 135.08 137.053 135.08 137.09 135.08C137.128 135.08 137.165 135.08 137.203 135.08C137.241 135.08 137.278 135.08 137.316 135.08C137.354 135.08 137.391 135.08 137.429 135.08C137.467 135.08 137.505 135.08 137.542 135.08C137.58 135.08 137.618 135.08 137.656 135.08C137.693 135.08 137.731 135.08 137.769 135.08C137.807 135.08 137.845 135.08 137.883 135.08C137.921 135.08 137.958 135.08 137.996 135.08C138.034 135.08 138.072 135.08 138.11 135.08C138.148 135.08 138.186 135.08 138.224 135.08C138.262 135.08 138.3 135.08 138.338 135.08C138.376 135.08 138.414 135.08 138.452 135.08C138.491 135.08 138.529 135.08 138.567 135.08C138.605 135.08 138.643 135.08 138.681 135.08C138.719 135.08 138.758 135.08 138.796 135.08C138.834 135.08 138.872 135.08 138.911 135.08C138.949 135.08 138.987 135.08 139.025 135.08C139.064 135.08 139.102 135.08 139.14 135.08C139.179 135.08 139.217 135.08 139.256 135.08C139.294 135.08 139.332 135.08 139.371 135.08C139.409 135.08 139.448 135.08 139.486 135.08C139.525 135.08 139.563 135.08 139.602 135.08C139.64 135.08 139.679 135.08 139.717 135.08C139.756 135.08 139.795 135.08 139.833 135.08C139.872 135.08 139.91 135.08 139.949 135.08C139.988 135.08 140.027 135.08 140.065 135.08C140.104 135.08 140.143 135.08 140.181 135.08C140.22 135.08 140.259 135.08 140.298 135.08C140.337 135.08 140.376 135.08 140.414 135.08C140.453 135.08 140.492 135.08 140.531 135.08C140.57 135.08 140.609 135.08 140.648 135.08C140.687 135.08 140.726 135.08 140.765 135.08C140.804 135.08 140.843 135.08 140.882 135.08C140.921 135.08 140.96 135.08 140.999 135.08C141.038 135.08 141.077 135.08 141.117 135.08C141.156 135.08 141.195 135.08 141.234 135.08C141.273 135.08 141.313 135.08 141.352 135.08C141.391 135.08 141.43 135.08 141.47 135.08C141.509 135.08 141.548 135.08 141.588 135.08C141.627 135.08 141.667 135.08 141.706 135.08C141.745 135.08 141.785 135.08 141.824 135.08C141.864 135.08 141.903 135.08 141.943 135.08C141.982 135.08 142.022 135.08 142.061 135.08C142.101 135.08 142.141 135.08 142.18 135.08C142.22 135.08 142.26 135.08 142.299 135.08C142.339 135.08 142.379 135.08 142.418 135.08C142.458 135.08 142.498 135.08 142.538 135.08C142.577 135.08 142.617 135.08 142.657 135.08C142.697 135.08 142.737 135.08 142.777 135.08C142.817 135.08 142.857 135.08 142.897 135.08C142.937 135.08 142.976 135.08 143.017 135.08C143.057 135.08 143.097 135.08 143.137 135.08C143.177 135.08 143.217 135.08 143.257 135.08C143.297 135.08 143.337 135.08 143.377 135.08C143.418 135.08 143.458 135.08 143.498 135.08C143.538 135.08 143.579 135.08 143.619 135.08C143.659 135.08 143.699 135.08 143.74 135.08C143.78 135.08 143.821 135.08 143.861 135.08C143.901 135.08 143.942 135.08 143.982 135.08C144.023 135.08 144.063 135.08 144.104 135.08C144.144 135.08 144.185 135.08 144.225 135.08C144.266 135.08 144.307 135.08 144.347 135.08C144.388 135.08 144.429 135.08 144.469 135.08C144.51 135.08 144.551 135.08 144.592 135.08C144.632 135.08 144.673 135.08 144.714 135.08C144.755 135.08 144.796 135.08 144.837 135.08C144.877 135.08 144.918 135.08 144.959 135.08C145 135.08 145.041 135.08 145.082 135.08C145.123 135.08 145.164 135.08 145.205 135.08C145.246 135.08 145.287 135.08 145.329 135.08C145.37 135.08 145.411 135.08 145.452 135.08C145.493 135.08 145.535 135.08 145.576 135.08C145.617 135.08 145.658 135.08 145.7 135.08C145.741 135.08 145.782 135.08 145.824 135.08C145.865 135.08 145.907 135.08 145.948 135.08C145.989 135.08 146.031 135.08 146.072 135.08C146.114 135.08 146.155 135.08 146.197 135.08C146.239 135.08 146.28 135.08 146.322 135.08C146.363 135.08 146.405 135.08 146.447 135.08C146.489 135.08 146.53 135.08 146.572 135.08C146.614 135.08 146.656 135.08 146.697 135.08C146.739 135.08 146.781 135.08 146.823 135.08C146.865 135.08 146.907 135.08 146.949 135.08C146.991 135.08 147.033 135.08 147.075 135.08C147.117 135.08 147.159 135.08 147.201 135.08C147.243 135.08 147.285 135.08 147.328 135.08C147.37 135.08 147.412 135.08 147.454 135.08C147.496 135.08 147.539 135.08 147.581 135.08C147.623 135.08 147.666 135.08 147.708 135.08C147.75 135.08 147.793 135.08 147.835 135.08C147.878 135.08 147.92 135.08 147.963 135.08C148.005 135.08 148.048 135.08 148.09 135.08C148.133 135.08 148.175 135.08 148.218 135.08C148.261 135.08 148.303 135.08 148.346 135.08C148.389 135.08 148.432 135.08 148.474 135.08C148.517 135.08 148.56 135.08 148.603 135.08C148.646 135.08 148.689 135.08 148.732 135.08C148.774 135.08 148.817 135.08 148.86 135.08C148.903 135.08 148.946 135.08 148.99 135.08C149.033 135.08 149.076 135.08 149.119 135.08C149.162 135.08 149.205 135.08 149.248 135.08C149.292 135.08 149.335 135.08 149.378 135.08C149.421 135.08 149.465 135.08 149.508 135.08C149.551 135.08 149.595 135.08 149.638 135.08C149.682 135.08 149.725 135.08 149.769 135.08C149.812 135.08 149.856 135.08 149.899 135.08C149.943 135.08 149.987 135.08 150.03 135.08C150.074 135.08 150.118 135.08 150.161 135.08C150.205 135.08 150.249 135.08 150.293 135.08C150.336 135.08 150.38 135.08 150.424 135.08C150.468 135.08 150.512 135.08 150.556 135.08C150.6 135.08 150.644 135.08 150.688 135.08C150.732 135.08 150.776 135.08 150.82 135.08C150.864 135.08 150.908 135.08 150.952 135.08C150.997 135.08 151.041 135.08 151.085 135.08C151.129 135.08 151.174 135.08 151.218 135.08C151.262 135.08 151.307 135.08 151.351 135.08C151.396 135.08 151.44 135.08 151.485 135.08C151.529 135.08 151.574 135.08 151.618 135.08C151.663 135.08 151.707 135.08 151.752 135.08C151.797 135.08 151.841 135.08 151.886 135.08C151.931 135.08 151.975 135.08 152.02 135.08C152.065 135.08 152.11 135.08 152.155 135.08C152.2 135.08 152.245 135.08 152.29 135.08C152.335 135.08 152.38 135.08 152.425 135.08C152.47 135.08 152.515 135.08 152.56 135.08C152.605 135.08 152.65 135.08 152.695 135.08C152.741 135.08 152.786 135.08 152.831 135.08C152.876 135.08 152.922 135.08 152.967 135.08C153.012 135.08 153.058 135.08 153.103 135.08C153.149 135.08 153.194 135.08 153.24 135.08C153.285 135.08 153.331 135.08 153.377 135.08C153.422 135.08 153.468 135.08 153.514 135.08C153.559 135.08 153.605 135.08 153.651 135.08C153.696 135.08 153.742 135.08 153.788 135.08C153.834 135.08 153.88 135.08 153.926 135.08C153.972 135.08 154.018 135.08 154.064 135.08C154.11 135.08 154.156 135.08 154.202 135.08V132.08C154.156 132.08 154.11 132.08 154.064 132.08C154.018 132.08 153.972 132.08 153.926 132.08C153.88 132.08 153.834 132.08 153.788 132.08C153.742 132.08 153.696 132.08 153.651 132.08C153.605 132.08 153.559 132.08 153.514 132.08C153.468 132.08 153.422 132.08 153.377 132.08C153.331 132.08 153.285 132.08 153.24 132.08C153.194 132.08 153.149 132.08 153.103 132.08C153.058 132.08 153.012 132.08 152.967 132.08C152.922 132.08 152.876 132.08 152.831 132.08C152.786 132.08 152.741 132.08 152.695 132.08C152.65 132.08 152.605 132.08 152.56 132.08C152.515 132.08 152.47 132.08 152.425 132.08C152.38 132.08 152.335 132.08 152.29 132.08C152.245 132.08 152.2 132.08 152.155 132.08C152.11 132.08 152.065 132.08 152.02 132.08C151.975 132.08 151.931 132.08 151.886 132.08C151.841 132.08 151.797 132.08 151.752 132.08C151.707 132.08 151.663 132.08 151.618 132.08C151.574 132.08 151.529 132.08 151.485 132.08C151.44 132.08 151.396 132.08 151.351 132.08C151.307 132.08 151.262 132.08 151.218 132.08C151.174 132.08 151.129 132.08 151.085 132.08C151.041 132.08 150.997 132.08 150.952 132.08C150.908 132.08 150.864 132.08 150.82 132.08C150.776 132.08 150.732 132.08 150.688 132.08C150.644 132.08 150.6 132.08 150.556 132.08C150.512 132.08 150.468 132.08 150.424 132.08C150.38 132.08 150.336 132.08 150.293 132.08C150.249 132.08 150.205 132.08 150.161 132.08C150.118 132.08 150.074 132.08 150.03 132.08C149.987 132.08 149.943 132.08 149.899 132.08C149.856 132.08 149.812 132.08 149.769 132.08C149.725 132.08 149.682 132.08 149.638 132.08C149.595 132.08 149.551 132.08 149.508 132.08C149.465 132.08 149.421 132.08 149.378 132.08C149.335 132.08 149.292 132.08 149.248 132.08C149.205 132.08 149.162 132.08 149.119 132.08C149.076 132.08 149.033 132.08 148.99 132.08C148.946 132.08 148.903 132.08 148.86 132.08C148.817 132.08 148.774 132.08 148.732 132.08C148.689 132.08 148.646 132.08 148.603 132.08C148.56 132.08 148.517 132.08 148.474 132.08C148.432 132.08 148.389 132.08 148.346 132.08C148.303 132.08 148.261 132.08 148.218 132.08C148.175 132.08 148.133 132.08 148.09 132.08C148.048 132.08 148.005 132.08 147.963 132.08C147.92 132.08 147.878 132.08 147.835 132.08C147.793 132.08 147.75 132.08 147.708 132.08C147.666 132.08 147.623 132.08 147.581 132.08C147.539 132.08 147.496 132.08 147.454 132.08C147.412 132.08 147.37 132.08 147.328 132.08C147.285 132.08 147.243 132.08 147.201 132.08C147.159 132.08 147.117 132.08 147.075 132.08C147.033 132.08 146.991 132.08 146.949 132.08C146.907 132.08 146.865 132.08 146.823 132.08C146.781 132.08 146.739 132.08 146.697 132.08C146.656 132.08 146.614 132.08 146.572 132.08C146.53 132.08 146.489 132.08 146.447 132.08C146.405 132.08 146.363 132.08 146.322 132.08C146.28 132.08 146.239 132.08 146.197 132.08C146.155 132.08 146.114 132.08 146.072 132.08C146.031 132.08 145.989 132.08 145.948 132.08C145.907 132.08 145.865 132.08 145.824 132.08C145.782 132.08 145.741 132.08 145.7 132.08C145.658 132.08 145.617 132.08 145.576 132.08C145.535 132.08 145.493 132.08 145.452 132.08C145.411 132.08 145.37 132.08 145.329 132.08C145.287 132.08 145.246 132.08 145.205 132.08C145.164 132.08 145.123 132.08 145.082 132.08C145.041 132.08 145 132.08 144.959 132.08C144.918 132.08 144.877 132.08 144.837 132.08C144.796 132.08 144.755 132.08 144.714 132.08C144.673 132.08 144.632 132.08 144.592 132.08C144.551 132.08 144.51 132.08 144.469 132.08C144.429 132.08 144.388 132.08 144.347 132.08C144.307 132.08 144.266 132.08 144.225 132.08C144.185 132.08 144.144 132.08 144.104 132.08C144.063 132.08 144.023 132.08 143.982 132.08C143.942 132.08 143.901 132.08 143.861 132.08C143.821 132.08 143.78 132.08 143.74 132.08C143.699 132.08 143.659 132.08 143.619 132.08C143.579 132.08 143.538 132.08 143.498 132.08C143.458 132.08 143.418 132.08 143.377 132.08C143.337 132.08 143.297 132.08 143.257 132.08C143.217 132.08 143.177 132.08 143.137 132.08C143.097 132.08 143.057 132.08 143.017 132.08C142.976 132.08 142.937 132.08 142.897 132.08C142.857 132.08 142.817 132.08 142.777 132.08C142.737 132.08 142.697 132.08 142.657 132.08C142.617 132.08 142.577 132.08 142.538 132.08C142.498 132.08 142.458 132.08 142.418 132.08C142.379 132.08 142.339 132.08 142.299 132.08C142.26 132.08 142.22 132.08 142.18 132.08C142.141 132.08 142.101 132.08 142.061 132.08C142.022 132.08 141.982 132.08 141.943 132.08C141.903 132.08 141.864 132.08 141.824 132.08C141.785 132.08 141.745 132.08 141.706 132.08C141.667 132.08 141.627 132.08 141.588 132.08C141.548 132.08 141.509 132.08 141.47 132.08C141.43 132.08 141.391 132.08 141.352 132.08C141.313 132.08 141.273 132.08 141.234 132.08C141.195 132.08 141.156 132.08 141.117 132.08C141.077 132.08 141.038 132.08 140.999 132.08C140.96 132.08 140.921 132.08 140.882 132.08C140.843 132.08 140.804 132.08 140.765 132.08C140.726 132.08 140.687 132.08 140.648 132.08C140.609 132.08 140.57 132.08 140.531 132.08C140.492 132.08 140.453 132.08 140.414 132.08C140.376 132.08 140.337 132.08 140.298 132.08C140.259 132.08 140.22 132.08 140.181 132.08C140.143 132.08 140.104 132.08 140.065 132.08C140.027 132.08 139.988 132.08 139.949 132.08C139.91 132.08 139.872 132.08 139.833 132.08C139.795 132.08 139.756 132.08 139.717 132.08C139.679 132.08 139.64 132.08 139.602 132.08C139.563 132.08 139.525 132.08 139.486 132.08C139.448 132.08 139.409 132.08 139.371 132.08C139.332 132.08 139.294 132.08 139.256 132.08C139.217 132.08 139.179 132.08 139.14 132.08C139.102 132.08 139.064 132.08 139.025 132.08C138.987 132.08 138.949 132.08 138.911 132.08C138.872 132.08 138.834 132.08 138.796 132.08C138.758 132.08 138.719 132.08 138.681 132.08C138.643 132.08 138.605 132.08 138.567 132.08C138.529 132.08 138.491 132.08 138.452 132.08C138.414 132.08 138.376 132.08 138.338 132.08C138.3 132.08 138.262 132.08 138.224 132.08C138.186 132.08 138.148 132.08 138.11 132.08C138.072 132.08 138.034 132.08 137.996 132.08C137.958 132.08 137.921 132.08 137.883 132.08C137.845 132.08 137.807 132.08 137.769 132.08C137.731 132.08 137.693 132.08 137.656 132.08C137.618 132.08 137.58 132.08 137.542 132.08C137.505 132.08 137.467 132.08 137.429 132.08C137.391 132.08 137.354 132.08 137.316 132.08C137.278 132.08 137.241 132.08 137.203 132.08C137.165 132.08 137.128 132.08 137.09 132.08C137.053 132.08 137.015 132.08 136.977 132.08C136.94 132.08 136.902 132.08 136.865 132.08C136.827 132.08 136.79 132.08 136.752 132.08C136.715 132.08 136.677 132.08 136.64 132.08C136.603 132.08 136.565 132.08 136.528 132.08C136.49 132.08 136.453 132.08 136.416 132.08C136.378 132.08 136.341 132.08 136.303 132.08C136.266 132.08 136.229 132.08 136.192 132.08C136.154 132.08 136.117 132.08 136.08 132.08C136.042 132.08 136.005 132.08 135.968 132.08C135.931 132.08 135.894 132.08 135.856 132.08C135.819 132.08 135.782 132.08 135.745 132.08C135.708 132.08 135.671 132.08 135.633 132.08C135.596 132.08 135.559 132.08 135.522 132.08C135.485 132.08 135.448 132.08 135.411 132.08C135.374 132.08 135.337 132.08 135.3 132.08C135.263 132.08 135.226 132.08 135.189 132.08C135.152 132.08 135.115 132.08 135.078 132.08C135.041 132.08 135.004 132.08 134.967 132.08C134.93 132.08 134.893 132.08 134.856 132.08C134.82 132.08 134.783 132.08 134.746 132.08C134.709 132.08 134.672 132.08 134.635 132.08C134.598 132.08 134.562 132.08 134.525 132.08C134.488 132.08 134.451 132.08 134.415 132.08C134.378 132.08 134.341 132.08 134.304 132.08C134.268 132.08 134.231 132.08 134.194 132.08C134.158 132.08 134.121 132.08 134.084 132.08C134.048 132.08 134.011 132.08 133.974 132.08C133.938 132.08 133.901 132.08 133.864 132.08C133.828 132.08 133.791 132.08 133.755 132.08C133.718 132.08 133.681 132.08 133.645 132.08C133.608 132.08 133.572 132.08 133.535 132.08C133.499 132.08 133.462 132.08 133.426 132.08C133.389 132.08 133.353 132.08 133.316 132.08C133.28 132.08 133.243 132.08 133.207 132.08C133.171 132.08 133.134 132.08 133.098 132.08C133.061 132.08 133.025 132.08 132.989 132.08C132.952 132.08 132.916 132.08 132.879 132.08C132.843 132.08 132.807 132.08 132.77 132.08C132.734 132.08 132.698 132.08 132.661 132.08C132.625 132.08 132.589 132.08 132.553 132.08C132.516 132.08 132.48 132.08 132.444 132.08C132.408 132.08 132.371 132.08 132.335 132.08C132.299 132.08 132.263 132.08 132.226 132.08C132.19 132.08 132.154 132.08 132.118 132.08C132.082 132.08 132.045 132.08 132.009 132.08C131.973 132.08 131.937 132.08 131.901 132.08C131.865 132.08 131.829 132.08 131.793 132.08C131.756 132.08 131.72 132.08 131.684 132.08C131.648 132.08 131.612 132.08 131.576 132.08C131.54 132.08 131.504 132.08 131.468 132.08C131.432 132.08 131.396 132.08 131.36 132.08C131.324 132.08 131.288 132.08 131.252 132.08C131.216 132.08 131.18 132.08 131.144 132.08C131.108 132.08 131.072 132.08 131.036 132.08C131 132.08 130.964 132.08 130.928 132.08C130.892 132.08 130.856 132.08 130.82 132.08C130.784 132.08 130.749 132.08 130.713 132.08C130.677 132.08 130.641 132.08 130.605 132.08C130.569 132.08 130.533 132.08 130.497 132.08C130.462 132.08 130.426 132.08 130.39 132.08C130.354 132.08 130.318 132.08 130.282 132.08C130.247 132.08 130.211 132.08 130.175 132.08C130.139 132.08 130.103 132.08 130.068 132.08C130.032 132.08 129.996 132.08 129.96 132.08C129.924 132.08 129.889 132.08 129.853 132.08C129.817 132.08 129.782 132.08 129.746 132.08C129.71 132.08 129.674 132.08 129.639 132.08C129.603 132.08 129.567 132.08 129.532 132.08C129.496 132.08 129.46 132.08 129.424 132.08C129.389 132.08 129.353 132.08 129.317 132.08C129.282 132.08 129.246 132.08 129.21 132.08C129.175 132.08 129.139 132.08 129.104 132.08C129.068 132.08 129.032 132.08 128.997 132.08C128.961 132.08 128.925 132.08 128.89 132.08C128.854 132.08 128.819 132.08 128.783 132.08C128.747 132.08 128.712 132.08 128.676 132.08C128.641 132.08 128.605 132.08 128.57 132.08C128.534 132.08 128.498 132.08 128.463 132.08C128.427 132.08 128.392 132.08 128.356 132.08C128.321 132.08 128.285 132.08 128.25 132.08C128.214 132.08 128.179 132.08 128.143 132.08C128.108 132.08 128.072 132.08 128.037 132.08C128.001 132.08 127.966 132.08 127.93 132.08C127.895 132.08 127.859 132.08 127.824 132.08C127.788 132.08 127.753 132.08 127.717 132.08C127.682 132.08 127.646 132.08 127.611 132.08C127.575 132.08 127.54 132.08 127.504 132.08C127.469 132.08 127.434 132.08 127.398 132.08C127.363 132.08 127.327 132.08 127.292 132.08C127.256 132.08 127.221 132.08 127.186 132.08C127.15 132.08 127.115 132.08 127.079 132.08C127.044 132.08 127.009 132.08 126.973 132.08C126.938 132.08 126.902 132.08 126.867 132.08C126.832 132.08 126.796 132.08 126.761 132.08C126.725 132.08 126.69 132.08 126.655 132.08C126.619 132.08 126.584 132.08 126.548 132.08C126.513 132.08 126.478 132.08 126.442 132.08C126.407 132.08 126.372 132.08 126.336 132.08C126.301 132.08 126.266 132.08 126.23 132.08C126.195 132.08 126.16 132.08 126.124 132.08C126.089 132.08 126.053 132.08 126.018 132.08C125.983 132.08 125.947 132.08 125.912 132.08C125.877 132.08 125.841 132.08 125.806 132.08C125.771 132.08 125.735 132.08 125.7 132.08C125.665 132.08 125.629 132.08 125.594 132.08C125.559 132.08 125.524 132.08 125.488 132.08C125.453 132.08 125.418 132.08 125.382 132.08C125.347 132.08 125.312 132.08 125.276 132.08C125.241 132.08 125.206 132.08 125.17 132.08C125.135 132.08 125.1 132.08 125.064 132.08C125.029 132.08 124.994 132.08 124.959 132.08C124.923 132.08 124.888 132.08 124.853 132.08C124.817 132.08 124.782 132.08 124.747 132.08C124.711 132.08 124.676 132.08 124.641 132.08C124.605 132.08 124.57 132.08 124.535 132.08C124.5 132.08 124.464 132.08 124.429 132.08C124.394 132.08 124.358 132.08 124.323 132.08C124.288 132.08 124.252 132.08 124.217 132.08C124.182 132.08 124.147 132.08 124.111 132.08C124.076 132.08 124.041 132.08 124.005 132.08C123.97 132.08 123.935 132.08 123.899 132.08C123.864 132.08 123.829 132.08 123.794 132.08C123.758 132.08 123.723 132.08 123.688 132.08C123.652 132.08 123.617 132.08 123.582 132.08C123.546 132.08 123.511 132.08 123.476 132.08C123.441 132.08 123.405 132.08 123.37 132.08C123.335 132.08 123.299 132.08 123.264 132.08C123.229 132.08 123.193 132.08 123.158 132.08C123.123 132.08 123.087 132.08 123.052 132.08C123.017 132.08 122.981 132.08 122.946 132.08C122.911 132.08 122.875 132.08 122.84 132.08C122.805 132.08 122.769 132.08 122.734 132.08C122.699 132.08 122.663 132.08 122.628 132.08C122.593 132.08 122.557 132.08 122.522 132.08C122.487 132.08 122.451 132.08 122.416 132.08C122.381 132.08 122.345 132.08 122.31 132.08C122.275 132.08 122.239 132.08 122.204 132.08C122.168 132.08 122.133 132.08 122.098 132.08C122.062 132.08 122.027 132.08 121.992 132.08C121.956 132.08 121.921 132.08 121.885 132.08C121.85 132.08 121.815 132.08 121.779 132.08C121.744 132.08 121.708 132.08 121.673 132.08C121.638 132.08 121.602 132.08 121.567 132.08C121.531 132.08 121.496 132.08 121.461 132.08C121.425 132.08 121.39 132.08 121.354 132.08C121.319 132.08 121.283 132.08 121.248 132.08C121.213 132.08 121.177 132.08 121.142 132.08C121.106 132.08 121.071 132.08 121.035 132.08C121 132.08 120.964 132.08 120.929 132.08C120.893 132.08 120.858 132.08 120.823 132.08C120.787 132.08 120.752 132.08 120.716 132.08C120.681 132.08 120.645 132.08 120.61 132.08C120.574 132.08 120.539 132.08 120.503 132.08C120.468 132.08 120.432 132.08 120.397 132.08C120.361 132.08 120.325 132.08 120.29 132.08C120.254 132.08 120.219 132.08 120.183 132.08C120.148 132.08 120.112 132.08 120.077 132.08C120.041 132.08 120.005 132.08 119.97 132.08C119.934 132.08 119.899 132.08 119.863 132.08C119.828 132.08 119.792 132.08 119.756 132.08C119.721 132.08 119.685 132.08 119.65 132.08C119.614 132.08 119.578 132.08 119.543 132.08C119.507 132.08 119.471 132.08 119.436 132.08C119.4 132.08 119.364 132.08 119.329 132.08C119.293 132.08 119.257 132.08 119.222 132.08C119.186 132.08 119.15 132.08 119.115 132.08C119.079 132.08 119.043 132.08 119.008 132.08C118.972 132.08 118.936 132.08 118.9 132.08C118.865 132.08 118.829 132.08 118.793 132.08C118.757 132.08 118.722 132.08 118.686 132.08C118.65 132.08 118.614 132.08 118.579 132.08C118.543 132.08 118.507 132.08 118.471 132.08C118.435 132.08 118.4 132.08 118.364 132.08C118.328 132.08 118.292 132.08 118.256 132.08C118.221 132.08 118.185 132.08 118.149 132.08C118.113 132.08 118.077 132.08 118.041 132.08C118.005 132.08 117.969 132.08 117.934 132.08C117.898 132.08 117.862 132.08 117.826 132.08C117.79 132.08 117.754 132.08 117.718 132.08C117.682 132.08 117.646 132.08 117.61 132.08C117.574 132.08 117.538 132.08 117.502 132.08C117.466 132.08 117.43 132.08 117.394 132.08C117.358 132.08 117.322 132.08 117.286 132.08C117.25 132.08 117.214 132.08 117.178 132.08C117.142 132.08 117.106 132.08 117.07 132.08C117.034 132.08 116.998 132.08 116.962 132.08C116.926 132.08 116.89 132.08 116.854 132.08C116.818 132.08 116.781 132.08 116.745 132.08C116.709 132.08 116.673 132.08 116.637 132.08C116.601 132.08 116.565 132.08 116.528 132.08C116.492 132.08 116.456 132.08 116.42 132.08C116.384 132.08 116.347 132.08 116.311 132.08C116.275 132.08 116.239 132.08 116.202 132.08C116.166 132.08 116.13 132.08 116.094 132.08C116.057 132.08 116.021 132.08 115.985 132.08C115.948 132.08 115.912 132.08 115.876 132.08C115.839 132.08 115.803 132.08 115.767 132.08C115.73 132.08 115.694 132.08 115.658 132.08C115.621 132.08 115.585 132.08 115.548 132.08C115.512 132.08 115.476 132.08 115.439 132.08C115.403 132.08 115.366 132.08 115.33 132.08C115.293 132.08 115.257 132.08 115.22 132.08C115.184 132.08 115.147 132.08 115.111 132.08C115.074 132.08 115.038 132.08 115.001 132.08C114.965 132.08 114.928 132.08 114.892 132.08C114.855 132.08 114.818 132.08 114.782 132.08C114.745 132.08 114.709 132.08 114.672 132.08C114.635 132.08 114.599 132.08 114.562 132.08C114.525 132.08 114.489 132.08 114.452 132.08C114.415 132.08 114.379 132.08 114.342 132.08C114.305 132.08 114.268 132.08 114.232 132.08C114.195 132.08 114.158 132.08 114.121 132.08C114.084 132.08 114.048 132.08 114.011 132.08C113.974 132.08 113.937 132.08 113.9 132.08C113.864 132.08 113.827 132.08 113.79 132.08C113.753 132.08 113.716 132.08 113.679 132.08C113.642 132.08 113.605 132.08 113.568 132.08C113.531 132.08 113.494 132.08 113.457 132.08C113.42 132.08 113.383 132.08 113.346 132.08C113.309 132.08 113.272 132.08 113.235 132.08C113.198 132.08 113.161 132.08 113.124 132.08C113.087 132.08 113.05 132.08 113.013 132.08C112.976 132.08 112.938 132.08 112.901 132.08C112.864 132.08 112.827 132.08 112.79 132.08C112.753 132.08 112.715 132.08 112.678 132.08C112.641 132.08 112.604 132.08 112.566 132.08C112.529 132.08 112.492 132.08 112.455 132.08C112.417 132.08 112.38 132.08 112.343 132.08C112.305 132.08 112.268 132.08 112.231 132.08C112.193 132.08 112.156 132.08 112.118 132.08C112.081 132.08 112.044 132.08 112.006 132.08C111.969 132.08 111.931 132.08 111.894 132.08C111.856 132.08 111.819 132.08 111.781 132.08C111.744 132.08 111.706 132.08 111.669 132.08C111.631 132.08 111.594 132.08 111.556 132.08C111.518 132.08 111.481 132.08 111.443 132.08C111.405 132.08 111.368 132.08 111.33 132.08C111.292 132.08 111.255 132.08 111.217 132.08C111.179 132.08 111.142 132.08 111.104 132.08C111.066 132.08 111.028 132.08 110.991 132.08C110.953 132.08 110.915 132.08 110.877 132.08C110.839 132.08 110.801 132.08 110.763 132.08C110.726 132.08 110.688 132.08 110.65 132.08C110.612 132.08 110.574 132.08 110.536 132.08C110.498 132.08 110.46 132.08 110.422 132.08C110.384 132.08 110.346 132.08 110.308 132.08C110.27 132.08 110.232 132.08 110.194 132.08C110.156 132.08 110.118 132.08 110.079 132.08C110.041 132.08 110.003 132.08 109.965 132.08C109.927 132.08 109.889 132.08 109.85 132.08C109.812 132.08 109.774 132.08 109.736 132.08C109.697 132.08 109.659 132.08 109.621 132.08C109.582 132.08 109.544 132.08 109.506 132.08C109.467 132.08 109.429 132.08 109.391 132.08C109.352 132.08 109.314 132.08 109.275 132.08C109.237 132.08 109.199 132.08 109.16 132.08C109.122 132.08 109.083 132.08 109.044 132.08C109.006 132.08 108.967 132.08 108.929 132.08C108.89 132.08 108.852 132.08 108.813 132.08C108.774 132.08 108.736 132.08 108.697 132.08C108.658 132.08 108.62 132.08 108.581 132.08C108.542 132.08 108.503 132.08 108.465 132.08C108.426 132.08 108.387 132.08 108.348 132.08C108.31 132.08 108.271 132.08 108.232 132.08C108.193 132.08 108.154 132.08 108.115 132.08C108.076 132.08 108.037 132.08 107.998 132.08C107.959 132.08 107.92 132.08 107.881 132.08C107.842 132.08 107.803 132.08 107.764 132.08C107.725 132.08 107.686 132.08 107.647 132.08C107.608 132.08 107.569 132.08 107.53 132.08C107.49 132.08 107.451 132.08 107.412 132.08C107.373 132.08 107.334 132.08 107.294 132.08C107.255 132.08 107.216 132.08 107.176 132.08C107.137 132.08 107.098 132.08 107.058 132.08C107.019 132.08 106.98 132.08 106.94 132.08C106.901 132.08 106.861 132.08 106.822 132.08C106.782 132.08 106.743 132.08 106.703 132.08C106.664 132.08 106.624 132.08 106.585 132.08C106.545 132.08 106.506 132.08 106.466 132.08C106.426 132.08 106.387 132.08 106.347 132.08C106.307 132.08 106.268 132.08 106.228 132.08C106.188 132.08 106.148 132.08 106.109 132.08C106.069 132.08 106.029 132.08 105.989 132.08C105.949 132.08 105.909 132.08 105.869 132.08C105.83 132.08 105.79 132.08 105.75 132.08C105.71 132.08 105.67 132.08 105.63 132.08C105.59 132.08 105.55 132.08 105.51 132.08C105.469 132.08 105.429 132.08 105.389 132.08C105.349 132.08 105.309 132.08 105.269 132.08C105.229 132.08 105.188 132.08 105.148 132.08C105.108 132.08 105.068 132.08 105.027 132.08C104.987 132.08 104.947 132.08 104.906 132.08C104.866 132.08 104.826 132.08 104.785 132.08C104.745 132.08 104.704 132.08 104.664 132.08C104.623 132.08 104.583 132.08 104.542 132.08C104.502 132.08 104.461 132.08 104.421 132.08C104.38 132.08 104.34 132.08 104.299 132.08C104.258 132.08 104.218 132.08 104.177 132.08C104.136 132.08 104.095 132.08 104.055 132.08C104.014 132.08 103.973 132.08 103.932 132.08C103.891 132.08 103.851 132.08 103.81 132.08C103.769 132.08 103.728 132.08 103.687 132.08C103.646 132.08 103.605 132.08 103.564 132.08C103.523 132.08 103.482 132.08 103.441 132.08C103.4 132.08 103.359 132.08 103.318 132.08C103.276 132.08 103.235 132.08 103.194 132.08C103.153 132.08 103.112 132.08 103.07 132.08C103.029 132.08 102.988 132.08 102.947 132.08C102.905 132.08 102.864 132.08 102.822 132.08C102.781 132.08 102.74 132.08 102.698 132.08C102.657 132.08 102.615 132.08 102.574 132.08C102.532 132.08 102.491 132.08 102.449 132.08C102.408 132.08 102.366 132.08 102.324 132.08C102.283 132.08 102.241 132.08 102.199 132.08C102.158 132.08 102.116 132.08 102.074 132.08C102.032 132.08 101.991 132.08 101.949 132.08C101.907 132.08 101.865 132.08 101.823 132.08C101.781 132.08 101.739 132.08 101.697 132.08C101.655 132.08 101.613 132.08 101.571 132.08C101.529 132.08 101.487 132.08 101.445 132.08C101.403 132.08 101.361 132.08 101.319 132.08C101.277 132.08 101.234 132.08 101.192 132.08C101.15 132.08 101.108 132.08 101.065 132.08C101.023 132.08 100.981 132.08 100.938 132.08C100.896 132.08 100.853 132.08 100.811 132.08C100.769 132.08 100.726 132.08 100.684 132.08C100.641 132.08 100.599 132.08 100.556 132.08C100.513 132.08 100.471 132.08 100.428 132.08C100.385 132.08 100.343 132.08 100.3 132.08C100.257 132.08 100.215 132.08 100.172 132.08C100.129 132.08 100.086 132.08 100.043 132.08C100.001 132.08 99.9576 132.08 99.9147 132.08C99.8718 132.08 99.8288 132.08 99.7858 132.08C99.7428 132.08 99.6998 132.08 99.6567 132.08C99.6136 132.08 99.5705 132.08 99.5274 132.08C99.4842 132.08 99.441 132.08 99.3978 132.08C99.3546 132.08 99.3114 132.08 99.2681 132.08C99.2248 132.08 99.1815 132.08 99.1381 132.08C99.0947 132.08 99.0513 132.08 99.0079 132.08C98.9645 132.08 98.921 132.08 98.8775 132.08C98.834 132.08 98.7904 132.08 98.7469 132.08C98.7033 132.08 98.6597 132.08 98.616 132.08C98.5724 132.08 98.5287 132.08 98.4849 132.08C98.4412 132.08 98.3974 132.08 98.3536 132.08C98.3098 132.08 98.266 132.08 98.2221 132.08C98.1782 132.08 98.1343 132.08 98.0904 132.08C98.0464 132.08 98.0024 132.08 97.9584 132.08C97.9143 132.08 97.8703 132.08 97.8262 132.08C97.7821 132.08 97.7379 132.08 97.6937 132.08C97.6495 132.08 97.6053 132.08 97.5611 132.08C97.5168 132.08 97.4725 132.08 97.4282 132.08C97.3838 132.08 97.3395 132.08 97.295 132.08C97.2506 132.08 97.2062 132.08 97.1617 132.08C97.1172 132.08 97.0727 132.08 97.0281 132.08C96.9835 132.08 96.9389 132.08 96.8943 132.08C96.8496 132.08 96.8049 132.08 96.7602 132.08C96.7155 132.08 96.6707 132.08 96.6259 132.08C96.5811 132.08 96.5362 132.08 96.4914 132.08C96.4465 132.08 96.4015 132.08 96.3566 132.08C96.3116 132.08 96.2666 132.08 96.2216 132.08C96.1765 132.08 96.1314 132.08 96.0863 132.08C96.0412 132.08 95.996 132.08 95.9508 132.08C95.9056 132.08 95.8604 132.08 95.8151 132.08C95.7698 132.08 95.7245 132.08 95.6791 132.08C95.6337 132.08 95.5883 132.08 95.5429 132.08C95.4974 132.08 95.4519 132.08 95.4064 132.08C95.3608 132.08 95.3153 132.08 95.2697 132.08C95.224 132.08 95.1784 132.08 95.1327 132.08C95.087 132.08 95.0413 132.08 94.9955 132.08C94.9497 132.08 94.9039 132.08 94.858 132.08C94.8121 132.08 94.7662 132.08 94.7203 132.08C94.6743 132.08 94.6283 132.08 94.5823 132.08C94.5363 132.08 94.4902 132.08 94.4441 132.08V135.08ZM94.4441 141.337H153.671V138.337H94.4441V141.337ZM95.6804 147.595H153.674V144.595H95.6804V147.595ZM97.1622 153.668H155.156V150.668H97.1622V153.668ZM99.3833 158.857H151.207V155.857H99.3833V158.857ZM100.613 163.863H148.735V160.863H100.613V163.863ZM104.316 168.869H145.034V165.869H104.316V168.869ZM109.255 175.126H142.57V172.126H109.255V175.126ZM112.951 181.383H138.863V178.383H112.951V181.383ZM116.653 187.64H133.928V184.64H116.653V187.64Z" fill="url(#paint4_linear_3409_54913)"/>
</g>
<g filter="url(#filter4_f_3409_54913)">
<path d="M48.3807 90.2185C35.5639 102.009 27.5146 119.035 27.5146 137.968C27.5146 156.9 35.5639 173.926 48.3807 185.717V90.2185ZM56.0719 84.1599C66.1063 77.4346 78.1326 73.5195 91.0605 73.5195C126.156 73.5195 154.607 102.374 154.607 137.968C154.607 173.561 126.156 202.416 91.0605 202.416C78.1326 202.416 66.1063 198.5 56.0719 191.775V84.1599Z" stroke="url(#paint5_linear_3409_54913)" stroke-width="2"/>
</g>
<g filter="url(#filter5_f_3409_54913)">
<path d="M48.3807 90.2185C35.5639 102.009 27.5146 119.035 27.5146 137.968C27.5146 156.9 35.5639 173.926 48.3807 185.717V90.2185ZM56.0719 84.1599C66.1063 77.4346 78.1326 73.5195 91.0605 73.5195C126.156 73.5195 154.607 102.374 154.607 137.968C154.607 173.561 126.156 202.416 91.0605 202.416C78.1326 202.416 66.1063 198.5 56.0719 191.775V84.1599Z" stroke="url(#paint6_linear_3409_54913)" stroke-width="10"/>
</g>
<path d="M48.3807 90.2185C35.5639 102.009 27.5146 119.035 27.5146 137.968C27.5146 156.9 35.5639 173.926 48.3807 185.717V90.2185ZM56.0719 84.1599C66.1063 77.4346 78.1326 73.5195 91.0605 73.5195C126.156 73.5195 154.607 102.374 154.607 137.968C154.607 173.561 126.156 202.416 91.0605 202.416C78.1326 202.416 66.1063 198.5 56.0719 191.775V84.1599Z" stroke="url(#paint7_linear_3409_54913)" stroke-opacity="0.75" stroke-width="5"/>
</g>
<defs>
<filter id="filter0_f_3409_54913" x="88.824" y="69.2744" width="135.56" height="137.399" filterUnits="userSpaceOnUse" color-interpolation-filters="sRGB">
<feFlood flood-opacity="0" result="BackgroundImageFix"/>
<feBlend mode="normal" in="SourceGraphic" in2="BackgroundImageFix" result="shape"/>
<feGaussianBlur stdDeviation="1" result="effect1_foregroundBlur_3409_54913"/>
</filter>
<filter id="filter1_f_3409_54913" x="78.324" y="58.7744" width="156.56" height="158.399" filterUnits="userSpaceOnUse" color-interpolation-filters="sRGB">
<feFlood flood-opacity="0" result="BackgroundImageFix"/>
<feBlend mode="normal" in="SourceGraphic" in2="BackgroundImageFix" result="shape"/>
<feGaussianBlur stdDeviation="2.5" result="effect1_foregroundBlur_3409_54913"/>
</filter>
<filter id="filter2_d_3409_54913" x="84.324" y="68.7744" width="144.56" height="146.399" filterUnits="userSpaceOnUse" color-interpolation-filters="sRGB">
<feFlood flood-opacity="0" result="BackgroundImageFix"/>
<feColorMatrix in="SourceAlpha" type="matrix" values="0 0 0 0 0 0 0 0 0 0 0 0 0 0 0 0 0 0 127 0" result="hardAlpha"/>
<feOffset dy="4"/>
<feGaussianBlur stdDeviation="2"/>
<feComposite in2="hardAlpha" operator="out"/>
<feColorMatrix type="matrix" values="0 0 0 0 0 0 0 0 0 0 0 0 0 0 0 0 0 0 0.25 0"/>
<feBlend mode="normal" in2="BackgroundImageFix" result="effect1_dropShadow_3409_54913"/>
<feBlend mode="normal" in="SourceGraphic" in2="effect1_dropShadow_3409_54913" result="shape"/>
</filter>
<filter id="filter3_d_3409_54913" x="88.9441" y="87.0293" width="71.7117" height="108.61" filterUnits="userSpaceOnUse" color-interpolation-filters="sRGB">
<feFlood flood-opacity="0" result="BackgroundImageFix"/>
<feColorMatrix in="SourceAlpha" type="matrix" values="0 0 0 0 0 0 0 0 0 0 0 0 0 0 0 0 0 0 127 0" result="hardAlpha"/>
<feOffset dy="4"/>
<feGaussianBlur stdDeviation="2"/>
<feComposite in2="hardAlpha" operator="out"/>
<feColorMatrix type="matrix" values="0 0 0 0 0 0 0 0 0 0 0 0 0 0 0 0 0 0 0.25 0"/>
<feBlend mode="normal" in2="BackgroundImageFix" result="effect1_dropShadow_3409_54913"/>
<feBlend mode="normal" in="SourceGraphic" in2="effect1_dropShadow_3409_54913" result="shape"/>
</filter>
<filter id="filter4_f_3409_54913" x="24.5146" y="70.5195" width="133.092" height="134.896" filterUnits="userSpaceOnUse" color-interpolation-filters="sRGB">
<feFlood flood-opacity="0" result="BackgroundImageFix"/>
<feBlend mode="normal" in="SourceGraphic" in2="BackgroundImageFix" result="shape"/>
<feGaussianBlur stdDeviation="1" result="effect1_foregroundBlur_3409_54913"/>
</filter>
<filter id="filter5_f_3409_54913" x="18.5146" y="64.5195" width="145.092" height="146.896" filterUnits="userSpaceOnUse" color-interpolation-filters="sRGB">
<feFlood flood-opacity="0" result="BackgroundImageFix"/>
<feBlend mode="normal" in="SourceGraphic" in2="BackgroundImageFix" result="shape"/>
<feGaussianBlur stdDeviation="2" result="effect1_foregroundBlur_3409_54913"/>
</filter>
<linearGradient id="paint0_linear_3409_54913" x1="222.618" y1="137.298" x2="105.972" y2="137.323" gradientUnits="userSpaceOnUse">
<stop offset="0.563344" stop-color="#3984E4"/>
<stop offset="1" stop-color="#040404" stop-opacity="0"/>
</linearGradient>
<linearGradient id="paint1_linear_3409_54913" x1="210.767" y1="137.312" x2="105.007" y2="137.312" gradientUnits="userSpaceOnUse">
<stop stop-color="#0094FF"/>
<stop offset="0.458333" stop-color="#0094FF" stop-opacity="0.749722"/>
<stop offset="1" stop-color="#040404" stop-opacity="0"/>
</linearGradient>
<linearGradient id="paint2_linear_3409_54913" x1="210.767" y1="137.312" x2="105.007" y2="137.312" gradientUnits="userSpaceOnUse">
<stop stop-color="#0094FF"/>
<stop offset="0.0001" stop-color="#0094FF"/>
<stop offset="0.458333" stop-color="#0094FF" stop-opacity="0.749722"/>
<stop offset="1" stop-color="#040404" stop-opacity="0"/>
</linearGradient>
<linearGradient id="paint3_linear_3409_54913" x1="210.767" y1="137.312" x2="105.007" y2="137.312" gradientUnits="userSpaceOnUse">
<stop stop-color="white"/>
<stop offset="0.458333" stop-color="white" stop-opacity="0.749722"/>
<stop offset="1" stop-color="#040404" stop-opacity="0"/>
</linearGradient>
<linearGradient id="paint4_linear_3409_54913" x1="95.2045" y1="136.244" x2="156.14" y2="136.244" gradientUnits="userSpaceOnUse">
<stop stop-color="#FF5EBA"/>
<stop offset="0.489583" stop-color="#6831D6" stop-opacity="0.87"/>
<stop offset="1" stop-color="#0094FF"/>
</linearGradient>
<linearGradient id="paint5_linear_3409_54913" x1="154.607" y1="137.317" x2="51.5754" y2="138.558" gradientUnits="userSpaceOnUse">
<stop offset="0.380208" stop-color="#FB37FF"/>
<stop offset="0.734375" stop-color="#7158B6"/>
<stop offset="1" stop-color="#040404" stop-opacity="0"/>
</linearGradient>
<linearGradient id="paint6_linear_3409_54913" x1="154.607" y1="137.317" x2="51.5754" y2="138.558" gradientUnits="userSpaceOnUse">
<stop offset="0.380208" stop-color="#FB37FF"/>
<stop offset="0.619792" stop-color="#6831D6"/>
<stop offset="0.908382" stop-color="#040404" stop-opacity="0"/>
</linearGradient>
<linearGradient id="paint7_linear_3409_54913" x1="154.607" y1="137.317" x2="51.5754" y2="138.558" gradientUnits="userSpaceOnUse">
<stop offset="0.380208" stop-color="white"/>
<stop offset="0.619792" stop-color="white"/>
<stop offset="0.903365" stop-color="#040404" stop-opacity="0"/>
</linearGradient>
<clipPath id="clip0_3409_54913">
<rect width="205.603" height="173.621" fill="white" transform="translate(27.8706 50.8916)"/>
</clipPath>
</defs>
</svg>
