<svg width="20" height="20" fill="none" xmlns="http://www.w3.org/2000/svg"><circle cx="10" cy="10" r="10" fill="#1969FF"/><path d="M9.56 4.105a.946.946 0 0 1 .869 0l2.514 1.434c.149.085.23.21.245.34h.002v7.207c-.003.142-.086.283-.247.375l-2.514 1.434a.946.946 0 0 1-.868 0L7.046 13.46a.446.446 0 0 1-.241-.411V5.88c.012-.132.09-.255.241-.341l2.515-1.434ZM12.795 9.9 10.43 11.25a.946.946 0 0 1-.868 0L7.2 9.903v3.169l2.36 1.338c.14.08.284.16.426.163h.008c.14 0 .278-.077.416-.15l2.383-1.363V9.9Zm-6.398 3.03c0 .275.03.457.089.585a.724.724 0 0 0 .256.285l.008.006c.029.021.061.044.1.07l.047.03.143.094-.205.365-.16-.104-.026-.018a3.38 3.38 0 0 1-.12-.083c-.383-.278-.525-.581-.528-1.212v-.019h.396Zm3.4-4.961a.346.346 0 0 0-.05.023L7.23 9.426a.266.266 0 0 0-.007.004l-.002.002.003.002.006.003 2.515 1.434a.34.34 0 0 0 .05.024V7.969Zm.397 0v2.926a.343.343 0 0 0 .05-.024l2.515-1.434a.192.192 0 0 0 .008-.004l.002-.001-.004-.003-.006-.003-2.514-1.434a.35.35 0 0 0-.051-.023Zm2.601-1.578L10.54 7.677l2.255 1.286V6.391Zm-5.593.003V8.96l2.25-1.283L7.2 6.394Zm3.043-1.91a.583.583 0 0 0-.498 0L7.23 5.916a.266.266 0 0 0-.007.004l-.002.002.003.002.006.003 2.515 1.434c.13.075.367.075.498 0l2.514-1.434a.238.238 0 0 0 .008-.004l.002-.001-.004-.003-.006-.003-2.514-1.434Zm2.922.156.16.105.026.017c.047.031.085.058.12.084.383.278.525.58.528 1.211v.02h-.396c0-.277-.03-.458-.088-.586a.724.724 0 0 0-.257-.285l-.008-.006a2.995 2.995 0 0 0-.1-.07l-.047-.031-.143-.093.205-.366Z" fill="#fff"/></svg>
