<svg width="67" height="67" viewBox="0 0 67 67" fill="none" xmlns="http://www.w3.org/2000/svg">
    <rect x="2.5" y="2.5" width="62" height="62" rx="31" fill="#1E1E1E"/>
    <rect x="2.5" y="2.5" width="62" height="62" rx="31" fill="#0094FF" fill-opacity="0.5"/>
    <rect x="2.5" y="2.5" width="62" height="62" rx="31"/>
    <path d="M31.7923 18.2874C32.4699 17.9042 33.501 17.9042 34.1787 18.2874L41.0934 22.1973C41.5015 22.428 41.7257 22.7719 41.7658 23.1269H41.7724V42.7799C41.7634 43.1672 41.5372 43.5518 41.0934 43.8027L34.1787 47.7126C33.501 48.0958 32.4699 48.0958 31.7923 47.7126L24.8776 43.8027C24.4356 43.5529 24.2236 43.1655 24.2131 42.7799C24.212 42.7404 24.2119 42.7078 24.213 42.6809L24.2131 23.2592C24.212 23.2319 24.212 23.2047 24.213 23.1776L24.2131 23.1269H24.2162C24.2469 22.768 24.4608 22.4329 24.8776 22.1973L31.7923 18.2874ZM40.684 34.0912L34.1787 37.7696C33.501 38.1528 32.4699 38.1528 31.7923 37.7696L25.3014 34.0994V42.7413L31.7923 46.392C32.1759 46.6114 32.5747 46.8252 32.9631 46.8345L32.9855 46.8348C33.3731 46.8362 33.7494 46.6255 34.131 46.426L40.684 42.7098V34.0912ZM23.0884 42.3527C23.0884 43.1056 23.1701 43.6006 23.3324 43.9492C23.467 44.2382 23.6688 44.4591 24.0374 44.7278L24.0584 44.7431C24.1393 44.8015 24.2284 44.8626 24.3369 44.9345L24.4648 45.0183L24.8575 45.2721L24.2942 46.2691L23.8546 45.9849L23.7807 45.9363C23.6536 45.8523 23.5483 45.7802 23.45 45.7092C22.3996 44.9511 22.0078 44.1245 22.0001 42.405L22 42.3527H23.0884ZM32.4413 28.8236C32.3909 28.8421 32.3437 28.8635 32.3006 28.8879L25.3859 32.7978C25.3786 32.8019 25.3717 32.8059 25.3651 32.8099L25.3592 32.8135L25.3701 32.8202L25.3859 32.8294L32.3006 36.7393C32.3437 36.7636 32.3909 36.7851 32.4413 36.8035V28.8236ZM33.5297 28.8236V36.8035C33.5801 36.7851 33.6273 36.7636 33.6704 36.7393L40.5851 32.8294C40.5924 32.8253 40.5993 32.8212 40.6059 32.8172L40.6117 32.8135L40.6009 32.8069L40.5851 32.7978L33.6704 28.8879C33.6273 28.8635 33.5801 28.8421 33.5297 28.8236ZM40.684 24.521L34.481 28.0285L40.684 31.5359V24.521ZM25.3014 24.5292V31.5277L31.49 28.0285L25.3014 24.5292ZM33.6704 19.3177C33.3108 19.1144 32.6602 19.1144 32.3006 19.3177L25.3859 23.2276C25.3786 23.2317 25.3717 23.2357 25.3651 23.2398L25.3592 23.2434L25.3701 23.25L25.3859 23.2592L32.3006 27.1691C32.6602 27.3724 33.3108 27.3724 33.6704 27.1691L40.5851 23.2592C40.5924 23.2551 40.5993 23.251 40.6059 23.247L40.6117 23.2434L40.6009 23.2367L40.5851 23.2276L33.6704 19.3177ZM41.7058 19.7465L42.1454 20.0307L42.2193 20.0792C42.3464 20.1632 42.4517 20.2354 42.55 20.3063C43.6004 21.0645 43.9922 21.891 43.9999 23.6105L44 23.6629H42.9116C42.9116 22.9099 42.8299 22.415 42.6675 22.0663C42.533 21.7773 42.3312 21.5565 41.9626 21.2877L41.9416 21.2725C41.8607 21.2141 41.7716 21.1529 41.6631 21.0811L41.5352 20.9972L41.1425 20.7434L41.7058 19.7465Z"
          fill="white"/>
</svg>
