<svg width="67" height="67" viewBox="0 0 67 67" fill="none" xmlns="http://www.w3.org/2000/svg">
<path d="M33.5 64.5C50.6208 64.5 64.5 50.6208 64.5 33.5C64.5 16.3792 50.6208 2.5 33.5 2.5C16.3792 2.5 2.5 16.3792 2.5 33.5C2.5 50.6208 16.3792 64.5 33.5 64.5Z" fill="#FF0420" stroke="#121212" stroke-width="5"/>
<path d="M25.1932 41.0751C23.4962 41.0751 22.1058 40.6758 21.022 39.8772C19.9525 39.0644 19.4177 37.9093 19.4177 36.4119C19.4177 36.0982 19.4534 35.7131 19.5246 35.2568C19.7101 34.2301 19.9739 32.9965 20.3161 31.5562C21.2858 27.6346 23.7886 25.6738 27.8243 25.6738C28.9223 25.6738 29.9063 25.8592 30.7762 26.2299C31.6461 26.5864 32.3306 27.1284 32.8297 27.8557C33.3288 28.5686 33.5784 29.4243 33.5784 30.4225C33.5784 30.722 33.5427 31.0999 33.4714 31.5562C33.2575 32.8254 33.0008 34.059 32.7013 35.2568C32.2022 37.2105 31.3395 38.6722 30.1131 39.6419C28.8866 40.5973 27.2468 41.0751 25.1932 41.0751ZM25.4926 37.9948C26.2913 37.9948 26.9686 37.7595 27.5248 37.2889C28.0953 36.8184 28.5017 36.0982 28.744 35.1285C29.072 33.788 29.3217 32.6186 29.4928 31.6204C29.5498 31.3209 29.5783 31.0144 29.5783 30.7005C29.5783 29.4029 28.9009 28.754 27.5462 28.754C26.7476 28.754 26.0631 28.9893 25.4926 29.4599C24.9365 29.9306 24.5372 30.6507 24.2948 31.6204C24.0381 32.5758 23.7814 33.7453 23.5248 35.1285C23.4677 35.4136 23.4392 35.7131 23.4392 36.0269C23.4392 37.3389 24.1237 37.9948 25.4926 37.9948Z" fill="white"/>
<path d="M34.5605 40.8603C34.4037 40.8603 34.2824 40.8103 34.1969 40.7105C34.1255 40.5964 34.1042 40.4681 34.1327 40.3255L37.0846 26.4215C37.1131 26.2646 37.1916 26.1363 37.3199 26.0364C37.4483 25.9366 37.5837 25.8867 37.7263 25.8867H43.4163C44.9992 25.8867 46.2683 26.2147 47.2238 26.8707C48.1936 27.5267 48.6784 28.475 48.6784 29.7156C48.6784 30.0721 48.6357 30.443 48.5501 30.8279C48.1936 32.4679 47.4734 33.6801 46.3896 34.4644C45.3201 35.2487 43.8512 35.6409 41.9831 35.6409H39.0954L38.1114 40.3255C38.0828 40.4824 38.0044 40.6106 37.8761 40.7105C37.7478 40.8103 37.6122 40.8603 37.4697 40.8603H34.5605ZM42.1329 32.689C42.7317 32.689 43.2523 32.5249 43.6943 32.197C44.1507 31.869 44.4502 31.3984 44.5928 30.7852C44.6355 30.5427 44.657 30.3288 44.657 30.1435C44.657 29.7299 44.5358 29.4162 44.2933 29.2023C44.0508 28.9741 43.6373 28.8601 43.0526 28.8601H40.4857L39.6729 32.689H42.1329Z" fill="white"/>
</svg>
