<svg width="67" height="67" viewBox="0 0 67 67" fill="none" xmlns="http://www.w3.org/2000/svg">
    <rect x="2.5" y="2.5" width="62" height="62" rx="31" fill="#1E1E1E"/>
    <rect x="2.5" y="2.5" width="62" height="62" rx="31" fill="#0094FF" fill-opacity="0.5"/>
    <rect x="2.5" y="2.5" width="62" height="62" rx="31" fill="black"/>
    <rect x="2.5" y="2.5" width="62" height="62" rx="31" />
    <path d="M46.861 40.1339L42.4038 44.6868C42.3069 44.7857 42.1897 44.8645 42.0594 44.9184C41.9291 44.9723 41.7886 45.0001 41.6466 45H20.5174C20.4166 45 20.318 44.9719 20.2337 44.9193C20.1494 44.8666 20.0831 44.7917 20.0429 44.7036C20.0027 44.6155 19.9904 44.5182 20.0075 44.4236C20.0246 44.3289 20.0703 44.2411 20.1391 44.1709L24.5997 39.618C24.6963 39.5194 24.8131 39.4407 24.943 39.3868C25.0728 39.3329 25.2129 39.305 25.3546 39.3048H46.4826C46.5834 39.3048 46.682 39.3328 46.7664 39.3855C46.8506 39.4381 46.9169 39.5131 46.9572 39.6012C46.9973 39.6892 47.0096 39.7866 46.9925 39.8812C46.9754 39.9758 46.9297 40.0637 46.861 40.1339ZM42.4038 30.9656C42.3069 30.8667 42.1897 30.7879 42.0594 30.734C41.9291 30.6801 41.7886 30.6523 41.6466 30.6524H20.5174C20.4166 30.6524 20.318 30.6804 20.2337 30.7331C20.1494 30.7858 20.0831 30.8607 20.0429 30.9488C20.0027 31.0369 19.9904 31.1342 20.0075 31.2288C20.0246 31.3234 20.0703 31.4113 20.1391 31.4815L24.5997 36.0344C24.6963 36.133 24.8131 36.2117 24.943 36.2656C25.0728 36.3195 25.2129 36.3474 25.3546 36.3476H46.4826C46.5834 36.3476 46.682 36.3196 46.7664 36.2669C46.8506 36.2142 46.9169 36.1393 46.9572 36.0512C46.9973 35.9631 47.0096 35.8658 46.9925 35.7712C46.9754 35.6766 46.9297 35.5887 46.861 35.5185L42.4038 30.9656ZM20.5174 27.6952H41.6466C41.7886 27.6953 41.9291 27.6675 42.0594 27.6136C42.1897 27.5598 42.3069 27.4809 42.4038 27.382L46.861 22.8291C46.9297 22.7589 46.9754 22.6711 46.9925 22.5764C47.0096 22.4818 46.9973 22.3845 46.9572 22.2964C46.9169 22.2083 46.8506 22.1334 46.7664 22.0807C46.682 22.0281 46.5834 22 46.4826 22H25.3546C25.2129 22.0002 25.0728 22.0281 24.943 22.082C24.8131 22.1359 24.6963 22.2146 24.5997 22.3132L20.1403 26.8661C20.0716 26.9363 20.0258 27.024 20.0087 27.1185C19.9916 27.2131 20.0038 27.3103 20.0438 27.3983C20.0838 27.4864 20.15 27.5613 20.2341 27.6141C20.3183 27.6668 20.4167 27.695 20.5174 27.6952Z" fill="url(#paint0_linear_156_1177)"/>
    <defs>
        <linearGradient id="paint0_linear_156_1177" x1="22.2791" y1="45.5482" x2="43.2366" y2="20.7438" gradientUnits="userSpaceOnUse">
            <stop offset="0.08" stop-color="#9945FF"/>
            <stop offset="0.3" stop-color="#8752F3"/>
            <stop offset="0.5" stop-color="#5497D5"/>
            <stop offset="0.6" stop-color="#43B4CA"/>
            <stop offset="0.72" stop-color="#28E0B9"/>
            <stop offset="0.97" stop-color="#19FB9B"/>
        </linearGradient>
    </defs>
</svg>
