<svg width="24" height="24" viewBox="0 0 24 24" fill="none" xmlns="http://www.w3.org/2000/svg">
<rect width="24" height="24" rx="8" fill="url(#paint0_linear_2382_43111)"/>
<path fill-rule="evenodd" clip-rule="evenodd" d="M11.1211 17.3046L12.3494 18L13.5807 17.3046V15.9535L12.3494 16.6488L11.1211 15.9535V17.3046ZM11.1211 14.991L12.3494 15.6836L13.5807 14.991V12.7125L14.4224 12.2306L15.6313 11.5515L15.6313 10.1196L15.6313 10.1196H15.6312L14.3088 9.39632L12.3494 10.4773L10.3947 9.39632L9.07539 10.1196H9.07536L9.07535 10.1196L9.07536 11.5515L10.2815 12.2307L11.1211 12.7125V14.991ZM10.3799 8.48101L12.3494 7.38082L14.3237 8.48101L15.5464 7.77631L12.3494 6L9.16 7.77631L10.3799 8.48101ZM8.26004 14.3341V12.0269L7 11.3153L7 14.9719L10.2761 16.8362V15.4633L8.26004 14.3341ZM9.56454 8.91575L8.34897 8.23671L7.02963 8.95347L7.02964 10.4001L8.27486 11.0994V9.68122L9.56454 8.91575ZM9.07536 12.4963V13.8468L10.2909 14.5334V13.1753L9.07536 12.4963ZM16.4485 14.3341V12.0269L17.7116 11.3153V14.9719L14.4276 16.8362V15.4633L16.4485 14.3341ZM15.1409 8.91575L16.3594 8.23671L17.6819 8.95347L17.6819 10.4001L16.4337 11.0994V9.68122L15.1409 8.91575ZM15.6313 12.4963V13.8468L14.4128 14.5334V13.1753L15.6313 12.4963Z" fill="white"/>
<path fill-rule="evenodd" clip-rule="evenodd" d="M11.9822 8.12407L10.8566 8.75622L11.9822 9.38839V9.39015L11.9838 9.38927L11.9854 9.39015V9.38839L13.111 8.75622L11.9854 8.12407V8.1223L11.9838 8.12318L11.9822 8.1223V8.12407Z" fill="white"/>
<defs>
<linearGradient id="paint0_linear_2382_43111" x1="12" y1="-5.6" x2="12" y2="28.4" gradientUnits="userSpaceOnUse">
<stop stop-color="#FFC700"/>
<stop offset="1" stop-color="#FF8A00"/>
</linearGradient>
</defs>
</svg>
