<svg width="297" height="297" viewBox="0 0 297 297" fill="none" xmlns="http://www.w3.org/2000/svg">
<path d="M8 148.5C8 226.096 70.904 289 148.5 289C226.096 289 289 226.096 289 148.5C289 70.904 226.096 8 148.5 8C70.904 8 8 70.904 8 148.5Z" fill="white" stroke="#121212" stroke-width="16"/>
<g clip-path="url(#clip0_3428_54910)">
<mask id="mask0_3428_54910" style="mask-type:alpha" maskUnits="userSpaceOnUse" x="180" y="113" width="9" height="7">
<path d="M180.579 113.632H188.018V119.211H180.579V113.632Z" fill="black"/>
</mask>
<g mask="url(#mask0_3428_54910)">
<mask id="mask1_3428_54910" style="mask-type:alpha" maskUnits="userSpaceOnUse" x="182" y="114" width="5" height="5">
<path d="M183.013 117.766C182.591 117.359 182.373 116.821 182.373 116.306C182.373 115.775 182.591 115.259 183.013 114.845C183.87 114.046 185.25 114.046 186.107 114.845C186.55 115.259 186.768 115.775 186.768 116.306C186.768 116.821 186.55 117.359 186.107 117.766C185.686 118.158 185.119 118.361 184.574 118.361C184 118.361 183.427 118.158 183.013 117.766Z" fill="black"/>
</mask>
<g mask="url(#mask1_3428_54910)">
<path d="M173.075 127.66H196.066V104.944H173.075V127.66Z" fill="black"/>
</g>
</g>
<mask id="mask2_3428_54910" style="mask-type:alpha" maskUnits="userSpaceOnUse" x="176" y="119" width="7" height="6">
<path d="M176.86 119.211H182.439V124.79H176.86V119.211Z" fill="black"/>
</mask>
<g mask="url(#mask2_3428_54910)">
<mask id="mask3_3428_54910" style="mask-type:alpha" maskUnits="userSpaceOnUse" x="176" y="120" width="6" height="5">
<path d="M177.484 123.526C177.092 123.119 176.889 122.581 176.889 122.065C176.889 121.535 177.092 121.019 177.484 120.613C178.283 119.806 179.606 119.806 180.405 120.613C180.797 121.019 181 121.535 181 122.065C181 122.581 180.797 123.119 180.405 123.526C179.991 123.918 179.482 124.121 178.944 124.121C178.407 124.121 177.898 123.918 177.484 123.526Z" fill="black"/>
</mask>
<g mask="url(#mask3_3428_54910)">
<path d="M167.59 133.419H190.298V110.711H167.59V133.419Z" fill="black"/>
</g>
</g>
<mask id="mask4_3428_54910" style="mask-type:alpha" maskUnits="userSpaceOnUse" x="169" y="124" width="6" height="7">
<path d="M169.421 124.789H175V130.368H169.421V124.789Z" fill="black"/>
</mask>
<g mask="url(#mask4_3428_54910)">
<mask id="mask5_3428_54910" style="mask-type:alpha" maskUnits="userSpaceOnUse" x="170" y="125" width="5" height="5">
<path d="M171.448 129.271C171.056 128.879 170.852 128.349 170.852 127.833C170.852 127.295 171.056 126.765 171.448 126.373C172.247 125.574 173.569 125.574 174.368 126.373C174.76 126.765 174.964 127.295 174.964 127.833C174.964 128.349 174.76 128.879 174.368 129.271C173.954 129.685 173.438 129.889 172.908 129.889C172.371 129.889 171.855 129.685 171.448 129.271Z" fill="black"/>
</mask>
<g mask="url(#mask5_3428_54910)">
<path d="M161.554 139.187H184.262V116.472H161.554V139.187Z" fill="black"/>
</g>
</g>
<mask id="mask6_3428_54910" style="mask-type:alpha" maskUnits="userSpaceOnUse" x="163" y="130" width="9" height="6">
<path d="M163.842 130.368H171.281V135.947H163.842V130.368Z" fill="black"/>
</mask>
<g mask="url(#mask6_3428_54910)">
<mask id="mask7_3428_54910" style="mask-type:alpha" maskUnits="userSpaceOnUse" x="165" y="131" width="5" height="5">
<path d="M165.724 135.054C165.31 134.662 165.084 134.124 165.084 133.586C165.084 133.071 165.31 132.533 165.724 132.141C166.581 131.335 167.983 131.335 168.84 132.141C169.254 132.533 169.479 133.071 169.479 133.586C169.479 134.124 169.254 134.662 168.84 135.054C168.404 135.468 167.852 135.65 167.278 135.65C166.733 135.65 166.16 135.468 165.724 135.054Z" fill="black"/>
</mask>
<g mask="url(#mask7_3428_54910)">
<path d="M155.786 144.948H178.777V122.232H155.786V144.948Z" fill="black"/>
</g>
</g>
<mask id="mask8_3428_54910" style="mask-type:alpha" maskUnits="userSpaceOnUse" x="158" y="135" width="6" height="7">
<path d="M158.263 135.947H163.842V141.526H158.263V135.947Z" fill="black"/>
</mask>
<g mask="url(#mask8_3428_54910)">
<mask id="mask9_3428_54910" style="mask-type:alpha" maskUnits="userSpaceOnUse" x="159" y="137" width="5" height="5">
<path d="M160.21 140.814C159.803 140.422 159.6 139.892 159.6 139.354C159.6 138.839 159.803 138.308 160.21 137.916C160.995 137.088 162.317 137.088 163.116 137.916C163.53 138.308 163.711 138.839 163.711 139.354C163.711 139.892 163.53 140.422 163.116 140.814C162.723 141.229 162.186 141.417 161.656 141.417C161.14 141.417 160.61 141.229 160.21 140.814Z" fill="black"/>
</mask>
<g mask="url(#mask9_3428_54910)">
<path d="M150.302 150.715H173.01V128H150.302V150.715Z" fill="black"/>
</g>
</g>
<mask id="mask10_3428_54910" style="mask-type:alpha" maskUnits="userSpaceOnUse" x="152" y="141" width="7" height="8">
<path d="M152.684 141.526H158.263V148.965H152.684V141.526Z" fill="black"/>
</mask>
<g mask="url(#mask10_3428_54910)">
<mask id="mask11_3428_54910" style="mask-type:alpha" maskUnits="userSpaceOnUse" x="153" y="143" width="5" height="5">
<path d="M153.556 145.122C153.556 144.606 153.767 144.069 154.174 143.662C154.98 142.863 156.273 142.863 157.079 143.662C157.493 144.069 157.675 144.606 157.675 145.122C157.675 145.652 157.493 146.168 157.079 146.582C156.687 146.967 156.157 147.178 155.619 147.178C155.103 147.178 154.566 146.967 154.174 146.582C153.767 146.168 153.556 145.652 153.556 145.122Z" fill="black"/>
</mask>
<g mask="url(#mask11_3428_54910)">
<path d="M144.258 156.476H166.973V133.761H144.258V156.476Z" fill="black"/>
</g>
</g>
<mask id="mask12_3428_54910" style="mask-type:alpha" maskUnits="userSpaceOnUse" x="141" y="152" width="7" height="9">
<path d="M141.526 152.685H147.105V160.123H141.526V152.685Z" fill="black"/>
</mask>
<g mask="url(#mask12_3428_54910)">
<mask id="mask13_3428_54910" style="mask-type:alpha" maskUnits="userSpaceOnUse" x="142" y="154" width="5" height="5">
<path d="M142.907 157.813C142.514 157.421 142.304 156.891 142.304 156.375C142.304 155.837 142.514 155.322 142.907 154.915C143.706 154.116 145.021 154.116 145.805 154.915C146.219 155.322 146.423 155.837 146.423 156.375C146.423 156.891 146.219 157.421 145.805 157.813C145.413 158.227 144.883 158.431 144.367 158.431C143.829 158.431 143.313 158.227 142.907 157.813Z" fill="black"/>
</mask>
<g mask="url(#mask13_3428_54910)">
<path d="M133.005 167.729H155.721V145.014H133.005V167.729Z" fill="black"/>
</g>
</g>
<mask id="mask14_3428_54910" style="mask-type:alpha" maskUnits="userSpaceOnUse" x="135" y="158" width="7" height="8">
<path d="M135.948 158.264H141.526V165.702H135.948V158.264Z" fill="black"/>
</mask>
<g mask="url(#mask14_3428_54910)">
<mask id="mask15_3428_54910" style="mask-type:alpha" maskUnits="userSpaceOnUse" x="136" y="160" width="5" height="5">
<path d="M136.906 163.574C136.492 163.189 136.267 162.651 136.267 162.136C136.267 161.605 136.492 161.09 136.906 160.675C137.764 159.876 139.166 159.876 140.023 160.675C140.437 161.09 140.662 161.605 140.662 162.136C140.662 162.651 140.437 163.189 140.023 163.574C139.587 163.988 139.013 164.191 138.468 164.191C137.894 164.191 137.349 163.988 136.906 163.574Z" fill="black"/>
</mask>
<g mask="url(#mask15_3428_54910)">
<path d="M126.969 173.489H149.96V150.781H126.969V173.489Z" fill="black"/>
</g>
</g>
<mask id="mask16_3428_54910" style="mask-type:alpha" maskUnits="userSpaceOnUse" x="130" y="165" width="6" height="7">
<path d="M130.368 165.702H135.947V171.281H130.368V165.702Z" fill="black"/>
</mask>
<g mask="url(#mask16_3428_54910)">
<mask id="mask17_3428_54910" style="mask-type:alpha" maskUnits="userSpaceOnUse" x="130" y="165" width="5" height="5">
<path d="M131.378 169.356C130.986 168.963 130.782 168.426 130.782 167.91C130.782 167.372 130.986 166.835 131.378 166.443C132.177 165.636 133.499 165.636 134.298 166.443C134.691 166.835 134.894 167.372 134.894 167.91C134.894 168.426 134.691 168.963 134.298 169.356C133.892 169.77 133.376 169.959 132.838 169.959C132.301 169.959 131.792 169.77 131.378 169.356Z" fill="black"/>
</mask>
<g mask="url(#mask17_3428_54910)">
<path d="M121.484 179.256H144.192V156.541H121.484V179.256Z" fill="black"/>
</g>
</g>
<mask id="mask18_3428_54910" style="mask-type:alpha" maskUnits="userSpaceOnUse" x="124" y="171" width="7" height="6">
<path d="M124.79 171.281H130.368V176.86H124.79V171.281Z" fill="black"/>
</mask>
<g mask="url(#mask18_3428_54910)">
<mask id="mask19_3428_54910" style="mask-type:alpha" maskUnits="userSpaceOnUse" x="125" y="171" width="5" height="5">
<path d="M125.632 175.124C125.225 174.731 125.015 174.194 125.015 173.656C125.015 173.141 125.225 172.603 125.632 172.189C126.438 171.404 127.731 171.404 128.538 172.189C128.93 172.603 129.133 173.141 129.133 173.656C129.133 174.194 128.93 174.731 128.538 175.124C128.124 175.531 127.608 175.719 127.07 175.719C126.562 175.719 126.024 175.531 125.632 175.124Z" fill="black"/>
</mask>
<g mask="url(#mask19_3428_54910)">
<path d="M115.716 185.018H138.432V162.303H115.716V185.018Z" fill="black"/>
</g>
</g>
<mask id="mask20_3428_54910" style="mask-type:alpha" maskUnits="userSpaceOnUse" x="117" y="176" width="8" height="7">
<path d="M117.351 176.859H124.789V182.438H117.351V176.859Z" fill="black"/>
</mask>
<g mask="url(#mask20_3428_54910)">
<mask id="mask21_3428_54910" style="mask-type:alpha" maskUnits="userSpaceOnUse" x="118" y="177" width="6" height="5">
<path d="M119.639 180.884C119.196 180.492 118.978 179.954 118.978 179.417C118.978 178.901 119.196 178.371 119.639 177.957C120.496 177.172 121.876 177.172 122.734 177.957C123.177 178.371 123.373 178.901 123.373 179.417C123.373 179.954 123.177 180.492 122.734 180.884C122.312 181.276 121.746 181.48 121.172 181.48C120.627 181.48 120.053 181.276 119.639 180.884Z" fill="black"/>
</mask>
<g mask="url(#mask21_3428_54910)">
<path d="M109.68 190.778H132.671V168.07H109.68V190.778Z" fill="black"/>
</g>
</g>
<mask id="mask22_3428_54910" style="mask-type:alpha" maskUnits="userSpaceOnUse" x="111" y="182" width="9" height="7">
<path d="M111.772 182.438H119.211V188.017H111.772V182.438Z" fill="black"/>
</mask>
<g mask="url(#mask22_3428_54910)">
<mask id="mask23_3428_54910" style="mask-type:alpha" maskUnits="userSpaceOnUse" x="113" y="183" width="5" height="5">
<path d="M114.089 186.651C113.675 186.237 113.494 185.722 113.494 185.191C113.494 184.654 113.675 184.145 114.089 183.731C114.888 182.932 116.189 182.932 116.988 183.731C117.402 184.145 117.605 184.654 117.605 185.191C117.605 185.722 117.402 186.237 116.988 186.651C116.603 187.036 116.065 187.247 115.549 187.247C115.012 187.247 114.482 187.036 114.089 186.651Z" fill="black"/>
</mask>
<g mask="url(#mask23_3428_54910)">
<path d="M104.195 196.545H126.903V173.83H104.195V196.545Z" fill="black"/>
</g>
</g>
<mask id="mask24_3428_54910" style="mask-type:alpha" maskUnits="userSpaceOnUse" x="111" y="113" width="9" height="7">
<path d="M111.772 113.632H119.211V119.211H111.772V113.632Z" fill="black"/>
</mask>
<g mask="url(#mask24_3428_54910)">
<mask id="mask25_3428_54910" style="mask-type:alpha" maskUnits="userSpaceOnUse" x="113" y="114" width="5" height="5">
<path d="M117.01 117.766C117.402 117.359 117.605 116.821 117.605 116.306C117.605 115.775 117.402 115.259 117.01 114.845C116.21 114.046 114.91 114.046 114.111 114.845C113.697 115.259 113.494 115.775 113.494 116.306C113.494 116.821 113.697 117.359 114.111 117.766C114.503 118.158 115.034 118.361 115.549 118.361C116.087 118.361 116.617 118.158 117.01 117.766Z" fill="black"/>
</mask>
<g mask="url(#mask25_3428_54910)">
<path d="M104.195 127.66H126.903V104.944H104.195V127.66Z" fill="black"/>
</g>
</g>
<mask id="mask26_3428_54910" style="mask-type:alpha" maskUnits="userSpaceOnUse" x="117" y="119" width="8" height="6">
<path d="M117.351 119.211H124.789V124.79H117.351V119.211Z" fill="black"/>
</mask>
<g mask="url(#mask26_3428_54910)">
<mask id="mask27_3428_54910" style="mask-type:alpha" maskUnits="userSpaceOnUse" x="118" y="120" width="6" height="5">
<path d="M122.734 123.526C123.155 123.119 123.373 122.581 123.373 122.065C123.373 121.535 123.155 121.019 122.734 120.613C121.876 119.806 120.474 119.806 119.617 120.613C119.196 121.019 118.978 121.535 118.978 122.065C118.978 122.581 119.196 123.119 119.617 123.526C120.053 123.918 120.605 124.121 121.179 124.121C121.746 124.121 122.298 123.918 122.734 123.526Z" fill="black"/>
</mask>
<g mask="url(#mask27_3428_54910)">
<path d="M109.68 133.419H132.671V110.711H109.68V133.419Z" fill="black"/>
</g>
</g>
<mask id="mask28_3428_54910" style="mask-type:alpha" maskUnits="userSpaceOnUse" x="124" y="124" width="7" height="7">
<path d="M124.79 124.789H130.368V130.368H124.79V124.789Z" fill="black"/>
</mask>
<g mask="url(#mask28_3428_54910)">
<mask id="mask29_3428_54910" style="mask-type:alpha" maskUnits="userSpaceOnUse" x="125" y="125" width="5" height="5">
<path d="M128.538 129.271C128.93 128.879 129.133 128.349 129.133 127.833C129.133 127.295 128.93 126.765 128.538 126.373C127.739 125.574 126.417 125.574 125.618 126.373C125.225 126.765 125.015 127.295 125.015 127.833C125.015 128.349 125.225 128.879 125.618 129.271C126.024 129.685 126.54 129.889 127.078 129.889C127.608 129.889 128.124 129.685 128.538 129.271Z" fill="black"/>
</mask>
<g mask="url(#mask29_3428_54910)">
<path d="M115.716 139.187H138.432V116.472H115.716V139.187Z" fill="black"/>
</g>
</g>
<mask id="mask30_3428_54910" style="mask-type:alpha" maskUnits="userSpaceOnUse" x="130" y="130" width="6" height="6">
<path d="M130.368 130.368H135.947V135.947H130.368V130.368Z" fill="black"/>
</mask>
<g mask="url(#mask30_3428_54910)">
<mask id="mask31_3428_54910" style="mask-type:alpha" maskUnits="userSpaceOnUse" x="130" y="131" width="5" height="5">
<path d="M134.298 135.054C134.691 134.662 134.894 134.124 134.894 133.586C134.894 133.071 134.691 132.533 134.298 132.141C133.499 131.335 132.177 131.335 131.378 132.141C130.986 132.533 130.782 133.071 130.782 133.586C130.782 134.124 130.986 134.662 131.378 135.054C131.792 135.468 132.301 135.65 132.838 135.65C133.354 135.65 133.892 135.468 134.298 135.054Z" fill="black"/>
</mask>
<g mask="url(#mask31_3428_54910)">
<path d="M121.484 144.948H144.192V122.232H121.484V144.948Z" fill="black"/>
</g>
</g>
<mask id="mask32_3428_54910" style="mask-type:alpha" maskUnits="userSpaceOnUse" x="135" y="135" width="7" height="7">
<path d="M135.948 135.947H141.526V141.526H135.948V135.947Z" fill="black"/>
</mask>
<g mask="url(#mask32_3428_54910)">
<mask id="mask33_3428_54910" style="mask-type:alpha" maskUnits="userSpaceOnUse" x="136" y="137" width="5" height="5">
<path d="M140.001 140.814C140.437 140.422 140.662 139.892 140.662 139.354C140.662 138.839 140.437 138.308 140.001 137.916C139.166 137.088 137.764 137.088 136.906 137.916C136.47 138.308 136.267 138.839 136.267 139.354C136.267 139.892 136.47 140.422 136.906 140.814C137.32 141.229 137.894 141.417 138.468 141.417C139.013 141.417 139.587 141.229 140.001 140.814Z" fill="black"/>
</mask>
<g mask="url(#mask33_3428_54910)">
<path d="M126.969 150.715H149.96V128H126.969V150.715Z" fill="black"/>
</g>
</g>
<mask id="mask34_3428_54910" style="mask-type:alpha" maskUnits="userSpaceOnUse" x="141" y="141" width="7" height="8">
<path d="M141.526 141.526H147.105V148.965H141.526V141.526Z" fill="black"/>
</mask>
<g mask="url(#mask34_3428_54910)">
<mask id="mask35_3428_54910" style="mask-type:alpha" maskUnits="userSpaceOnUse" x="142" y="143" width="5" height="5">
<path d="M146.423 145.122C146.423 144.606 146.219 144.069 145.805 143.662C144.999 142.863 143.706 142.863 142.907 143.662C142.493 144.069 142.304 144.606 142.304 145.122C142.304 145.652 142.493 146.168 142.907 146.582C143.292 146.967 143.829 147.178 144.367 147.178C144.883 147.178 145.413 146.967 145.805 146.582C146.219 146.168 146.423 145.652 146.423 145.122Z" fill="black"/>
</mask>
<g mask="url(#mask35_3428_54910)">
<path d="M133.005 156.476H155.721V133.761H133.005V156.476Z" fill="black"/>
</g>
</g>
<mask id="mask36_3428_54910" style="mask-type:alpha" maskUnits="userSpaceOnUse" x="147" y="147" width="6" height="8">
<path d="M147.105 147.105H152.684V154.544H147.105V147.105Z" fill="black"/>
</mask>
<g mask="url(#mask36_3428_54910)">
<mask id="mask37_3428_54910" style="mask-type:alpha" maskUnits="userSpaceOnUse" x="148" y="148" width="5" height="5">
<path d="M151.587 152.343C152.001 151.936 152.183 151.42 152.183 150.883C152.183 150.352 152.001 149.837 151.587 149.423C150.781 148.623 149.481 148.623 148.674 149.423C148.253 149.837 148.071 150.352 148.071 150.883C148.071 151.42 148.253 151.936 148.674 152.343C149.059 152.735 149.604 152.938 150.12 152.938C150.657 152.938 151.195 152.735 151.587 152.343Z" fill="black"/>
</mask>
<g mask="url(#mask37_3428_54910)">
<path d="M138.773 162.236H161.488V139.528H138.773V162.236Z" fill="black"/>
</g>
</g>
<mask id="mask38_3428_54910" style="mask-type:alpha" maskUnits="userSpaceOnUse" x="152" y="152" width="7" height="9">
<path d="M152.684 152.685H158.263V160.123H152.684V152.685Z" fill="black"/>
</mask>
<g mask="url(#mask38_3428_54910)">
<mask id="mask39_3428_54910" style="mask-type:alpha" maskUnits="userSpaceOnUse" x="153" y="154" width="5" height="5">
<path d="M157.312 157.813C157.733 157.421 157.951 156.891 157.951 156.375C157.951 155.837 157.733 155.322 157.312 154.915C156.462 154.116 155.053 154.116 154.217 154.915C153.781 155.322 153.556 155.837 153.556 156.375C153.556 156.891 153.781 157.421 154.217 157.813C154.639 158.227 155.205 158.431 155.757 158.431C156.331 158.431 156.876 158.227 157.312 157.813Z" fill="black"/>
</mask>
<g mask="url(#mask39_3428_54910)">
<path d="M144.258 167.729H167.249V145.014H144.258V167.729Z" fill="black"/>
</g>
</g>
<mask id="mask40_3428_54910" style="mask-type:alpha" maskUnits="userSpaceOnUse" x="158" y="158" width="6" height="8">
<path d="M158.263 158.264H163.842V165.702H158.263V158.264Z" fill="black"/>
</mask>
<g mask="url(#mask40_3428_54910)">
<mask id="mask41_3428_54910" style="mask-type:alpha" maskUnits="userSpaceOnUse" x="159" y="160" width="5" height="5">
<path d="M163.116 163.574C163.508 163.189 163.711 162.651 163.711 162.136C163.711 161.605 163.508 161.09 163.116 160.675C162.317 159.876 161.002 159.876 160.196 160.675C159.803 161.09 159.6 161.605 159.6 162.136C159.6 162.651 159.803 163.189 160.196 163.574C160.61 163.988 161.14 164.191 161.656 164.191C162.186 164.191 162.702 163.988 163.116 163.574Z" fill="black"/>
</mask>
<g mask="url(#mask41_3428_54910)">
<path d="M150.302 173.489H173.01V150.781H150.302V173.489Z" fill="black"/>
</g>
</g>
<mask id="mask42_3428_54910" style="mask-type:alpha" maskUnits="userSpaceOnUse" x="163" y="165" width="9" height="7">
<path d="M163.842 165.702H171.281V171.281H163.842V165.702Z" fill="black"/>
</mask>
<g mask="url(#mask42_3428_54910)">
<mask id="mask43_3428_54910" style="mask-type:alpha" maskUnits="userSpaceOnUse" x="165" y="165" width="5" height="5">
<path d="M168.884 169.356C169.276 168.963 169.479 168.426 169.479 167.91C169.479 167.372 169.276 166.835 168.884 166.443C168.077 165.636 166.763 165.636 165.956 166.443C165.564 166.835 165.361 167.372 165.361 167.91C165.361 168.426 165.564 168.963 165.956 169.356C166.37 169.77 166.886 169.959 167.416 169.959C167.954 169.959 168.47 169.77 168.884 169.356Z" fill="black"/>
</mask>
<g mask="url(#mask43_3428_54910)">
<path d="M156.062 179.256H178.778V156.541H156.062V179.256Z" fill="black"/>
</g>
</g>
<mask id="mask44_3428_54910" style="mask-type:alpha" maskUnits="userSpaceOnUse" x="169" y="171" width="6" height="6">
<path d="M169.421 171.281H175V176.86H169.421V171.281Z" fill="black"/>
</mask>
<g mask="url(#mask44_3428_54910)">
<mask id="mask45_3428_54910" style="mask-type:alpha" maskUnits="userSpaceOnUse" x="170" y="171" width="5" height="5">
<path d="M174.346 175.124C174.76 174.731 174.964 174.194 174.964 173.656C174.964 173.141 174.76 172.603 174.346 172.189C173.547 171.404 172.247 171.404 171.448 172.189C171.056 172.603 170.852 173.141 170.852 173.656C170.852 174.194 171.056 174.731 171.448 175.124C171.862 175.531 172.371 175.719 172.908 175.719C173.424 175.719 173.961 175.531 174.346 175.124Z" fill="black"/>
</mask>
<g mask="url(#mask45_3428_54910)">
<path d="M161.554 185.018H184.262V162.303H161.554V185.018Z" fill="black"/>
</g>
</g>
<mask id="mask46_3428_54910" style="mask-type:alpha" maskUnits="userSpaceOnUse" x="176" y="176" width="7" height="7">
<path d="M176.86 176.859H182.439V182.438H176.86V176.859Z" fill="black"/>
</mask>
<g mask="url(#mask46_3428_54910)">
<mask id="mask47_3428_54910" style="mask-type:alpha" maskUnits="userSpaceOnUse" x="176" y="177" width="6" height="5">
<path d="M180.39 180.884C180.797 180.492 181 179.954 181 179.417C181 178.901 180.797 178.371 180.39 177.957C179.584 177.172 178.283 177.172 177.484 177.957C177.07 178.371 176.889 178.901 176.889 179.417C176.889 179.954 177.07 180.492 177.484 180.884C177.877 181.276 178.414 181.48 178.944 181.48C179.46 181.48 179.998 181.276 180.39 180.884Z" fill="black"/>
</mask>
<g mask="url(#mask47_3428_54910)">
<path d="M167.59 190.778H190.298V168.07H167.59V190.778Z" fill="black"/>
</g>
</g>
<mask id="mask48_3428_54910" style="mask-type:alpha" maskUnits="userSpaceOnUse" x="180" y="182" width="9" height="7">
<path d="M180.579 182.438H188.018V188.017H180.579V182.438Z" fill="black"/>
</mask>
<g mask="url(#mask48_3428_54910)">
<mask id="mask49_3428_54910" style="mask-type:alpha" maskUnits="userSpaceOnUse" x="182" y="183" width="5" height="5">
<path d="M186.129 186.651C186.572 186.237 186.768 185.722 186.768 185.191C186.768 184.654 186.572 184.145 186.129 183.731C185.272 182.932 183.892 182.932 183.034 183.731C182.598 184.145 182.373 184.654 182.373 185.191C182.373 185.722 182.598 186.237 183.034 186.651C183.448 187.036 184.022 187.247 184.574 187.247C185.141 187.247 185.715 187.036 186.129 186.651Z" fill="black"/>
</mask>
<g mask="url(#mask49_3428_54910)">
<path d="M173.075 196.545H196.066V173.83H173.075V196.545Z" fill="black"/>
</g>
</g>
<mask id="mask50_3428_54910" style="mask-type:alpha" maskUnits="userSpaceOnUse" x="117" y="95" width="66" height="27">
<path d="M117.351 95.0352H182.439V121.07H117.351V95.0352Z" fill="black"/>
</mask>
<g mask="url(#mask50_3428_54910)">
<mask id="mask51_3428_54910" style="mask-type:alpha" maskUnits="userSpaceOnUse" x="118" y="95" width="64" height="25">
<path d="M130.586 119.312C136.405 115.542 142.841 113.632 149.902 113.617C156.876 113.602 163.319 115.528 169.239 119.356L181.632 107.007C171.993 99.6406 161.423 95.9504 149.917 95.9649C138.345 95.9794 127.775 99.6551 118.215 106.985L130.586 119.312Z" fill="black"/>
</mask>
<g mask="url(#mask51_3428_54910)">
<path d="M108.917 128.654H190.93V86.667H108.917V128.654Z" fill="black"/>
</g>
</g>
<mask id="mask52_3428_54910" style="mask-type:alpha" maskUnits="userSpaceOnUse" x="95" y="117" width="25" height="66">
<path d="M95.0352 117.351H119.211V182.438H95.0352V117.351Z" fill="black"/>
</mask>
<g mask="url(#mask52_3428_54910)">
<mask id="mask53_3428_54910" style="mask-type:alpha" maskUnits="userSpaceOnUse" x="95" y="119" width="24" height="64">
<path d="M118.215 170.017C114.307 164.06 112.353 157.631 112.368 150.708C112.382 143.698 114.322 137.269 118.179 131.422L105.888 119.087C98.6673 128.53 95.0497 139.071 95.0352 150.715C95.0279 162.258 98.66 172.799 105.924 182.351L118.215 170.017Z" fill="black"/>
</mask>
<g mask="url(#mask53_3428_54910)">
<path d="M85.7368 191.65H127.514V109.789H85.7368V191.65Z" fill="black"/>
</g>
</g>
<mask id="mask54_3428_54910" style="mask-type:alpha" maskUnits="userSpaceOnUse" x="117" y="180" width="66" height="27">
<path d="M117.351 180.579H182.439V206.614H117.351V180.579Z" fill="black"/>
</mask>
<g mask="url(#mask54_3428_54910)">
<mask id="mask55_3428_54910" style="mask-type:alpha" maskUnits="userSpaceOnUse" x="118" y="182" width="64" height="24">
<path d="M169.319 182.352C163.443 186.311 157.021 188.33 150.033 188.374C142.936 188.424 136.434 186.42 130.514 182.388L118.215 194.701C127.775 202.147 138.403 205.83 150.105 205.742C161.685 205.648 172.196 201.965 181.632 194.679L169.319 182.352Z" fill="black"/>
</mask>
<g mask="url(#mask55_3428_54910)">
<path d="M108.917 215.041H190.93V173.054H108.917V215.041Z" fill="black"/>
</g>
</g>
<mask id="mask56_3428_54910" style="mask-type:alpha" maskUnits="userSpaceOnUse" x="180" y="117" width="27" height="66">
<path d="M180.579 117.351H206.614V182.438H180.579V117.351Z" fill="black"/>
</mask>
<g mask="url(#mask56_3428_54910)">
<mask id="mask57_3428_54910" style="mask-type:alpha" maskUnits="userSpaceOnUse" x="181" y="119" width="24" height="64">
<path d="M181.385 131.429C185.359 137.4 187.306 143.945 187.226 151.057C187.139 157.929 185.185 164.249 181.364 170.024L193.735 182.351C201.028 172.901 204.718 162.418 204.813 150.904C204.907 139.238 201.217 128.632 193.771 119.087L181.385 131.429Z" fill="black"/>
</mask>
<g mask="url(#mask57_3428_54910)">
<path d="M172.065 191.65H214.111V109.789H172.065V191.65Z" fill="black"/>
</g>
</g>
<mask id="mask58_3428_54910" style="mask-type:alpha" maskUnits="userSpaceOnUse" x="184" y="184" width="21" height="21">
<path d="M184.298 184.298H204.754V204.754H184.298V184.298Z" fill="black"/>
</mask>
<g mask="url(#mask58_3428_54910)">
<mask id="mask59_3428_54910" style="mask-type:alpha" maskUnits="userSpaceOnUse" x="185" y="186" width="18" height="18">
<path d="M194.316 186.15C199.088 186.15 202.96 190.022 202.96 194.795C202.96 199.567 199.088 203.439 194.316 203.439C189.543 203.439 185.671 199.567 185.671 194.795C185.671 190.022 189.543 186.15 194.316 186.15Z" fill="black"/>
</mask>
<g mask="url(#mask59_3428_54910)">
<path d="M176.373 212.738H212.258V176.853H176.373V212.738Z" fill="black"/>
</g>
</g>
<mask id="mask60_3428_54910" style="mask-type:alpha" maskUnits="userSpaceOnUse" x="96" y="184" width="20" height="21">
<path d="M96.8948 184.298H115.491V204.754H96.8948V184.298Z" fill="black"/>
</mask>
<g mask="url(#mask60_3428_54910)">
<mask id="mask61_3428_54910" style="mask-type:alpha" maskUnits="userSpaceOnUse" x="97" y="186" width="18" height="18">
<path d="M105.808 186.15C110.501 186.15 114.314 190.015 114.314 194.795C114.314 199.567 110.501 203.439 105.808 203.439C101.108 203.439 97.3015 199.567 97.3015 194.795C97.3015 190.015 101.108 186.15 105.808 186.15Z" fill="black"/>
</mask>
<g mask="url(#mask61_3428_54910)">
<path d="M88.0032 212.738H123.613V176.853H88.0032V212.738Z" fill="black"/>
</g>
</g>
<mask id="mask62_3428_54910" style="mask-type:alpha" maskUnits="userSpaceOnUse" x="184" y="96" width="21" height="20">
<path d="M184.298 96.8945H204.754V115.491H184.298V96.8945Z" fill="black"/>
</mask>
<g mask="url(#mask62_3428_54910)">
<mask id="mask63_3428_54910" style="mask-type:alpha" maskUnits="userSpaceOnUse" x="185" y="97" width="18" height="19">
<path d="M194.454 97.7812C199.146 97.7812 202.96 101.646 202.96 106.426C202.96 111.198 199.146 115.07 194.454 115.07C189.754 115.07 185.94 111.198 185.94 106.426C185.94 101.646 189.754 97.7812 194.454 97.7812Z" fill="black"/>
</mask>
<g mask="url(#mask63_3428_54910)">
<path d="M176.642 124.369H212.258V88.4834H176.642V124.369Z" fill="black"/>
</g>
</g>
<mask id="mask64_3428_54910" style="mask-type:alpha" maskUnits="userSpaceOnUse" x="96" y="96" width="20" height="20">
<path d="M96.8948 96.8945H115.491V115.491H96.8948V96.8945Z" fill="black"/>
</mask>
<g mask="url(#mask64_3428_54910)">
<mask id="mask65_3428_54910" style="mask-type:alpha" maskUnits="userSpaceOnUse" x="97" y="97" width="18" height="18">
<path d="M105.67 97.7812C110.443 97.7812 114.315 101.588 114.315 106.288C114.315 110.988 110.443 114.794 105.67 114.794C100.897 114.794 97.0256 110.988 97.0256 106.288C97.0256 101.588 100.897 97.7812 105.67 97.7812Z" fill="black"/>
</mask>
<g mask="url(#mask65_3428_54910)">
<path d="M87.7273 124.093H123.613V88.4834H87.7273V124.093Z" fill="black"/>
</g>
</g>
</g>
<defs>
<clipPath id="clip0_3428_54910">
<rect width="111.579" height="111.579" fill="white" transform="translate(95.0352 95.0352)"/>
</clipPath>
</defs>
</svg>
