<svg width="420" height="420" viewBox="0 0 420 420" fill="none" xmlns="http://www.w3.org/2000/svg">
<path d="M0 116C0 51.935 51.935 0 116 0H304C368.065 0 420 51.935 420 116V304C420 368.065 368.065 420 304 420H116C51.935 420 0 368.065 0 304V116Z" fill="white"/>
<path d="M187.103 259.186H154.127C149.745 259.186 147.011 254.437 149.211 250.648L203.31 157.477C205.496 153.713 210.928 153.701 213.129 157.455L229.153 184.778C231.403 188.615 231.445 193.358 229.265 197.235L198.003 252.812C195.788 256.749 191.621 259.186 187.103 259.186Z" fill="white"/>
<path d="M223.277 249.188L240.542 219.639C243.265 214.978 249.986 214.936 252.767 219.563L270.529 249.112C273.376 253.848 269.965 259.878 264.439 259.878H229.412C223.926 259.878 220.51 253.925 223.277 249.188Z" fill="white"/>
<g clip-path="url(#clip0_3431_54910)">
<mask id="mask0_3431_54910" style="mask-type:alpha" maskUnits="userSpaceOnUse" x="264" y="140" width="15" height="11">
<path d="M264.334 140H278.334V150.5H264.334V140Z" fill="black"/>
</mask>
<g mask="url(#mask0_3431_54910)">
<mask id="mask1_3431_54910" style="mask-type:alpha" maskUnits="userSpaceOnUse" x="267" y="141" width="9" height="8">
<path d="M268.914 147.779C268.121 147.014 267.711 146.002 267.711 145.031C267.711 144.033 268.121 143.063 268.914 142.283C270.527 140.779 273.125 140.779 274.738 142.283C275.572 143.063 275.982 144.033 275.982 145.031C275.982 146.002 275.572 147.014 274.738 147.779C273.945 148.518 272.879 148.9 271.853 148.9C270.773 148.9 269.693 148.518 268.914 147.779Z" fill="black"/>
</mask>
<g mask="url(#mask1_3431_54910)">
<path d="M250.211 166.4H293.482V123.648H250.211V166.4Z" fill="black"/>
</g>
</g>
<mask id="mask2_3431_54910" style="mask-type:alpha" maskUnits="userSpaceOnUse" x="257" y="150" width="11" height="11">
<path d="M257.334 150.5H267.834V161H257.334V150.5Z" fill="black"/>
</mask>
<g mask="url(#mask2_3431_54910)">
<mask id="mask3_3431_54910" style="mask-type:alpha" maskUnits="userSpaceOnUse" x="257" y="152" width="9" height="8">
<path d="M258.51 158.621C257.771 157.855 257.388 156.843 257.388 155.873C257.388 154.875 257.771 153.904 258.51 153.138C260.013 151.621 262.502 151.621 264.006 153.138C264.744 153.904 265.127 154.875 265.127 155.873C265.127 156.843 264.744 157.855 264.006 158.621C263.226 159.359 262.269 159.742 261.258 159.742C260.246 159.742 259.289 159.359 258.51 158.621Z" fill="black"/>
</mask>
<g mask="url(#mask3_3431_54910)">
<path d="M239.888 177.242H282.627V134.504H239.888V177.242Z" fill="black"/>
</g>
</g>
<mask id="mask4_3431_54910" style="mask-type:alpha" maskUnits="userSpaceOnUse" x="243" y="161" width="11" height="11">
<path d="M243.334 161H253.834V171.5H243.334V161Z" fill="black"/>
</mask>
<g mask="url(#mask4_3431_54910)">
<mask id="mask5_3431_54910" style="mask-type:alpha" maskUnits="userSpaceOnUse" x="246" y="162" width="8" height="9">
<path d="M247.148 169.436C246.41 168.697 246.027 167.699 246.027 166.729C246.027 165.717 246.41 164.719 247.148 163.98C248.652 162.477 251.14 162.477 252.644 163.98C253.383 164.719 253.765 165.717 253.765 166.729C253.765 167.699 253.383 168.697 252.644 169.436C251.865 170.215 250.894 170.598 249.896 170.598C248.885 170.598 247.914 170.215 247.148 169.436Z" fill="black"/>
</mask>
<g mask="url(#mask5_3431_54910)">
<path d="M228.527 188.098H271.265V145.346H228.527V188.098Z" fill="black"/>
</g>
</g>
<mask id="mask6_3431_54910" style="mask-type:alpha" maskUnits="userSpaceOnUse" x="232" y="171" width="15" height="11">
<path d="M232.834 171.5H246.834V182H232.834V171.5Z" fill="black"/>
</mask>
<g mask="url(#mask6_3431_54910)">
<mask id="mask7_3431_54910" style="mask-type:alpha" maskUnits="userSpaceOnUse" x="235" y="173" width="9" height="9">
<path d="M236.375 180.319C235.595 179.581 235.172 178.569 235.172 177.557C235.172 176.586 235.595 175.575 236.375 174.836C237.988 173.319 240.627 173.319 242.24 174.836C243.019 175.575 243.443 176.586 243.443 177.557C243.443 178.569 243.019 179.581 242.24 180.319C241.42 181.098 240.381 181.44 239.301 181.44C238.275 181.44 237.195 181.098 236.375 180.319Z" fill="black"/>
</mask>
<g mask="url(#mask7_3431_54910)">
<path d="M217.672 198.939H260.943V156.188H217.672V198.939Z" fill="black"/>
</g>
</g>
<mask id="mask8_3431_54910" style="mask-type:alpha" maskUnits="userSpaceOnUse" x="222" y="182" width="11" height="11">
<path d="M222.334 182H232.834V192.5H222.334V182Z" fill="black"/>
</mask>
<g mask="url(#mask8_3431_54910)">
<mask id="mask9_3431_54910" style="mask-type:alpha" maskUnits="userSpaceOnUse" x="224" y="184" width="9" height="9">
<path d="M225.998 191.16C225.232 190.422 224.849 189.424 224.849 188.412C224.849 187.441 225.232 186.443 225.998 185.705C227.474 184.146 229.963 184.146 231.467 185.705C232.246 186.443 232.588 187.441 232.588 188.412C232.588 189.424 232.246 190.422 231.467 191.16C230.728 191.939 229.717 192.295 228.719 192.295C227.748 192.295 226.75 191.939 225.998 191.16Z" fill="black"/>
</mask>
<g mask="url(#mask9_3431_54910)">
<path d="M207.349 209.795H250.088V167.043H207.349V209.795Z" fill="black"/>
</g>
</g>
<mask id="mask10_3431_54910" style="mask-type:alpha" maskUnits="userSpaceOnUse" x="211" y="192" width="12" height="15">
<path d="M211.834 192.5H222.334V206.5H211.834V192.5Z" fill="black"/>
</mask>
<g mask="url(#mask10_3431_54910)">
<mask id="mask11_3431_54910" style="mask-type:alpha" maskUnits="userSpaceOnUse" x="213" y="195" width="9" height="9">
<path d="M213.474 199.268C213.474 198.297 213.871 197.285 214.636 196.52C216.154 195.016 218.588 195.016 220.105 196.52C220.885 197.285 221.226 198.297 221.226 199.268C221.226 200.266 220.885 201.236 220.105 202.016C219.367 202.74 218.369 203.137 217.357 203.137C216.386 203.137 215.375 202.74 214.636 202.016C213.871 201.236 213.474 200.266 213.474 199.268Z" fill="black"/>
</mask>
<g mask="url(#mask11_3431_54910)">
<path d="M195.974 220.637H238.726V177.885H195.974V220.637Z" fill="black"/>
</g>
</g>
<mask id="mask12_3431_54910" style="mask-type:alpha" maskUnits="userSpaceOnUse" x="190" y="213" width="12" height="15">
<path d="M190.834 213.5H201.334V227.5H190.834V213.5Z" fill="black"/>
</mask>
<g mask="url(#mask12_3431_54910)">
<mask id="mask13_3431_54910" style="mask-type:alpha" maskUnits="userSpaceOnUse" x="192" y="216" width="9" height="9">
<path d="M193.431 223.152C192.693 222.414 192.297 221.416 192.297 220.445C192.297 219.434 192.693 218.463 193.431 217.697C194.935 216.193 197.41 216.193 198.886 217.697C199.666 218.463 200.049 219.434 200.049 220.445C200.049 221.416 199.666 222.414 198.886 223.152C198.148 223.932 197.15 224.314 196.179 224.314C195.168 224.314 194.197 223.932 193.431 223.152Z" fill="black"/>
</mask>
<g mask="url(#mask13_3431_54910)">
<path d="M174.797 241.814H217.549V199.062H174.797V241.814Z" fill="black"/>
</g>
</g>
<mask id="mask14_3431_54910" style="mask-type:alpha" maskUnits="userSpaceOnUse" x="180" y="224" width="11" height="14">
<path d="M180.334 224H190.834V238H180.334V224Z" fill="black"/>
</mask>
<g mask="url(#mask14_3431_54910)">
<mask id="mask15_3431_54910" style="mask-type:alpha" maskUnits="userSpaceOnUse" x="180" y="227" width="10" height="9">
<path d="M182.138 233.994C181.359 233.27 180.935 232.258 180.935 231.287C180.935 230.289 181.359 229.318 182.138 228.539C183.752 227.035 186.39 227.035 188.004 228.539C188.783 229.318 189.207 230.289 189.207 231.287C189.207 232.258 188.783 233.27 188.004 233.994C187.183 234.773 186.103 235.156 185.078 235.156C183.998 235.156 182.972 234.773 182.138 233.994Z" fill="black"/>
</mask>
<g mask="url(#mask15_3431_54910)">
<path d="M163.435 252.656H206.707V209.918H163.435V252.656Z" fill="black"/>
</g>
</g>
<mask id="mask16_3431_54910" style="mask-type:alpha" maskUnits="userSpaceOnUse" x="169" y="238" width="12" height="11">
<path d="M169.834 238H180.334V248.5H169.834V238Z" fill="black"/>
</mask>
<g mask="url(#mask16_3431_54910)">
<mask id="mask17_3431_54910" style="mask-type:alpha" maskUnits="userSpaceOnUse" x="170" y="238" width="9" height="9">
<path d="M171.734 244.877C170.996 244.139 170.613 243.127 170.613 242.157C170.613 241.145 170.996 240.133 171.734 239.395C173.238 237.877 175.726 237.877 177.23 239.395C177.969 240.133 178.351 241.145 178.351 242.157C178.351 243.127 177.969 244.139 177.23 244.877C176.465 245.657 175.494 246.012 174.482 246.012C173.47 246.012 172.513 245.657 171.734 244.877Z" fill="black"/>
</mask>
<g mask="url(#mask17_3431_54910)">
<path d="M153.113 263.513H195.851V220.761H153.113V263.513Z" fill="black"/>
</g>
</g>
<mask id="mask18_3431_54910" style="mask-type:alpha" maskUnits="userSpaceOnUse" x="159" y="248" width="11" height="11">
<path d="M159.334 248.5H169.834V259H159.334V248.5Z" fill="black"/>
</mask>
<g mask="url(#mask18_3431_54910)">
<mask id="mask19_3431_54910" style="mask-type:alpha" maskUnits="userSpaceOnUse" x="159" y="249" width="9" height="8">
<path d="M160.92 255.732C160.154 254.994 159.758 253.982 159.758 252.971C159.758 252 160.154 250.988 160.92 250.209C162.437 248.732 164.871 248.732 166.388 250.209C167.127 250.988 167.51 252 167.51 252.971C167.51 253.982 167.127 254.994 166.388 255.732C165.609 256.498 164.638 256.854 163.627 256.854C162.67 256.854 161.658 256.498 160.92 255.732Z" fill="black"/>
</mask>
<g mask="url(#mask19_3431_54910)">
<path d="M142.258 274.354H185.01V231.602H142.258V274.354Z" fill="black"/>
</g>
</g>
<mask id="mask20_3431_54910" style="mask-type:alpha" maskUnits="userSpaceOnUse" x="145" y="259" width="15" height="11">
<path d="M145.334 259H159.334V269.5H145.334V259Z" fill="black"/>
</mask>
<g mask="url(#mask20_3431_54910)">
<mask id="mask21_3431_54910" style="mask-type:alpha" maskUnits="userSpaceOnUse" x="148" y="259" width="9" height="9">
<path d="M149.64 266.574C148.806 265.836 148.396 264.824 148.396 263.812C148.396 262.842 148.806 261.844 149.64 261.064C151.254 259.588 153.851 259.588 155.465 261.064C156.299 261.844 156.668 262.842 156.668 263.812C156.668 264.824 156.299 265.836 155.465 266.574C154.672 267.313 153.605 267.695 152.525 267.695C151.5 267.695 150.42 267.313 149.64 266.574Z" fill="black"/>
</mask>
<g mask="url(#mask21_3431_54910)">
<path d="M130.896 285.195H174.168V242.457H130.896V285.195Z" fill="black"/>
</g>
</g>
<mask id="mask22_3431_54910" style="mask-type:alpha" maskUnits="userSpaceOnUse" x="134" y="269" width="15" height="11">
<path d="M134.834 269.5H148.834V280H134.834V269.5Z" fill="black"/>
</mask>
<g mask="url(#mask22_3431_54910)">
<mask id="mask23_3431_54910" style="mask-type:alpha" maskUnits="userSpaceOnUse" x="138" y="270" width="8" height="9">
<path d="M139.195 277.43C138.416 276.65 138.074 275.68 138.074 274.682C138.074 273.67 138.416 272.713 139.195 271.934C140.699 270.43 143.146 270.43 144.65 271.934C145.429 272.713 145.812 273.67 145.812 274.682C145.812 275.68 145.429 276.65 144.65 277.43C143.926 278.154 142.914 278.551 141.943 278.551C140.931 278.551 139.933 278.154 139.195 277.43Z" fill="black"/>
</mask>
<g mask="url(#mask23_3431_54910)">
<path d="M120.574 296.051H163.312V253.299H120.574V296.051Z" fill="black"/>
</g>
</g>
<mask id="mask24_3431_54910" style="mask-type:alpha" maskUnits="userSpaceOnUse" x="134" y="140" width="15" height="11">
<path d="M134.834 140H148.834V150.5H134.834V140Z" fill="black"/>
</mask>
<g mask="url(#mask24_3431_54910)">
<mask id="mask25_3431_54910" style="mask-type:alpha" maskUnits="userSpaceOnUse" x="138" y="141" width="8" height="8">
<path d="M144.691 147.779C145.429 147.014 145.812 146.002 145.812 145.031C145.812 144.033 145.429 143.063 144.691 142.283C143.187 140.779 140.74 140.779 139.236 142.283C138.457 143.063 138.074 144.033 138.074 145.031C138.074 146.002 138.457 147.014 139.236 147.779C139.974 148.518 140.972 148.9 141.943 148.9C142.955 148.9 143.953 148.518 144.691 147.779Z" fill="black"/>
</mask>
<g mask="url(#mask25_3431_54910)">
<path d="M120.574 166.4H163.312V123.648H120.574V166.4Z" fill="black"/>
</g>
</g>
<mask id="mask26_3431_54910" style="mask-type:alpha" maskUnits="userSpaceOnUse" x="145" y="150" width="15" height="11">
<path d="M145.334 150.5H159.334V161H145.334V150.5Z" fill="black"/>
</mask>
<g mask="url(#mask26_3431_54910)">
<mask id="mask27_3431_54910" style="mask-type:alpha" maskUnits="userSpaceOnUse" x="148" y="152" width="9" height="8">
<path d="M155.465 158.621C156.258 157.855 156.668 156.843 156.668 155.873C156.668 154.875 156.258 153.904 155.465 153.138C153.851 151.621 151.213 151.621 149.599 153.138C148.806 153.904 148.396 154.875 148.396 155.873C148.396 156.843 148.806 157.855 149.599 158.621C150.42 159.359 151.459 159.742 152.539 159.742C153.605 159.742 154.644 159.359 155.465 158.621Z" fill="black"/>
</mask>
<g mask="url(#mask27_3431_54910)">
<path d="M130.896 177.242H174.168V134.504H130.896V177.242Z" fill="black"/>
</g>
</g>
<mask id="mask28_3431_54910" style="mask-type:alpha" maskUnits="userSpaceOnUse" x="159" y="161" width="11" height="11">
<path d="M159.334 161H169.834V171.5H159.334V161Z" fill="black"/>
</mask>
<g mask="url(#mask28_3431_54910)">
<mask id="mask29_3431_54910" style="mask-type:alpha" maskUnits="userSpaceOnUse" x="159" y="162" width="9" height="9">
<path d="M166.388 169.436C167.127 168.697 167.51 167.699 167.51 166.729C167.51 165.717 167.127 164.719 166.388 163.98C164.885 162.477 162.396 162.477 160.892 163.98C160.154 164.719 159.758 165.717 159.758 166.729C159.758 167.699 160.154 168.697 160.892 169.436C161.658 170.215 162.629 170.598 163.64 170.598C164.638 170.598 165.609 170.215 166.388 169.436Z" fill="black"/>
</mask>
<g mask="url(#mask29_3431_54910)">
<path d="M142.258 188.098H185.01V145.346H142.258V188.098Z" fill="black"/>
</g>
</g>
<mask id="mask30_3431_54910" style="mask-type:alpha" maskUnits="userSpaceOnUse" x="169" y="171" width="12" height="11">
<path d="M169.834 171.5H180.334V182H169.834V171.5Z" fill="black"/>
</mask>
<g mask="url(#mask30_3431_54910)">
<mask id="mask31_3431_54910" style="mask-type:alpha" maskUnits="userSpaceOnUse" x="170" y="173" width="9" height="9">
<path d="M177.23 180.319C177.969 179.581 178.351 178.569 178.351 177.557C178.351 176.586 177.969 175.575 177.23 174.836C175.726 173.319 173.238 173.319 171.734 174.836C170.996 175.575 170.613 176.586 170.613 177.557C170.613 178.569 170.996 179.581 171.734 180.319C172.513 181.098 173.47 181.44 174.482 181.44C175.453 181.44 176.465 181.098 177.23 180.319Z" fill="black"/>
</mask>
<g mask="url(#mask31_3431_54910)">
<path d="M153.113 198.939H195.851V156.188H153.113V198.939Z" fill="black"/>
</g>
</g>
<mask id="mask32_3431_54910" style="mask-type:alpha" maskUnits="userSpaceOnUse" x="180" y="182" width="11" height="11">
<path d="M180.334 182H190.834V192.5H180.334V182Z" fill="black"/>
</mask>
<g mask="url(#mask32_3431_54910)">
<mask id="mask33_3431_54910" style="mask-type:alpha" maskUnits="userSpaceOnUse" x="180" y="184" width="10" height="9">
<path d="M187.963 191.16C188.783 190.422 189.207 189.424 189.207 188.412C189.207 187.441 188.783 186.443 187.963 185.705C186.39 184.146 183.752 184.146 182.138 185.705C181.318 186.443 180.935 187.441 180.935 188.412C180.935 189.424 181.318 190.422 182.138 191.16C182.918 191.939 183.998 192.295 185.078 192.295C186.103 192.295 187.183 191.939 187.963 191.16Z" fill="black"/>
</mask>
<g mask="url(#mask33_3431_54910)">
<path d="M163.435 209.795H206.707V167.043H163.435V209.795Z" fill="black"/>
</g>
</g>
<mask id="mask34_3431_54910" style="mask-type:alpha" maskUnits="userSpaceOnUse" x="190" y="192" width="12" height="15">
<path d="M190.834 192.5H201.334V206.5H190.834V192.5Z" fill="black"/>
</mask>
<g mask="url(#mask34_3431_54910)">
<mask id="mask35_3431_54910" style="mask-type:alpha" maskUnits="userSpaceOnUse" x="192" y="195" width="9" height="9">
<path d="M200.049 199.268C200.049 198.297 199.666 197.285 198.886 196.52C197.369 195.016 194.935 195.016 193.431 196.52C192.652 197.285 192.297 198.297 192.297 199.268C192.297 200.266 192.652 201.236 193.431 202.016C194.156 202.74 195.168 203.137 196.179 203.137C197.15 203.137 198.148 202.74 198.886 202.016C199.666 201.236 200.049 200.266 200.049 199.268Z" fill="black"/>
</mask>
<g mask="url(#mask35_3431_54910)">
<path d="M174.797 220.637H217.549V177.885H174.797V220.637Z" fill="black"/>
</g>
</g>
<mask id="mask36_3431_54910" style="mask-type:alpha" maskUnits="userSpaceOnUse" x="201" y="203" width="11" height="14">
<path d="M201.334 203H211.834V217H201.334V203Z" fill="black"/>
</mask>
<g mask="url(#mask36_3431_54910)">
<mask id="mask37_3431_54910" style="mask-type:alpha" maskUnits="userSpaceOnUse" x="203" y="206" width="8" height="8">
<path d="M209.769 212.857C210.549 212.092 210.89 211.121 210.89 210.109C210.89 209.111 210.549 208.141 209.769 207.361C208.252 205.857 205.804 205.857 204.287 207.361C203.494 208.141 203.152 209.111 203.152 210.109C203.152 211.121 203.494 212.092 204.287 212.857C205.011 213.596 206.037 213.979 207.008 213.979C208.019 213.979 209.031 213.596 209.769 212.857Z" fill="black"/>
</mask>
<g mask="url(#mask37_3431_54910)">
<path d="M185.652 231.479H228.404V188.74H185.652V231.479Z" fill="black"/>
</g>
</g>
<mask id="mask38_3431_54910" style="mask-type:alpha" maskUnits="userSpaceOnUse" x="211" y="213" width="12" height="15">
<path d="M211.834 213.5H222.334V227.5H211.834V213.5Z" fill="black"/>
</mask>
<g mask="url(#mask38_3431_54910)">
<mask id="mask39_3431_54910" style="mask-type:alpha" maskUnits="userSpaceOnUse" x="213" y="216" width="9" height="9">
<path d="M220.543 223.152C221.336 222.414 221.746 221.416 221.746 220.445C221.746 219.434 221.336 218.463 220.543 217.697C218.943 216.193 216.291 216.193 214.719 217.697C213.898 218.463 213.474 219.434 213.474 220.445C213.474 221.416 213.898 222.414 214.719 223.152C215.511 223.932 216.578 224.314 217.617 224.314C218.697 224.314 219.722 223.932 220.543 223.152Z" fill="black"/>
</mask>
<g mask="url(#mask39_3431_54910)">
<path d="M195.974 241.814H239.246V199.062H195.974V241.814Z" fill="black"/>
</g>
</g>
<mask id="mask40_3431_54910" style="mask-type:alpha" maskUnits="userSpaceOnUse" x="222" y="224" width="11" height="14">
<path d="M222.334 224H232.834V238H222.334V224Z" fill="black"/>
</mask>
<g mask="url(#mask40_3431_54910)">
<mask id="mask41_3431_54910" style="mask-type:alpha" maskUnits="userSpaceOnUse" x="224" y="227" width="9" height="9">
<path d="M231.467 233.994C232.205 233.27 232.588 232.258 232.588 231.287C232.588 230.289 232.205 229.318 231.467 228.539C229.963 227.035 227.488 227.035 225.97 228.539C225.232 229.318 224.849 230.289 224.849 231.287C224.849 232.258 225.232 233.27 225.97 233.994C226.75 234.773 227.748 235.156 228.719 235.156C229.717 235.156 230.687 234.773 231.467 233.994Z" fill="black"/>
</mask>
<g mask="url(#mask41_3431_54910)">
<path d="M207.349 252.656H250.088V209.918H207.349V252.656Z" fill="black"/>
</g>
</g>
<mask id="mask42_3431_54910" style="mask-type:alpha" maskUnits="userSpaceOnUse" x="232" y="238" width="15" height="11">
<path d="M232.834 238H246.834V248.5H232.834V238Z" fill="black"/>
</mask>
<g mask="url(#mask42_3431_54910)">
<mask id="mask43_3431_54910" style="mask-type:alpha" maskUnits="userSpaceOnUse" x="235" y="238" width="9" height="9">
<path d="M242.322 244.877C243.06 244.139 243.443 243.127 243.443 242.157C243.443 241.145 243.06 240.133 242.322 239.395C240.804 237.877 238.33 237.877 236.812 239.395C236.074 240.133 235.691 241.145 235.691 242.157C235.691 243.127 236.074 244.139 236.812 244.877C237.592 245.657 238.562 246.012 239.56 246.012C240.572 246.012 241.543 245.657 242.322 244.877Z" fill="black"/>
</mask>
<g mask="url(#mask43_3431_54910)">
<path d="M218.191 263.513H260.943V220.761H218.191V263.513Z" fill="black"/>
</g>
</g>
<mask id="mask44_3431_54910" style="mask-type:alpha" maskUnits="userSpaceOnUse" x="243" y="248" width="11" height="11">
<path d="M243.334 248.5H253.834V259H243.334V248.5Z" fill="black"/>
</mask>
<g mask="url(#mask44_3431_54910)">
<mask id="mask45_3431_54910" style="mask-type:alpha" maskUnits="userSpaceOnUse" x="246" y="249" width="8" height="8">
<path d="M252.603 255.732C253.383 254.994 253.765 253.982 253.765 252.971C253.765 252 253.383 250.988 252.603 250.209C251.099 248.732 248.652 248.732 247.148 250.209C246.41 250.988 246.027 252 246.027 252.971C246.027 253.982 246.41 254.994 247.148 255.732C247.927 256.498 248.885 256.854 249.896 256.854C250.867 256.854 251.879 256.498 252.603 255.732Z" fill="black"/>
</mask>
<g mask="url(#mask45_3431_54910)">
<path d="M228.527 274.354H271.265V231.602H228.527V274.354Z" fill="black"/>
</g>
</g>
<mask id="mask46_3431_54910" style="mask-type:alpha" maskUnits="userSpaceOnUse" x="257" y="259" width="11" height="11">
<path d="M257.334 259H267.834V269.5H257.334V259Z" fill="black"/>
</mask>
<g mask="url(#mask46_3431_54910)">
<mask id="mask47_3431_54910" style="mask-type:alpha" maskUnits="userSpaceOnUse" x="257" y="259" width="9" height="9">
<path d="M263.978 266.574C264.744 265.836 265.127 264.824 265.127 263.812C265.127 262.842 264.744 261.844 263.978 261.064C262.461 259.588 260.013 259.588 258.51 261.064C257.73 261.844 257.388 262.842 257.388 263.812C257.388 264.824 257.73 265.836 258.51 266.574C259.248 267.313 260.26 267.695 261.258 267.695C262.228 267.695 263.24 267.313 263.978 266.574Z" fill="black"/>
</mask>
<g mask="url(#mask47_3431_54910)">
<path d="M239.888 285.195H282.627V242.457H239.888V285.195Z" fill="black"/>
</g>
</g>
<mask id="mask48_3431_54910" style="mask-type:alpha" maskUnits="userSpaceOnUse" x="264" y="269" width="15" height="11">
<path d="M264.334 269.5H278.334V280H264.334V269.5Z" fill="black"/>
</mask>
<g mask="url(#mask48_3431_54910)">
<mask id="mask49_3431_54910" style="mask-type:alpha" maskUnits="userSpaceOnUse" x="267" y="270" width="9" height="9">
<path d="M274.779 277.43C275.613 276.65 275.982 275.68 275.982 274.682C275.982 273.67 275.613 272.713 274.779 271.934C273.166 270.43 270.568 270.43 268.955 271.934C268.135 272.713 267.711 273.67 267.711 274.682C267.711 275.68 268.135 276.65 268.955 277.43C269.734 278.154 270.814 278.551 271.853 278.551C272.92 278.551 274 278.154 274.779 277.43Z" fill="black"/>
</mask>
<g mask="url(#mask49_3431_54910)">
<path d="M250.211 296.051H293.482V253.299H250.211V296.051Z" fill="black"/>
</g>
</g>
<mask id="mask50_3431_54910" style="mask-type:alpha" maskUnits="userSpaceOnUse" x="145" y="105" width="123" height="49">
<path d="M145.334 105H267.834V154H145.334V105Z" fill="black"/>
</mask>
<g mask="url(#mask50_3431_54910)">
<mask id="mask51_3431_54910" style="mask-type:alpha" maskUnits="userSpaceOnUse" x="146" y="106" width="121" height="45">
<path d="M170.244 150.691C181.195 143.596 193.308 140 206.597 139.973C219.722 139.945 231.849 143.568 242.992 150.774L266.316 127.531C248.174 113.668 228.281 106.723 206.625 106.75C184.845 106.777 164.953 113.695 146.961 127.49L170.244 150.691Z" fill="black"/>
</mask>
<g mask="url(#mask51_3431_54910)">
<path d="M129.461 168.273H283.816V89.25H129.461V168.273Z" fill="black"/>
</g>
</g>
<mask id="mask52_3431_54910" style="mask-type:alpha" maskUnits="userSpaceOnUse" x="103" y="147" width="46" height="123">
<path d="M103.334 147H148.834V269.5H103.334V147Z" fill="black"/>
</mask>
<g mask="url(#mask52_3431_54910)">
<mask id="mask53_3431_54910" style="mask-type:alpha" maskUnits="userSpaceOnUse" x="103" y="150" width="44" height="120">
<path d="M146.961 246.121C139.605 234.91 135.928 222.811 135.955 209.781C135.982 196.588 139.633 184.488 146.892 173.482L123.76 150.268C110.17 168.041 103.361 187.879 103.334 209.795C103.32 231.52 110.156 251.357 123.828 269.336L146.961 246.121Z" fill="black"/>
</mask>
<g mask="url(#mask53_3431_54910)">
<path d="M85.8337 286.836H164.461V132.768H85.8337V286.836Z" fill="black"/>
</g>
</g>
<mask id="mask54_3431_54910" style="mask-type:alpha" maskUnits="userSpaceOnUse" x="145" y="266" width="123" height="49">
<path d="M145.334 266H267.834V315H145.334V266Z" fill="black"/>
</mask>
<g mask="url(#mask54_3431_54910)">
<mask id="mask55_3431_54910" style="mask-type:alpha" maskUnits="userSpaceOnUse" x="146" y="269" width="121" height="45">
<path d="M243.142 269.336C232.082 276.787 219.996 280.588 206.844 280.67C193.486 280.766 181.25 276.992 170.107 269.404L146.961 292.578C164.953 306.592 184.955 313.523 206.98 313.359C228.773 313.182 248.556 306.25 266.316 292.537L243.142 269.336Z" fill="black"/>
</mask>
<g mask="url(#mask55_3431_54910)">
<path d="M129.461 330.859H283.816V251.836H129.461V330.859Z" fill="black"/>
</g>
</g>
<mask id="mask56_3431_54910" style="mask-type:alpha" maskUnits="userSpaceOnUse" x="264" y="147" width="50" height="123">
<path d="M264.334 147H313.334V269.5H264.334V147Z" fill="black"/>
</mask>
<g mask="url(#mask56_3431_54910)">
<mask id="mask57_3431_54910" style="mask-type:alpha" maskUnits="userSpaceOnUse" x="265" y="150" width="45" height="120">
<path d="M265.851 173.496C273.33 184.734 276.994 197.053 276.844 210.437C276.679 223.371 273.002 235.266 265.81 246.135L289.094 269.336C302.82 251.549 309.765 231.82 309.943 210.15C310.121 188.193 303.176 168.232 289.162 150.268L265.851 173.496Z" fill="black"/>
</mask>
<g mask="url(#mask57_3431_54910)">
<path d="M248.31 286.836H327.443V132.768H248.31V286.836Z" fill="black"/>
</g>
</g>
<mask id="mask58_3431_54910" style="mask-type:alpha" maskUnits="userSpaceOnUse" x="271" y="273" width="39" height="39">
<path d="M271.334 273H309.834V311.5H271.334V273Z" fill="black"/>
</mask>
<g mask="url(#mask58_3431_54910)">
<mask id="mask59_3431_54910" style="mask-type:alpha" maskUnits="userSpaceOnUse" x="273" y="276" width="34" height="34">
<path d="M290.187 276.486C299.17 276.486 306.457 283.773 306.457 292.756C306.457 301.738 299.17 309.025 290.187 309.025C281.205 309.025 273.918 301.738 273.918 292.756C273.918 283.773 281.205 276.486 290.187 276.486Z" fill="black"/>
</mask>
<g mask="url(#mask59_3431_54910)">
<path d="M256.418 326.525H323.957V258.986H256.418V326.525Z" fill="black"/>
</g>
</g>
<mask id="mask60_3431_54910" style="mask-type:alpha" maskUnits="userSpaceOnUse" x="106" y="273" width="36" height="39">
<path d="M106.834 273H141.834V311.5H106.834V273Z" fill="black"/>
</mask>
<g mask="url(#mask60_3431_54910)">
<mask id="mask61_3431_54910" style="mask-type:alpha" maskUnits="userSpaceOnUse" x="107" y="276" width="33" height="34">
<path d="M123.609 276.486C132.441 276.486 139.619 283.76 139.619 292.756C139.619 301.738 132.441 309.025 123.609 309.025C114.763 309.025 107.599 301.738 107.599 292.756C107.599 283.76 114.763 276.486 123.609 276.486Z" fill="black"/>
</mask>
<g mask="url(#mask61_3431_54910)">
<path d="M90.0994 326.525H157.119V258.986H90.0994V326.525Z" fill="black"/>
</g>
</g>
<mask id="mask62_3431_54910" style="mask-type:alpha" maskUnits="userSpaceOnUse" x="271" y="108" width="39" height="36">
<path d="M271.334 108.5H309.834V143.5H271.334V108.5Z" fill="black"/>
</mask>
<g mask="url(#mask62_3431_54910)">
<mask id="mask63_3431_54910" style="mask-type:alpha" maskUnits="userSpaceOnUse" x="274" y="110" width="33" height="33">
<path d="M290.447 110.168C299.279 110.168 306.457 117.441 306.457 126.438C306.457 135.42 299.279 142.707 290.447 142.707C281.601 142.707 274.424 135.42 274.424 126.438C274.424 117.441 281.601 110.168 290.447 110.168Z" fill="black"/>
</mask>
<g mask="url(#mask63_3431_54910)">
<path d="M256.924 160.207H323.957V92.668H256.924V160.207Z" fill="black"/>
</g>
</g>
<mask id="mask64_3431_54910" style="mask-type:alpha" maskUnits="userSpaceOnUse" x="106" y="108" width="36" height="36">
<path d="M106.834 108.5H141.834V143.5H106.834V108.5Z" fill="black"/>
</mask>
<g mask="url(#mask64_3431_54910)">
<mask id="mask65_3431_54910" style="mask-type:alpha" maskUnits="userSpaceOnUse" x="107" y="110" width="33" height="33">
<path d="M123.349 110.168C132.332 110.168 139.619 117.332 139.619 126.178C139.619 135.023 132.332 142.187 123.349 142.187C114.367 142.187 107.08 135.023 107.08 126.178C107.08 117.332 114.367 110.168 123.349 110.168Z" fill="black"/>
</mask>
<g mask="url(#mask65_3431_54910)">
<path d="M89.5798 159.688H157.119V92.668H89.5798V159.688Z" fill="black"/>
</g>
</g>
</g>
<defs>
<clipPath id="clip0_3431_54910">
<rect width="210" height="210" fill="white" transform="translate(103.334 105)"/>
</clipPath>
</defs>
</svg>
