<svg width="32" height="32" viewBox="0 0 32 32" fill="none" xmlns="http://www.w3.org/2000/svg">
<g filter="url(#filter0_d_1_11)">
<rect x="8" width="24" height="24" rx="8" fill="url(#paint0_linear_1_11)"/>
<path d="M19.5267 6.11495C19.84 5.96168 20.3166 5.96168 20.6299 6.11495L23.8264 7.67891C24.015 7.77121 24.1186 7.90876 24.1372 8.05076H24.1403V15.912C24.1361 16.0669 24.0315 16.2207 23.8264 16.3211L20.6299 17.8851C20.3166 18.0383 19.84 18.0383 19.5267 17.8851L16.3302 16.3211C16.1259 16.2211 16.0279 16.0662 16.023 15.912C16.0225 15.8961 16.0225 15.8831 16.023 15.8724L16.023 8.10368C16.0226 8.09276 16.0226 8.08188 16.023 8.07104L16.023 8.05076H16.0245C16.0387 7.90719 16.1376 7.77316 16.3302 7.67891L19.5267 6.11495ZM23.6371 12.4365L20.6299 13.9078C20.3166 14.0611 19.84 14.0611 19.5267 13.9078L16.5262 12.4397V15.8965L19.5267 17.3568C19.704 17.4446 19.8884 17.5301 20.0679 17.5338L20.0783 17.5339C20.2575 17.5345 20.4314 17.4502 20.6078 17.3704L23.6371 15.8839V12.4365ZM15.5031 15.7411C15.5031 16.0423 15.5409 16.2402 15.616 16.3797C15.6781 16.4953 15.7714 16.5836 15.9418 16.6911L15.9515 16.6972C15.9889 16.7206 16.0301 16.7451 16.0803 16.7738L16.1394 16.8073L16.321 16.9088L16.0605 17.3076L15.8573 17.1939L15.8232 17.1745C15.7644 17.1409 15.7157 17.1121 15.6703 17.0837C15.1847 16.7804 15.0036 16.4498 15.0001 15.762L15 15.7411H15.5031ZM19.8267 10.3294C19.8034 10.3368 19.7816 10.3454 19.7617 10.3551L16.5652 11.9191C16.5618 11.9207 16.5586 11.9224 16.5556 11.924L16.5529 11.9254L16.5579 11.9281L16.5652 11.9317L19.7617 13.4957C19.7816 13.5054 19.8034 13.514 19.8267 13.5214V10.3294ZM20.3299 10.3294V13.5214C20.3532 13.514 20.375 13.5054 20.3949 13.4957L23.5914 11.9317C23.5947 11.9301 23.5979 11.9285 23.601 11.9269L23.6037 11.9254L23.5987 11.9228L23.5914 11.9191L20.3949 10.3551C20.375 10.3454 20.3532 10.3368 20.3299 10.3294ZM23.6371 8.6084L20.7696 10.0114L23.6371 11.4144V8.6084ZM16.5262 8.61168V11.4111L19.3869 10.0114L16.5262 8.61168ZM20.3949 6.52708C20.2287 6.44575 19.9279 6.44575 19.7617 6.52708L16.5652 8.09103C16.5618 8.09268 16.5586 8.0943 16.5556 8.09591L16.5529 8.09736L16.5579 8.10002L16.5652 8.10368L19.7617 9.66763C19.9279 9.74897 20.2287 9.74897 20.3949 9.66763L23.5914 8.10368C23.5947 8.10204 23.5979 8.10042 23.601 8.09882L23.6037 8.09736L23.5987 8.0947L23.5914 8.09103L20.3949 6.52708ZM24.1094 6.69858L24.3127 6.81227L24.3468 6.8317C24.4056 6.86529 24.4543 6.89416 24.4997 6.92253C24.9853 7.22578 25.1664 7.55641 25.1699 8.2442L25.17 8.26516H24.6669C24.6669 7.96394 24.6291 7.76599 24.554 7.62651C24.4919 7.51092 24.3986 7.42258 24.2282 7.31509L24.2184 7.30899C24.1811 7.28564 24.1399 7.26117 24.0897 7.23242L24.0306 7.19888L23.849 7.09738L24.1094 6.69858Z" fill="white"/>
</g>
<defs>
<filter id="filter0_d_1_11" x="0" y="0" width="32" height="32" filterUnits="userSpaceOnUse" color-interpolation-filters="sRGB">
<feFlood flood-opacity="0" result="BackgroundImageFix"/>
<feColorMatrix in="SourceAlpha" type="matrix" values="0 0 0 0 0 0 0 0 0 0 0 0 0 0 0 0 0 0 127 0" result="hardAlpha"/>
<feOffset dx="-4" dy="4"/>
<feGaussianBlur stdDeviation="2"/>
<feComposite in2="hardAlpha" operator="out"/>
<feColorMatrix type="matrix" values="0 0 0 0 0 0 0 0 0 0 0 0 0 0 0 0 0 0 0.25 0"/>
<feBlend mode="normal" in2="BackgroundImageFix" result="effect1_dropShadow_1_11"/>
<feBlend mode="normal" in="SourceGraphic" in2="effect1_dropShadow_1_11" result="shape"/>
</filter>
<linearGradient id="paint0_linear_1_11" x1="20" y1="-5.6" x2="20" y2="28.4" gradientUnits="userSpaceOnUse">
<stop stop-color="#0094FF" stop-opacity="0.5"/>
<stop offset="1" stop-color="#0094FF" stop-opacity="0.5"/>
</linearGradient>
</defs>
</svg>
