<svg width="24" height="24" viewBox="0 0 24 24" fill="none" xmlns="http://www.w3.org/2000/svg">
<rect width="24" height="24" rx="8" fill="#1E1E1E"/>
<rect width="24" height="24" rx="8" fill="#0094FF" fill-opacity="0.5"/>
<path d="M12.0059 6.11495C12.2832 5.96168 12.705 5.96168 12.9822 6.11495L15.8109 7.67891C15.9779 7.77121 16.0696 7.90876 16.086 8.05076H16.0887V15.912C16.085 16.0669 15.9925 16.2207 15.8109 16.3211L12.9822 17.8851C12.705 18.0383 12.2832 18.0383 12.0059 17.8851L9.17718 16.3211C8.9964 16.2211 8.90964 16.0662 8.90534 15.912C8.9049 15.8961 8.90486 15.8831 8.90533 15.8724L8.90534 8.10368C8.90492 8.09276 8.90492 8.08188 8.90533 8.07104L8.90534 8.05076H8.90661C8.91917 7.90719 9.0067 7.77316 9.17718 7.67891L12.0059 6.11495ZM15.6435 12.4365L12.9822 13.9078C12.705 14.0611 12.2832 14.0611 12.0059 13.9078L9.35058 12.4397V15.8965L12.0059 17.3568C12.1629 17.4446 12.326 17.5301 12.4849 17.5338L12.4941 17.5339C12.6526 17.5345 12.8066 17.4502 12.9627 17.3704L15.6435 15.8839V12.4365ZM8.44525 15.7411C8.44525 16.0423 8.47869 16.2402 8.54509 16.3797C8.60012 16.4953 8.6827 16.5836 8.83347 16.6911L8.84208 16.6972C8.87517 16.7206 8.91162 16.7451 8.95599 16.7738L9.00831 16.8073L9.16898 16.9088L8.93854 17.3076L8.7587 17.1939L8.72848 17.1745C8.67648 17.1409 8.63338 17.1121 8.59318 17.0837C8.16347 16.7804 8.00321 16.4498 8.00005 15.762L8 15.7411H8.44525ZM12.2714 10.3294C12.2508 10.3368 12.2315 10.3454 12.2139 10.3551L9.38513 11.9191C9.38216 11.9207 9.37933 11.9224 9.37663 11.924L9.37424 11.9254L9.37868 11.9281L9.38513 11.9317L12.2139 13.4957C12.2315 13.5054 12.2508 13.514 12.2714 13.5214V10.3294ZM12.7167 10.3294V13.5214C12.7373 13.514 12.7566 13.5054 12.7742 13.4957L15.603 11.9317C15.606 11.9301 15.6088 11.9285 15.6115 11.9269L15.6139 11.9254L15.6095 11.9228L15.603 11.9191L12.7742 10.3551C12.7566 10.3454 12.7373 10.3368 12.7167 10.3294ZM15.6435 8.6084L13.1059 10.0114L15.6435 11.4144V8.6084ZM9.35058 8.61168V11.4111L11.8823 10.0114L9.35058 8.61168ZM12.7742 6.52708C12.6271 6.44575 12.361 6.44575 12.2139 6.52708L9.38513 8.09103C9.38216 8.09268 9.37933 8.0943 9.37663 8.09591L9.37424 8.09736L9.37868 8.10002L9.38513 8.10368L12.2139 9.66763C12.361 9.74897 12.6271 9.74897 12.7742 9.66763L15.603 8.10368C15.606 8.10204 15.6088 8.10042 15.6115 8.09882L15.6139 8.09736L15.6095 8.0947L15.603 8.09103L12.7742 6.52708ZM16.0615 6.69858L16.2413 6.81227L16.2715 6.8317C16.3235 6.86529 16.3666 6.89416 16.4068 6.92253C16.8365 7.22578 16.9968 7.55641 17 8.2442L17 8.26516H16.5548C16.5548 7.96394 16.5213 7.76599 16.4549 7.62651C16.3999 7.51092 16.3173 7.42258 16.1665 7.31509L16.1579 7.30899C16.1248 7.28564 16.0884 7.26117 16.044 7.23242L15.9917 7.19888L15.831 7.09738L16.0615 6.69858Z" fill="white"/>
</svg>
