<svg width="24" height="24" viewBox="0 0 24 24" fill="none" xmlns="http://www.w3.org/2000/svg">
<rect width="24" height="24" rx="8" fill="white"/>
<rect width="24" height="24" rx="8" fill="#FF0420"/>
<path d="M8.50239 15.1893C7.78787 15.1893 7.20246 15.0212 6.74612 14.685C6.29579 14.3427 6.07062 13.8564 6.07062 13.2259C6.07062 13.0938 6.08564 12.9317 6.11564 12.7395C6.19374 12.3072 6.30481 11.7878 6.44891 11.1814C6.85719 9.53019 7.91099 8.70459 9.61023 8.70459C10.0726 8.70459 10.4869 8.78264 10.8531 8.93873C11.2194 9.08883 11.5076 9.31702 11.7178 9.62326C11.9279 9.92345 12.033 10.2837 12.033 10.704C12.033 10.8301 12.018 10.9892 11.988 11.1814C11.8979 11.7158 11.7898 12.2352 11.6637 12.7395C11.4536 13.5621 11.0903 14.1776 10.5739 14.5859C10.0575 14.9882 9.36707 15.1893 8.50239 15.1893ZM8.62849 13.8924C8.96478 13.8924 9.24995 13.7933 9.48414 13.5952C9.72433 13.397 9.89545 13.0938 9.9975 12.6855C10.1356 12.1211 10.2407 11.6287 10.3128 11.2084C10.3368 11.0823 10.3488 10.9532 10.3488 10.8211C10.3488 10.2747 10.0635 10.0015 9.49316 10.0015C9.15687 10.0015 8.86868 10.1006 8.62849 10.2987C8.39435 10.4969 8.2262 10.8001 8.12415 11.2084C8.01606 11.6107 7.90796 12.1031 7.79991 12.6855C7.77587 12.8056 7.76387 12.9317 7.76387 13.0638C7.76387 13.6162 8.05211 13.8924 8.62849 13.8924Z" fill="white"/>
<path d="M12.4466 15.0993C12.3805 15.0993 12.3295 15.0783 12.2935 15.0363C12.2634 14.9882 12.2544 14.9342 12.2664 14.8742L13.5094 9.01985C13.5214 8.9538 13.5544 8.89975 13.6084 8.8577C13.6625 8.8157 13.7195 8.79468 13.7795 8.79468H16.1753C16.8418 8.79468 17.3762 8.93277 17.7785 9.20897C18.1868 9.48521 18.391 9.88447 18.391 10.4069C18.391 10.5569 18.373 10.7131 18.3369 10.8752C18.1868 11.5657 17.8836 12.0761 17.4273 12.4063C16.9769 12.7366 16.3584 12.9017 15.5719 12.9017H14.356L13.9417 14.8742C13.9296 14.9402 13.8966 14.9942 13.8426 15.0363C13.7886 15.0783 13.7315 15.0993 13.6715 15.0993H12.4466ZM15.6349 11.6588C15.8871 11.6588 16.1062 11.5897 16.2924 11.4516C16.4845 11.3135 16.6106 11.1154 16.6707 10.8572C16.6887 10.7551 16.6977 10.665 16.6977 10.587C16.6977 10.4129 16.6467 10.2808 16.5446 10.1907C16.4425 10.0946 16.2684 10.0466 16.0222 10.0466H14.9414L14.5991 11.6588H15.6349Z" fill="white"/>
</svg>
