<svg width="205" height="38" viewBox="0 0 205 38" fill="none" xmlns="http://www.w3.org/2000/svg">
<g clip-path="url(#clip0_93_371)">
<path d="M52.1074 25.4937V10.6103H60.5431V11.5678H53.2568V17.3755H59.168V18.333H53.2568V24.5362H60.9124V25.4937H52.1074ZM70.7113 25.4937V10.6103H72.2709L80.4813 23.8909V10.6103H81.569V25.4937H80.2138L71.8197 11.9008V25.4937H70.7113ZM95.6053 25.4937V11.5678H91.0493V10.6103H101.291V11.5678H96.7345V25.4937H95.6053ZM108.111 25.4937L113.386 10.6103H114.904L120.179 25.4937H119.03L117.408 20.935H110.8L109.199 25.4937H108.111ZM114.104 11.5678L111.128 19.9983H117.08L114.104 11.5678ZM129.729 25.4937V10.6103H131.289L139.498 23.8909V10.6103H140.587V25.4937H139.232L130.838 11.9008V25.4937H129.729ZM157.579 25.6602C155.403 25.6602 153.686 24.9664 152.427 23.5786C151.168 22.1771 150.539 20.3661 150.539 18.1457V17.9791C150.539 15.8004 151.203 13.9963 152.53 12.5669C153.857 11.1376 155.526 10.4229 157.538 10.4229C159.043 10.4229 160.336 10.7976 161.417 11.547C162.498 12.2825 163.168 13.3857 163.429 14.8567H162.279C162.019 13.6771 161.472 12.8029 160.637 12.2339C159.816 11.651 158.789 11.3596 157.558 11.3596C155.807 11.3596 154.391 11.9772 153.31 13.2123C152.243 14.4335 151.709 16.0155 151.709 17.9583V18.1248C151.709 20.1371 152.222 21.7399 153.248 22.9333C154.274 24.1129 155.718 24.7027 157.579 24.7027C159.248 24.7027 160.521 24.224 161.396 23.2664C162.286 22.295 162.745 20.9697 162.771 19.2905V19.2072H158.256V18.2289H163.88V19.0823C163.88 21.1918 163.312 22.8154 162.176 23.9534C161.04 25.0913 159.508 25.6602 157.579 25.6602ZM173.832 25.4937V10.6103H174.981V24.5362H182.103V25.4937H173.832ZM191.694 25.4937V10.6103H200.129V11.5678H192.843V17.3755H198.754V18.333H192.843V24.5362H200.498V25.4937H191.694Z" fill="white"/>
<path d="M28.1753 33.4368C36.0057 33.4368 42.3535 26.9988 42.3535 19.0572C42.3535 11.1156 36.0057 4.67773 28.1753 4.67773C20.3449 4.67773 13.9971 11.1156 13.9971 19.0572C13.9971 26.9988 20.3449 33.4368 28.1753 33.4368Z" stroke="url(#paint0_linear_93_371)" stroke-width="2"/>
<g filter="url(#filter0_f_93_371)">
<path d="M28.1753 33.4368C36.0057 33.4368 42.3535 26.9988 42.3535 19.0572C42.3535 11.1156 36.0057 4.67773 28.1753 4.67773C20.3449 4.67773 13.9971 11.1156 13.9971 19.0572C13.9971 26.9988 20.3449 33.4368 28.1753 33.4368Z" stroke="url(#paint1_linear_93_371)" stroke-width="2"/>
</g>
<path d="M28.1753 33.4368C36.0057 33.4368 42.3535 26.9988 42.3535 19.0572C42.3535 11.1156 36.0057 4.67773 28.1753 4.67773C20.3449 4.67773 13.9971 11.1156 13.9971 19.0572C13.9971 26.9988 20.3449 33.4368 28.1753 33.4368Z" stroke="url(#paint2_linear_93_371)" stroke-width="2"/>
<path d="M28.1753 33.4368C36.0057 33.4368 42.3535 26.9988 42.3535 19.0572C42.3535 11.1156 36.0057 4.67773 28.1753 4.67773C20.3449 4.67773 13.9971 11.1156 13.9971 19.0572C13.9971 26.9988 20.3449 33.4368 28.1753 33.4368Z" stroke="url(#paint3_linear_93_371)" stroke-opacity="0.75" stroke-width="0.5"/>
<path d="M19.1631 9.30774C18.9974 9.30774 18.8631 9.44205 18.8631 9.60774C18.8631 9.77342 18.9974 9.90774 19.1631 9.90774V9.30774ZM24.0242 9.90774C24.1899 9.90774 24.3242 9.77342 24.3242 9.60774C24.3242 9.44205 24.1899 9.30774 24.0242 9.30774V9.90774ZM20.2427 7.93828C20.077 7.93828 19.9427 8.0726 19.9427 8.23828C19.9427 8.40397 20.077 8.53828 20.2427 8.53828V7.93828ZM22.9432 8.53828C23.1089 8.53828 23.2432 8.40397 23.2432 8.23828C23.2432 8.0726 23.1089 7.93828 22.9432 7.93828V8.53828ZM18.0821 10.4034C17.9164 10.4034 17.7821 10.5377 17.7821 10.7034C17.7821 10.869 17.9164 11.0034 18.0821 11.0034V10.4034ZM24.8336 11.0034C24.9993 11.0034 25.1336 10.869 25.1336 10.7034C25.1336 10.5377 24.9993 10.4034 24.8336 10.4034V11.0034ZM17.0025 11.7728C16.8368 11.7728 16.7025 11.9071 16.7025 12.0728C16.7025 12.2385 16.8368 12.3728 17.0025 12.3728V11.7728ZM25.6445 12.3728C25.8101 12.3728 25.9445 12.2385 25.9445 12.0728C25.9445 11.9071 25.8101 11.7728 25.6445 11.7728V12.3728ZM16.1921 13.1423C16.0264 13.1423 15.8921 13.2766 15.8921 13.4423C15.8921 13.608 16.0264 13.7423 16.1921 13.7423V13.1423ZM26.4545 13.7423C26.6201 13.7423 26.7545 13.608 26.7545 13.4423C26.7545 13.2766 26.6201 13.1423 26.4545 13.1423V13.7423ZM15.6523 14.2379C15.4866 14.2379 15.3523 14.3722 15.3523 14.5379C15.3523 14.7036 15.4866 14.8379 15.6523 14.8379V14.2379ZM26.7248 14.8379C26.8905 14.8379 27.0248 14.7036 27.0248 14.5379C27.0248 14.3722 26.8905 14.2379 26.7248 14.2379V14.8379ZM15.3817 15.6074C15.216 15.6074 15.0817 15.7417 15.0817 15.9074C15.0817 16.073 15.216 16.2074 15.3817 16.2074V15.6074ZM27.3307 16.2074C27.4964 16.2074 27.6307 16.073 27.6307 15.9074C27.6307 15.7417 27.4964 15.6074 27.3307 15.6074V16.2074ZM14.8419 16.703C14.6762 16.703 14.5419 16.8373 14.5419 17.003C14.5419 17.1687 14.6762 17.303 14.8419 17.303V16.703ZM27.5348 17.303C27.7005 17.303 27.8348 17.1687 27.8348 17.003C27.8348 16.8373 27.7005 16.703 27.5348 16.703V17.303ZM14.5713 17.7985C14.4056 17.7985 14.2713 17.9328 14.2713 18.0985C14.2713 18.2642 14.4056 18.3985 14.5713 18.3985V17.7985ZM27.6504 18.3985C27.8161 18.3985 27.9504 18.2642 27.9504 18.0985C27.9504 17.9328 27.8161 17.7985 27.6504 17.7985V18.3985ZM14.5713 19.168C14.4056 19.168 14.2713 19.3023 14.2713 19.468C14.2713 19.6337 14.4056 19.768 14.5713 19.768V19.168ZM27.5342 19.768C27.6999 19.768 27.8342 19.6337 27.8342 19.468C27.8342 19.3023 27.6999 19.168 27.5342 19.168V19.768ZM14.8419 20.5375C14.6762 20.5375 14.5419 20.6718 14.5419 20.8375C14.5419 21.0032 14.6762 21.1375 14.8419 21.1375V20.5375ZM27.5348 21.1375C27.7005 21.1375 27.8348 21.0032 27.8348 20.8375C27.8348 20.6718 27.7005 20.5375 27.5348 20.5375V21.1375ZM15.1662 21.8667C15.0005 21.8667 14.8662 22.001 14.8662 22.1667C14.8662 22.3324 15.0005 22.4667 15.1662 22.4667V21.8667ZM27.8591 22.4667C28.0248 22.4667 28.1591 22.3324 28.1591 22.1667C28.1591 22.001 28.0248 21.8667 27.8591 21.8667V22.4667ZM15.6523 23.0025C15.4866 23.0025 15.3523 23.1368 15.3523 23.3025C15.3523 23.4682 15.4866 23.6025 15.6523 23.6025V23.0025ZM26.9949 23.6025C27.1606 23.6025 27.2949 23.4682 27.2949 23.3025C27.2949 23.1368 27.1606 23.0025 26.9949 23.0025V23.6025ZM15.9215 24.0981C15.7558 24.0981 15.6215 24.2325 15.6215 24.3981C15.6215 24.5638 15.7558 24.6981 15.9215 24.6981V24.0981ZM26.4539 24.6981C26.6195 24.6981 26.7539 24.5638 26.7539 24.3981C26.7539 24.2325 26.6195 24.0981 26.4539 24.0981V24.6981ZM16.7319 25.1937C16.5662 25.1937 16.4319 25.328 16.4319 25.4937C16.4319 25.6594 16.5662 25.7937 16.7319 25.7937V25.1937ZM25.6439 25.7937C25.8096 25.7937 25.9439 25.6594 25.9439 25.4937C25.9439 25.328 25.8096 25.1937 25.6439 25.1937V25.7937ZM17.8129 26.5631C17.6472 26.5631 17.5129 26.6975 17.5129 26.8631C17.5129 27.0288 17.6472 27.1631 17.8129 27.1631V26.5631ZM25.1045 27.1631C25.2702 27.1631 25.4045 27.0288 25.4045 26.8631C25.4045 26.6975 25.2702 26.5631 25.1045 26.5631V27.1631ZM18.6218 27.9327C18.4562 27.9327 18.3218 28.067 18.3218 28.2327C18.3218 28.3984 18.4562 28.5327 18.6218 28.5327V27.9327ZM24.2931 28.5327C24.4588 28.5327 24.5931 28.3984 24.5931 28.2327C24.5931 28.067 24.4588 27.9327 24.2931 27.9327V28.5327ZM19.4322 29.3021C19.2665 29.3021 19.1322 29.4365 19.1322 29.6021C19.1322 29.7678 19.2665 29.9021 19.4322 29.9021V29.3021ZM23.2131 29.9021C23.3788 29.9021 23.5131 29.7678 23.5131 29.6021C23.5131 29.4365 23.3788 29.3021 23.2131 29.3021V29.9021ZM19.1631 9.90774H24.0242V9.30774H19.1631V9.90774ZM20.2427 8.53828H22.9432V7.93828H20.2427V8.53828ZM18.0821 11.0034H24.8336V10.4034H18.0821V11.0034ZM17.0025 12.3728H25.6445V11.7728H17.0025V12.3728ZM16.1921 13.7423H26.4545V13.1423H16.1921V13.7423ZM15.6523 14.8379H26.7248V14.2379H15.6523V14.8379ZM15.3817 16.2074H27.3307V15.6074H15.3817V16.2074ZM14.8419 17.303H27.5348V16.703H14.8419V17.303ZM14.5713 18.3985C14.5814 18.3985 14.5915 18.3985 14.6015 18.3985C14.6116 18.3985 14.6217 18.3985 14.6317 18.3985C14.6418 18.3985 14.6518 18.3985 14.6619 18.3985C14.6719 18.3985 14.6819 18.3985 14.692 18.3985C14.702 18.3985 14.712 18.3985 14.722 18.3985C14.732 18.3985 14.742 18.3985 14.752 18.3985C14.762 18.3985 14.7719 18.3985 14.7819 18.3985C14.7919 18.3985 14.8018 18.3985 14.8118 18.3985C14.8217 18.3985 14.8317 18.3985 14.8416 18.3985C14.8515 18.3985 14.8614 18.3985 14.8714 18.3985C14.8813 18.3985 14.8912 18.3985 14.9011 18.3985C14.911 18.3985 14.9208 18.3985 14.9307 18.3985C14.9406 18.3985 14.9505 18.3985 14.9603 18.3985C14.9702 18.3985 14.98 18.3985 14.9899 18.3985C14.9997 18.3985 15.0095 18.3985 15.0194 18.3985C15.0292 18.3985 15.039 18.3985 15.0488 18.3985C15.0586 18.3985 15.0684 18.3985 15.0782 18.3985C15.088 18.3985 15.0978 18.3985 15.1076 18.3985C15.1173 18.3985 15.1271 18.3985 15.1368 18.3985C15.1466 18.3985 15.1563 18.3985 15.1661 18.3985C15.1758 18.3985 15.1856 18.3985 15.1953 18.3985C15.205 18.3985 15.2147 18.3985 15.2244 18.3985C15.2341 18.3985 15.2438 18.3985 15.2535 18.3985C15.2632 18.3985 15.2729 18.3985 15.2825 18.3985C15.2922 18.3985 15.3019 18.3985 15.3115 18.3985C15.3212 18.3985 15.3308 18.3985 15.3405 18.3985C15.3501 18.3985 15.3597 18.3985 15.3693 18.3985C15.379 18.3985 15.3886 18.3985 15.3982 18.3985C15.4078 18.3985 15.4174 18.3985 15.427 18.3985C15.4365 18.3985 15.4461 18.3985 15.4557 18.3985C15.4653 18.3985 15.4748 18.3985 15.4844 18.3985C15.4939 18.3985 15.5035 18.3985 15.513 18.3985C15.5226 18.3985 15.5321 18.3985 15.5416 18.3985C15.5511 18.3985 15.5607 18.3985 15.5702 18.3985C15.5797 18.3985 15.5892 18.3985 15.5987 18.3985C15.6081 18.3985 15.6176 18.3985 15.6271 18.3985C15.6366 18.3985 15.646 18.3985 15.6555 18.3985C15.665 18.3985 15.6744 18.3985 15.6839 18.3985C15.6933 18.3985 15.7027 18.3985 15.7122 18.3985C15.7216 18.3985 15.731 18.3985 15.7404 18.3985C15.7498 18.3985 15.7592 18.3985 15.7686 18.3985C15.778 18.3985 15.7874 18.3985 15.7968 18.3985C15.8062 18.3985 15.8155 18.3985 15.8249 18.3985C15.8343 18.3985 15.8436 18.3985 15.853 18.3985C15.8623 18.3985 15.8717 18.3985 15.881 18.3985C15.8903 18.3985 15.8997 18.3985 15.909 18.3985C15.9183 18.3985 15.9276 18.3985 15.9369 18.3985C15.9462 18.3985 15.9555 18.3985 15.9648 18.3985C15.9741 18.3985 15.9834 18.3985 15.9927 18.3985C16.0019 18.3985 16.0112 18.3985 16.0205 18.3985C16.0297 18.3985 16.039 18.3985 16.0482 18.3985C16.0574 18.3985 16.0667 18.3985 16.0759 18.3985C16.0851 18.3985 16.0944 18.3985 16.1036 18.3985C16.1128 18.3985 16.122 18.3985 16.1312 18.3985C16.1404 18.3985 16.1496 18.3985 16.1588 18.3985C16.168 18.3985 16.1771 18.3985 16.1863 18.3985C16.1955 18.3985 16.2046 18.3985 16.2138 18.3985C16.223 18.3985 16.2321 18.3985 16.2413 18.3985C16.2504 18.3985 16.2595 18.3985 16.2687 18.3985C16.2778 18.3985 16.2869 18.3985 16.296 18.3985C16.3051 18.3985 16.3142 18.3985 16.3233 18.3985C16.3324 18.3985 16.3415 18.3985 16.3506 18.3985C16.3597 18.3985 16.3688 18.3985 16.3779 18.3985C16.3869 18.3985 16.396 18.3985 16.405 18.3985C16.4141 18.3985 16.4232 18.3985 16.4322 18.3985C16.4412 18.3985 16.4503 18.3985 16.4593 18.3985C16.4683 18.3985 16.4774 18.3985 16.4864 18.3985C16.4954 18.3985 16.5044 18.3985 16.5134 18.3985C16.5224 18.3985 16.5314 18.3985 16.5404 18.3985C16.5494 18.3985 16.5584 18.3985 16.5673 18.3985C16.5763 18.3985 16.5853 18.3985 16.5943 18.3985C16.6032 18.3985 16.6122 18.3985 16.6211 18.3985C16.6301 18.3985 16.639 18.3985 16.6479 18.3985C16.6569 18.3985 16.6658 18.3985 16.6747 18.3985C16.6837 18.3985 16.6926 18.3985 16.7015 18.3985C16.7104 18.3985 16.7193 18.3985 16.7282 18.3985C16.7371 18.3985 16.746 18.3985 16.7549 18.3985C16.7637 18.3985 16.7726 18.3985 16.7815 18.3985C16.7904 18.3985 16.7992 18.3985 16.8081 18.3985C16.8169 18.3985 16.8258 18.3985 16.8346 18.3985C16.8435 18.3985 16.8523 18.3985 16.8611 18.3985C16.87 18.3985 16.8788 18.3985 16.8876 18.3985C16.8964 18.3985 16.9053 18.3985 16.9141 18.3985C16.9229 18.3985 16.9317 18.3985 16.9405 18.3985C16.9493 18.3985 16.9581 18.3985 16.9668 18.3985C16.9756 18.3985 16.9844 18.3985 16.9932 18.3985C17.0019 18.3985 17.0107 18.3985 17.0195 18.3985C17.0282 18.3985 17.037 18.3985 17.0457 18.3985C17.0545 18.3985 17.0632 18.3985 17.0719 18.3985C17.0807 18.3985 17.0894 18.3985 17.0981 18.3985C17.1068 18.3985 17.1155 18.3985 17.1243 18.3985C17.133 18.3985 17.1417 18.3985 17.1504 18.3985C17.1591 18.3985 17.1678 18.3985 17.1764 18.3985C17.1851 18.3985 17.1938 18.3985 17.2025 18.3985C17.2112 18.3985 17.2198 18.3985 17.2285 18.3985C17.2371 18.3985 17.2458 18.3985 17.2545 18.3985C17.2631 18.3985 17.2717 18.3985 17.2804 18.3985C17.289 18.3985 17.2977 18.3985 17.3063 18.3985C17.3149 18.3985 17.3235 18.3985 17.3322 18.3985C17.3408 18.3985 17.3494 18.3985 17.358 18.3985C17.3666 18.3985 17.3752 18.3985 17.3838 18.3985C17.3924 18.3985 17.401 18.3985 17.4095 18.3985C17.4181 18.3985 17.4267 18.3985 17.4353 18.3985C17.4439 18.3985 17.4524 18.3985 17.461 18.3985C17.4695 18.3985 17.4781 18.3985 17.4866 18.3985C17.4952 18.3985 17.5037 18.3985 17.5123 18.3985C17.5208 18.3985 17.5293 18.3985 17.5379 18.3985C17.5464 18.3985 17.5549 18.3985 17.5634 18.3985C17.572 18.3985 17.5805 18.3985 17.589 18.3985C17.5975 18.3985 17.606 18.3985 17.6145 18.3985C17.623 18.3985 17.6315 18.3985 17.64 18.3985C17.6484 18.3985 17.6569 18.3985 17.6654 18.3985C17.6739 18.3985 17.6823 18.3985 17.6908 18.3985C17.6993 18.3985 17.7077 18.3985 17.7162 18.3985C17.7246 18.3985 17.7331 18.3985 17.7415 18.3985C17.75 18.3985 17.7584 18.3985 17.7668 18.3985C17.7753 18.3985 17.7837 18.3985 17.7921 18.3985C17.8006 18.3985 17.809 18.3985 17.8174 18.3985C17.8258 18.3985 17.8342 18.3985 17.8426 18.3985C17.851 18.3985 17.8594 18.3985 17.8678 18.3985C17.8762 18.3985 17.8846 18.3985 17.893 18.3985C17.9014 18.3985 17.9097 18.3985 17.9181 18.3985C17.9265 18.3985 17.9349 18.3985 17.9432 18.3985C17.9516 18.3985 17.96 18.3985 17.9683 18.3985C17.9767 18.3985 17.985 18.3985 17.9934 18.3985C18.0017 18.3985 18.01 18.3985 18.0184 18.3985C18.0267 18.3985 18.0351 18.3985 18.0434 18.3985C18.0517 18.3985 18.06 18.3985 18.0683 18.3985C18.0767 18.3985 18.085 18.3985 18.0933 18.3985C18.1016 18.3985 18.1099 18.3985 18.1182 18.3985C18.1265 18.3985 18.1348 18.3985 18.1431 18.3985C18.1514 18.3985 18.1597 18.3985 18.1679 18.3985C18.1762 18.3985 18.1845 18.3985 18.1928 18.3985C18.201 18.3985 18.2093 18.3985 18.2176 18.3985C18.2258 18.3985 18.2341 18.3985 18.2424 18.3985C18.2506 18.3985 18.2589 18.3985 18.2671 18.3985C18.2753 18.3985 18.2836 18.3985 18.2918 18.3985C18.3001 18.3985 18.3083 18.3985 18.3165 18.3985C18.3248 18.3985 18.333 18.3985 18.3412 18.3985C18.3494 18.3985 18.3576 18.3985 18.3659 18.3985C18.3741 18.3985 18.3823 18.3985 18.3905 18.3985C18.3987 18.3985 18.4069 18.3985 18.4151 18.3985C18.4233 18.3985 18.4315 18.3985 18.4396 18.3985C18.4478 18.3985 18.456 18.3985 18.4642 18.3985C18.4724 18.3985 18.4805 18.3985 18.4887 18.3985C18.4969 18.3985 18.5051 18.3985 18.5132 18.3985C18.5214 18.3985 18.5295 18.3985 18.5377 18.3985C18.5459 18.3985 18.554 18.3985 18.5622 18.3985C18.5703 18.3985 18.5784 18.3985 18.5866 18.3985C18.5947 18.3985 18.6029 18.3985 18.611 18.3985C18.6191 18.3985 18.6272 18.3985 18.6354 18.3985C18.6435 18.3985 18.6516 18.3985 18.6597 18.3985C18.6679 18.3985 18.676 18.3985 18.6841 18.3985C18.6922 18.3985 18.7003 18.3985 18.7084 18.3985C18.7165 18.3985 18.7246 18.3985 18.7327 18.3985C18.7408 18.3985 18.7489 18.3985 18.757 18.3985C18.765 18.3985 18.7731 18.3985 18.7812 18.3985C18.7893 18.3985 18.7974 18.3985 18.8054 18.3985C18.8135 18.3985 18.8216 18.3985 18.8296 18.3985C18.8377 18.3985 18.8458 18.3985 18.8538 18.3985C18.8619 18.3985 18.8699 18.3985 18.878 18.3985C18.886 18.3985 18.8941 18.3985 18.9021 18.3985C18.9102 18.3985 18.9182 18.3985 18.9263 18.3985C18.9343 18.3985 18.9423 18.3985 18.9504 18.3985C18.9584 18.3985 18.9664 18.3985 18.9745 18.3985C18.9825 18.3985 18.9905 18.3985 18.9985 18.3985C19.0065 18.3985 19.0146 18.3985 19.0226 18.3985C19.0306 18.3985 19.0386 18.3985 19.0466 18.3985C19.0546 18.3985 19.0626 18.3985 19.0706 18.3985C19.0786 18.3985 19.0866 18.3985 19.0946 18.3985C19.1026 18.3985 19.1106 18.3985 19.1186 18.3985C19.1265 18.3985 19.1345 18.3985 19.1425 18.3985C19.1505 18.3985 19.1585 18.3985 19.1664 18.3985C19.1744 18.3985 19.1824 18.3985 19.1904 18.3985C19.1983 18.3985 19.2063 18.3985 19.2143 18.3985C19.2222 18.3985 19.2302 18.3985 19.2381 18.3985C19.2461 18.3985 19.254 18.3985 19.262 18.3985C19.27 18.3985 19.2779 18.3985 19.2858 18.3985C19.2938 18.3985 19.3017 18.3985 19.3097 18.3985C19.3176 18.3985 19.3256 18.3985 19.3335 18.3985C19.3414 18.3985 19.3494 18.3985 19.3573 18.3985C19.3652 18.3985 19.3731 18.3985 19.3811 18.3985C19.389 18.3985 19.3969 18.3985 19.4048 18.3985C19.4127 18.3985 19.4207 18.3985 19.4286 18.3985C19.4365 18.3985 19.4444 18.3985 19.4523 18.3985C19.4602 18.3985 19.4681 18.3985 19.476 18.3985C19.4839 18.3985 19.4918 18.3985 19.4997 18.3985C19.5076 18.3985 19.5155 18.3985 19.5234 18.3985C19.5313 18.3985 19.5392 18.3985 19.5471 18.3985C19.555 18.3985 19.5629 18.3985 19.5707 18.3985C19.5786 18.3985 19.5865 18.3985 19.5944 18.3985C19.6023 18.3985 19.6101 18.3985 19.618 18.3985C19.6259 18.3985 19.6337 18.3985 19.6416 18.3985C19.6495 18.3985 19.6574 18.3985 19.6652 18.3985C19.6731 18.3985 19.6809 18.3985 19.6888 18.3985C19.6967 18.3985 19.7045 18.3985 19.7124 18.3985C19.7202 18.3985 19.7281 18.3985 19.7359 18.3985C19.7438 18.3985 19.7516 18.3985 19.7595 18.3985C19.7673 18.3985 19.7752 18.3985 19.783 18.3985C19.7909 18.3985 19.7987 18.3985 19.8066 18.3985C19.8144 18.3985 19.8222 18.3985 19.8301 18.3985C19.8379 18.3985 19.8457 18.3985 19.8536 18.3985C19.8614 18.3985 19.8692 18.3985 19.8771 18.3985C19.8849 18.3985 19.8927 18.3985 19.9005 18.3985C19.9084 18.3985 19.9162 18.3985 19.924 18.3985C19.9318 18.3985 19.9396 18.3985 19.9474 18.3985C19.9553 18.3985 19.9631 18.3985 19.9709 18.3985C19.9787 18.3985 19.9865 18.3985 19.9943 18.3985C20.0021 18.3985 20.0099 18.3985 20.0177 18.3985C20.0255 18.3985 20.0334 18.3985 20.0412 18.3985C20.049 18.3985 20.0568 18.3985 20.0646 18.3985C20.0724 18.3985 20.0802 18.3985 20.088 18.3985C20.0957 18.3985 20.1035 18.3985 20.1113 18.3985C20.1191 18.3985 20.1269 18.3985 20.1347 18.3985C20.1425 18.3985 20.1503 18.3985 20.1581 18.3985C20.1659 18.3985 20.1736 18.3985 20.1814 18.3985C20.1892 18.3985 20.197 18.3985 20.2048 18.3985C20.2126 18.3985 20.2203 18.3985 20.2281 18.3985C20.2359 18.3985 20.2437 18.3985 20.2514 18.3985C20.2592 18.3985 20.267 18.3985 20.2748 18.3985C20.2825 18.3985 20.2903 18.3985 20.2981 18.3985C20.3058 18.3985 20.3136 18.3985 20.3214 18.3985C20.3292 18.3985 20.3369 18.3985 20.3447 18.3985C20.3524 18.3985 20.3602 18.3985 20.368 18.3985C20.3757 18.3985 20.3835 18.3985 20.3913 18.3985C20.399 18.3985 20.4068 18.3985 20.4145 18.3985C20.4223 18.3985 20.4301 18.3985 20.4378 18.3985C20.4456 18.3985 20.4533 18.3985 20.4611 18.3985C20.4688 18.3985 20.4766 18.3985 20.4843 18.3985C20.4921 18.3985 20.4998 18.3985 20.5076 18.3985C20.5153 18.3985 20.5231 18.3985 20.5308 18.3985C20.5386 18.3985 20.5463 18.3985 20.5541 18.3985C20.5618 18.3985 20.5696 18.3985 20.5773 18.3985C20.5851 18.3985 20.5928 18.3985 20.6006 18.3985C20.6083 18.3985 20.616 18.3985 20.6238 18.3985C20.6315 18.3985 20.6393 18.3985 20.647 18.3985C20.6547 18.3985 20.6625 18.3985 20.6702 18.3985C20.678 18.3985 20.6857 18.3985 20.6934 18.3985C20.7012 18.3985 20.7089 18.3985 20.7166 18.3985C20.7244 18.3985 20.7321 18.3985 20.7399 18.3985C20.7476 18.3985 20.7553 18.3985 20.7631 18.3985C20.7708 18.3985 20.7785 18.3985 20.7863 18.3985C20.794 18.3985 20.8017 18.3985 20.8095 18.3985C20.8172 18.3985 20.8249 18.3985 20.8326 18.3985C20.8404 18.3985 20.8481 18.3985 20.8558 18.3985C20.8636 18.3985 20.8713 18.3985 20.879 18.3985C20.8868 18.3985 20.8945 18.3985 20.9022 18.3985C20.9099 18.3985 20.9177 18.3985 20.9254 18.3985C20.9331 18.3985 20.9409 18.3985 20.9486 18.3985C20.9563 18.3985 20.964 18.3985 20.9718 18.3985C20.9795 18.3985 20.9872 18.3985 20.995 18.3985C21.0027 18.3985 21.0104 18.3985 21.0181 18.3985C21.0259 18.3985 21.0336 18.3985 21.0413 18.3985C21.049 18.3985 21.0568 18.3985 21.0645 18.3985C21.0722 18.3985 21.0799 18.3985 21.0877 18.3985C21.0954 18.3985 21.1031 18.3985 21.1108 18.3985C21.1186 18.3985 21.1263 18.3985 21.134 18.3985C21.1417 18.3985 21.1495 18.3985 21.1572 18.3985C21.1649 18.3985 21.1727 18.3985 21.1804 18.3985C21.1881 18.3985 21.1958 18.3985 21.2036 18.3985C21.2113 18.3985 21.219 18.3985 21.2267 18.3985C21.2345 18.3985 21.2422 18.3985 21.2499 18.3985C21.2576 18.3985 21.2654 18.3985 21.2731 18.3985C21.2808 18.3985 21.2886 18.3985 21.2963 18.3985C21.304 18.3985 21.3117 18.3985 21.3195 18.3985C21.3272 18.3985 21.3349 18.3985 21.3427 18.3985C21.3504 18.3985 21.3581 18.3985 21.3658 18.3985C21.3736 18.3985 21.3813 18.3985 21.389 18.3985C21.3968 18.3985 21.4045 18.3985 21.4122 18.3985C21.42 18.3985 21.4277 18.3985 21.4354 18.3985C21.4432 18.3985 21.4509 18.3985 21.4586 18.3985C21.4664 18.3985 21.4741 18.3985 21.4818 18.3985C21.4896 18.3985 21.4973 18.3985 21.505 18.3985C21.5128 18.3985 21.5205 18.3985 21.5283 18.3985C21.536 18.3985 21.5437 18.3985 21.5515 18.3985C21.5592 18.3985 21.5669 18.3985 21.5747 18.3985C21.5824 18.3985 21.5902 18.3985 21.5979 18.3985C21.6056 18.3985 21.6134 18.3985 21.6211 18.3985C21.6289 18.3985 21.6366 18.3985 21.6444 18.3985C21.6521 18.3985 21.6599 18.3985 21.6676 18.3985C21.6754 18.3985 21.6831 18.3985 21.6908 18.3985C21.6986 18.3985 21.7063 18.3985 21.7141 18.3985C21.7218 18.3985 21.7296 18.3985 21.7374 18.3985C21.7451 18.3985 21.7529 18.3985 21.7606 18.3985C21.7684 18.3985 21.7761 18.3985 21.7839 18.3985C21.7916 18.3985 21.7994 18.3985 21.8071 18.3985C21.8149 18.3985 21.8227 18.3985 21.8304 18.3985C21.8382 18.3985 21.8459 18.3985 21.8537 18.3985C21.8615 18.3985 21.8692 18.3985 21.877 18.3985C21.8848 18.3985 21.8925 18.3985 21.9003 18.3985C21.9081 18.3985 21.9158 18.3985 21.9236 18.3985C21.9314 18.3985 21.9392 18.3985 21.9469 18.3985C21.9547 18.3985 21.9625 18.3985 21.9702 18.3985C21.978 18.3985 21.9858 18.3985 21.9936 18.3985C22.0014 18.3985 22.0091 18.3985 22.0169 18.3985C22.0247 18.3985 22.0325 18.3985 22.0403 18.3985C22.048 18.3985 22.0558 18.3985 22.0636 18.3985C22.0714 18.3985 22.0792 18.3985 22.087 18.3985C22.0948 18.3985 22.1026 18.3985 22.1104 18.3985C22.1181 18.3985 22.1259 18.3985 22.1337 18.3985C22.1415 18.3985 22.1493 18.3985 22.1571 18.3985C22.1649 18.3985 22.1727 18.3985 22.1805 18.3985C22.1883 18.3985 22.1961 18.3985 22.2039 18.3985C22.2117 18.3985 22.2196 18.3985 22.2274 18.3985C22.2352 18.3985 22.243 18.3985 22.2508 18.3985C22.2586 18.3985 22.2664 18.3985 22.2742 18.3985C22.2821 18.3985 22.2899 18.3985 22.2977 18.3985C22.3055 18.3985 22.3133 18.3985 22.3212 18.3985C22.329 18.3985 22.3368 18.3985 22.3446 18.3985C22.3525 18.3985 22.3603 18.3985 22.3681 18.3985C22.376 18.3985 22.3838 18.3985 22.3916 18.3985C22.3995 18.3985 22.4073 18.3985 22.4151 18.3985C22.423 18.3985 22.4308 18.3985 22.4387 18.3985C22.4465 18.3985 22.4543 18.3985 22.4622 18.3985C22.47 18.3985 22.4779 18.3985 22.4857 18.3985C22.4936 18.3985 22.5014 18.3985 22.5093 18.3985C22.5172 18.3985 22.525 18.3985 22.5329 18.3985C22.5407 18.3985 22.5486 18.3985 22.5565 18.3985C22.5643 18.3985 22.5722 18.3985 22.5801 18.3985C22.5879 18.3985 22.5958 18.3985 22.6037 18.3985C22.6116 18.3985 22.6194 18.3985 22.6273 18.3985C22.6352 18.3985 22.6431 18.3985 22.651 18.3985C22.6588 18.3985 22.6667 18.3985 22.6746 18.3985C22.6825 18.3985 22.6904 18.3985 22.6983 18.3985C22.7062 18.3985 22.7141 18.3985 22.722 18.3985C22.7299 18.3985 22.7378 18.3985 22.7457 18.3985C22.7536 18.3985 22.7615 18.3985 22.7694 18.3985C22.7773 18.3985 22.7852 18.3985 22.7931 18.3985C22.801 18.3985 22.8089 18.3985 22.8169 18.3985C22.8248 18.3985 22.8327 18.3985 22.8406 18.3985C22.8486 18.3985 22.8565 18.3985 22.8644 18.3985C22.8723 18.3985 22.8803 18.3985 22.8882 18.3985C22.8961 18.3985 22.9041 18.3985 22.912 18.3985C22.92 18.3985 22.9279 18.3985 22.9358 18.3985C22.9438 18.3985 22.9517 18.3985 22.9597 18.3985C22.9676 18.3985 22.9756 18.3985 22.9836 18.3985C22.9915 18.3985 22.9995 18.3985 23.0074 18.3985C23.0154 18.3985 23.0234 18.3985 23.0313 18.3985C23.0393 18.3985 23.0473 18.3985 23.0552 18.3985C23.0632 18.3985 23.0712 18.3985 23.0792 18.3985C23.0872 18.3985 23.0951 18.3985 23.1031 18.3985C23.1111 18.3985 23.1191 18.3985 23.1271 18.3985C23.1351 18.3985 23.1431 18.3985 23.1511 18.3985C23.1591 18.3985 23.1671 18.3985 23.1751 18.3985C23.1831 18.3985 23.1911 18.3985 23.1991 18.3985C23.2071 18.3985 23.2151 18.3985 23.2232 18.3985C23.2312 18.3985 23.2392 18.3985 23.2472 18.3985C23.2553 18.3985 23.2633 18.3985 23.2713 18.3985C23.2793 18.3985 23.2874 18.3985 23.2954 18.3985C23.3035 18.3985 23.3115 18.3985 23.3195 18.3985C23.3276 18.3985 23.3356 18.3985 23.3437 18.3985C23.3517 18.3985 23.3598 18.3985 23.3679 18.3985C23.3759 18.3985 23.384 18.3985 23.392 18.3985C23.4001 18.3985 23.4082 18.3985 23.4163 18.3985C23.4243 18.3985 23.4324 18.3985 23.4405 18.3985C23.4486 18.3985 23.4566 18.3985 23.4647 18.3985C23.4728 18.3985 23.4809 18.3985 23.489 18.3985C23.4971 18.3985 23.5052 18.3985 23.5133 18.3985C23.5214 18.3985 23.5295 18.3985 23.5376 18.3985C23.5457 18.3985 23.5538 18.3985 23.562 18.3985C23.5701 18.3985 23.5782 18.3985 23.5863 18.3985C23.5944 18.3985 23.6026 18.3985 23.6107 18.3985C23.6188 18.3985 23.627 18.3985 23.6351 18.3985C23.6432 18.3985 23.6514 18.3985 23.6595 18.3985C23.6677 18.3985 23.6758 18.3985 23.684 18.3985C23.6921 18.3985 23.7003 18.3985 23.7085 18.3985C23.7166 18.3985 23.7248 18.3985 23.733 18.3985C23.7411 18.3985 23.7493 18.3985 23.7575 18.3985C23.7657 18.3985 23.7739 18.3985 23.782 18.3985C23.7902 18.3985 23.7984 18.3985 23.8066 18.3985C23.8148 18.3985 23.823 18.3985 23.8312 18.3985C23.8394 18.3985 23.8476 18.3985 23.8558 18.3985C23.864 18.3985 23.8723 18.3985 23.8805 18.3985C23.8887 18.3985 23.8969 18.3985 23.9052 18.3985C23.9134 18.3985 23.9216 18.3985 23.9299 18.3985C23.9381 18.3985 23.9463 18.3985 23.9546 18.3985C23.9628 18.3985 23.9711 18.3985 23.9793 18.3985C23.9876 18.3985 23.9958 18.3985 24.0041 18.3985C24.0124 18.3985 24.0206 18.3985 24.0289 18.3985C24.0372 18.3985 24.0455 18.3985 24.0537 18.3985C24.062 18.3985 24.0703 18.3985 24.0786 18.3985C24.0869 18.3985 24.0952 18.3985 24.1035 18.3985C24.1118 18.3985 24.1201 18.3985 24.1284 18.3985C24.1367 18.3985 24.145 18.3985 24.1533 18.3985C24.1617 18.3985 24.17 18.3985 24.1783 18.3985C24.1866 18.3985 24.195 18.3985 24.2033 18.3985C24.2116 18.3985 24.22 18.3985 24.2283 18.3985C24.2367 18.3985 24.245 18.3985 24.2534 18.3985C24.2617 18.3985 24.2701 18.3985 24.2785 18.3985C24.2868 18.3985 24.2952 18.3985 24.3036 18.3985C24.3119 18.3985 24.3203 18.3985 24.3287 18.3985C24.3371 18.3985 24.3455 18.3985 24.3539 18.3985C24.3623 18.3985 24.3707 18.3985 24.3791 18.3985C24.3875 18.3985 24.3959 18.3985 24.4043 18.3985C24.4127 18.3985 24.4211 18.3985 24.4296 18.3985C24.438 18.3985 24.4464 18.3985 24.4548 18.3985C24.4633 18.3985 24.4717 18.3985 24.4802 18.3985C24.4886 18.3985 24.497 18.3985 24.5055 18.3985C24.514 18.3985 24.5224 18.3985 24.5309 18.3985C24.5393 18.3985 24.5478 18.3985 24.5563 18.3985C24.5648 18.3985 24.5732 18.3985 24.5817 18.3985C24.5902 18.3985 24.5987 18.3985 24.6072 18.3985C24.6157 18.3985 24.6242 18.3985 24.6327 18.3985C24.6412 18.3985 24.6497 18.3985 24.6582 18.3985C24.6668 18.3985 24.6753 18.3985 24.6838 18.3985C24.6923 18.3985 24.7009 18.3985 24.7094 18.3985C24.7179 18.3985 24.7265 18.3985 24.735 18.3985C24.7436 18.3985 24.7521 18.3985 24.7607 18.3985C24.7693 18.3985 24.7778 18.3985 24.7864 18.3985C24.795 18.3985 24.8036 18.3985 24.8121 18.3985C24.8207 18.3985 24.8293 18.3985 24.8379 18.3985C24.8465 18.3985 24.8551 18.3985 24.8637 18.3985C24.8723 18.3985 24.8809 18.3985 24.8895 18.3985C24.8981 18.3985 24.9068 18.3985 24.9154 18.3985C24.924 18.3985 24.9327 18.3985 24.9413 18.3985C24.9499 18.3985 24.9586 18.3985 24.9672 18.3985C24.9759 18.3985 24.9845 18.3985 24.9932 18.3985C25.0019 18.3985 25.0105 18.3985 25.0192 18.3985C25.0279 18.3985 25.0366 18.3985 25.0452 18.3985C25.0539 18.3985 25.0626 18.3985 25.0713 18.3985C25.08 18.3985 25.0887 18.3985 25.0974 18.3985C25.1061 18.3985 25.1149 18.3985 25.1236 18.3985C25.1323 18.3985 25.141 18.3985 25.1498 18.3985C25.1585 18.3985 25.1672 18.3985 25.176 18.3985C25.1847 18.3985 25.1935 18.3985 25.2022 18.3985C25.211 18.3985 25.2198 18.3985 25.2285 18.3985C25.2373 18.3985 25.2461 18.3985 25.2549 18.3985C25.2636 18.3985 25.2724 18.3985 25.2812 18.3985C25.29 18.3985 25.2988 18.3985 25.3076 18.3985C25.3164 18.3985 25.3252 18.3985 25.3341 18.3985C25.3429 18.3985 25.3517 18.3985 25.3605 18.3985C25.3694 18.3985 25.3782 18.3985 25.3871 18.3985C25.3959 18.3985 25.4047 18.3985 25.4136 18.3985C25.4225 18.3985 25.4313 18.3985 25.4402 18.3985C25.4491 18.3985 25.4579 18.3985 25.4668 18.3985C25.4757 18.3985 25.4846 18.3985 25.4935 18.3985C25.5024 18.3985 25.5113 18.3985 25.5202 18.3985C25.5291 18.3985 25.538 18.3985 25.547 18.3985C25.5559 18.3985 25.5648 18.3985 25.5737 18.3985C25.5827 18.3985 25.5916 18.3985 25.6006 18.3985C25.6095 18.3985 25.6185 18.3985 25.6274 18.3985C25.6364 18.3985 25.6454 18.3985 25.6543 18.3985C25.6633 18.3985 25.6723 18.3985 25.6813 18.3985C25.6903 18.3985 25.6993 18.3985 25.7083 18.3985C25.7173 18.3985 25.7263 18.3985 25.7353 18.3985C25.7443 18.3985 25.7533 18.3985 25.7624 18.3985C25.7714 18.3985 25.7804 18.3985 25.7895 18.3985C25.7985 18.3985 25.8076 18.3985 25.8166 18.3985C25.8257 18.3985 25.8348 18.3985 25.8438 18.3985C25.8529 18.3985 25.862 18.3985 25.8711 18.3985C25.8802 18.3985 25.8892 18.3985 25.8983 18.3985C25.9074 18.3985 25.9166 18.3985 25.9257 18.3985C25.9348 18.3985 25.9439 18.3985 25.953 18.3985C25.9622 18.3985 25.9713 18.3985 25.9804 18.3985C25.9896 18.3985 25.9987 18.3985 26.0079 18.3985C26.017 18.3985 26.0262 18.3985 26.0354 18.3985C26.0445 18.3985 26.0537 18.3985 26.0629 18.3985C26.0721 18.3985 26.0813 18.3985 26.0905 18.3985C26.0997 18.3985 26.1089 18.3985 26.1181 18.3985C26.1273 18.3985 26.1365 18.3985 26.1458 18.3985C26.155 18.3985 26.1642 18.3985 26.1735 18.3985C26.1827 18.3985 26.192 18.3985 26.2012 18.3985C26.2105 18.3985 26.2198 18.3985 26.229 18.3985C26.2383 18.3985 26.2476 18.3985 26.2569 18.3985C26.2662 18.3985 26.2755 18.3985 26.2848 18.3985C26.2941 18.3985 26.3034 18.3985 26.3127 18.3985C26.322 18.3985 26.3313 18.3985 26.3407 18.3985C26.35 18.3985 26.3594 18.3985 26.3687 18.3985C26.3781 18.3985 26.3874 18.3985 26.3968 18.3985C26.4061 18.3985 26.4155 18.3985 26.4249 18.3985C26.4343 18.3985 26.4437 18.3985 26.4531 18.3985C26.4625 18.3985 26.4719 18.3985 26.4813 18.3985C26.4907 18.3985 26.5001 18.3985 26.5095 18.3985C26.519 18.3985 26.5284 18.3985 26.5378 18.3985C26.5473 18.3985 26.5567 18.3985 26.5662 18.3985C26.5756 18.3985 26.5851 18.3985 26.5946 18.3985C26.6041 18.3985 26.6135 18.3985 26.623 18.3985C26.6325 18.3985 26.642 18.3985 26.6515 18.3985C26.661 18.3985 26.6705 18.3985 26.6801 18.3985C26.6896 18.3985 26.6991 18.3985 26.7087 18.3985C26.7182 18.3985 26.7277 18.3985 26.7373 18.3985C26.7469 18.3985 26.7564 18.3985 26.766 18.3985C26.7756 18.3985 26.7851 18.3985 26.7947 18.3985C26.8043 18.3985 26.8139 18.3985 26.8235 18.3985C26.8331 18.3985 26.8427 18.3985 26.8523 18.3985C26.862 18.3985 26.8716 18.3985 26.8812 18.3985C26.8909 18.3985 26.9005 18.3985 26.9102 18.3985C26.9198 18.3985 26.9295 18.3985 26.9392 18.3985C26.9488 18.3985 26.9585 18.3985 26.9682 18.3985C26.9779 18.3985 26.9876 18.3985 26.9973 18.3985C27.007 18.3985 27.0167 18.3985 27.0264 18.3985C27.0361 18.3985 27.0459 18.3985 27.0556 18.3985C27.0653 18.3985 27.0751 18.3985 27.0848 18.3985C27.0946 18.3985 27.1044 18.3985 27.1141 18.3985C27.1239 18.3985 27.1337 18.3985 27.1435 18.3985C27.1533 18.3985 27.1631 18.3985 27.1729 18.3985C27.1827 18.3985 27.1925 18.3985 27.2023 18.3985C27.2121 18.3985 27.222 18.3985 27.2318 18.3985C27.2417 18.3985 27.2515 18.3985 27.2614 18.3985C27.2712 18.3985 27.2811 18.3985 27.291 18.3985C27.3008 18.3985 27.3107 18.3985 27.3206 18.3985C27.3305 18.3985 27.3404 18.3985 27.3503 18.3985C27.3602 18.3985 27.3702 18.3985 27.3801 18.3985C27.39 18.3985 27.4 18.3985 27.4099 18.3985C27.4199 18.3985 27.4298 18.3985 27.4398 18.3985C27.4497 18.3985 27.4597 18.3985 27.4697 18.3985C27.4797 18.3985 27.4897 18.3985 27.4997 18.3985C27.5097 18.3985 27.5197 18.3985 27.5297 18.3985C27.5397 18.3985 27.5498 18.3985 27.5598 18.3985C27.5698 18.3985 27.5799 18.3985 27.5899 18.3985C27.6 18.3985 27.6101 18.3985 27.6201 18.3985C27.6302 18.3985 27.6403 18.3985 27.6504 18.3985V17.7985C27.6403 17.7985 27.6302 17.7985 27.6201 17.7985C27.6101 17.7985 27.6 17.7985 27.5899 17.7985C27.5799 17.7985 27.5698 17.7985 27.5598 17.7985C27.5498 17.7985 27.5397 17.7985 27.5297 17.7985C27.5197 17.7985 27.5097 17.7985 27.4997 17.7985C27.4897 17.7985 27.4797 17.7985 27.4697 17.7985C27.4597 17.7985 27.4497 17.7985 27.4398 17.7985C27.4298 17.7985 27.4199 17.7985 27.4099 17.7985C27.4 17.7985 27.39 17.7985 27.3801 17.7985C27.3702 17.7985 27.3602 17.7985 27.3503 17.7985C27.3404 17.7985 27.3305 17.7985 27.3206 17.7985C27.3107 17.7985 27.3008 17.7985 27.291 17.7985C27.2811 17.7985 27.2712 17.7985 27.2614 17.7985C27.2515 17.7985 27.2417 17.7985 27.2318 17.7985C27.222 17.7985 27.2121 17.7985 27.2023 17.7985C27.1925 17.7985 27.1827 17.7985 27.1729 17.7985C27.1631 17.7985 27.1533 17.7985 27.1435 17.7985C27.1337 17.7985 27.1239 17.7985 27.1141 17.7985C27.1044 17.7985 27.0946 17.7985 27.0848 17.7985C27.0751 17.7985 27.0653 17.7985 27.0556 17.7985C27.0459 17.7985 27.0361 17.7985 27.0264 17.7985C27.0167 17.7985 27.007 17.7985 26.9973 17.7985C26.9876 17.7985 26.9779 17.7985 26.9682 17.7985C26.9585 17.7985 26.9488 17.7985 26.9392 17.7985C26.9295 17.7985 26.9198 17.7985 26.9102 17.7985C26.9005 17.7985 26.8909 17.7985 26.8812 17.7985C26.8716 17.7985 26.862 17.7985 26.8523 17.7985C26.8427 17.7985 26.8331 17.7985 26.8235 17.7985C26.8139 17.7985 26.8043 17.7985 26.7947 17.7985C26.7851 17.7985 26.7756 17.7985 26.766 17.7985C26.7564 17.7985 26.7469 17.7985 26.7373 17.7985C26.7277 17.7985 26.7182 17.7985 26.7087 17.7985C26.6991 17.7985 26.6896 17.7985 26.6801 17.7985C26.6705 17.7985 26.661 17.7985 26.6515 17.7985C26.642 17.7985 26.6325 17.7985 26.623 17.7985C26.6135 17.7985 26.6041 17.7985 26.5946 17.7985C26.5851 17.7985 26.5756 17.7985 26.5662 17.7985C26.5567 17.7985 26.5473 17.7985 26.5378 17.7985C26.5284 17.7985 26.519 17.7985 26.5095 17.7985C26.5001 17.7985 26.4907 17.7985 26.4813 17.7985C26.4719 17.7985 26.4625 17.7985 26.4531 17.7985C26.4437 17.7985 26.4343 17.7985 26.4249 17.7985C26.4155 17.7985 26.4061 17.7985 26.3968 17.7985C26.3874 17.7985 26.3781 17.7985 26.3687 17.7985C26.3594 17.7985 26.35 17.7985 26.3407 17.7985C26.3313 17.7985 26.322 17.7985 26.3127 17.7985C26.3034 17.7985 26.2941 17.7985 26.2848 17.7985C26.2755 17.7985 26.2662 17.7985 26.2569 17.7985C26.2476 17.7985 26.2383 17.7985 26.229 17.7985C26.2198 17.7985 26.2105 17.7985 26.2012 17.7985C26.192 17.7985 26.1827 17.7985 26.1735 17.7985C26.1642 17.7985 26.155 17.7985 26.1458 17.7985C26.1365 17.7985 26.1273 17.7985 26.1181 17.7985C26.1089 17.7985 26.0997 17.7985 26.0905 17.7985C26.0813 17.7985 26.0721 17.7985 26.0629 17.7985C26.0537 17.7985 26.0445 17.7985 26.0354 17.7985C26.0262 17.7985 26.017 17.7985 26.0079 17.7985C25.9987 17.7985 25.9896 17.7985 25.9804 17.7985C25.9713 17.7985 25.9622 17.7985 25.953 17.7985C25.9439 17.7985 25.9348 17.7985 25.9257 17.7985C25.9166 17.7985 25.9074 17.7985 25.8983 17.7985C25.8892 17.7985 25.8802 17.7985 25.8711 17.7985C25.862 17.7985 25.8529 17.7985 25.8438 17.7985C25.8348 17.7985 25.8257 17.7985 25.8166 17.7985C25.8076 17.7985 25.7985 17.7985 25.7895 17.7985C25.7804 17.7985 25.7714 17.7985 25.7624 17.7985C25.7533 17.7985 25.7443 17.7985 25.7353 17.7985C25.7263 17.7985 25.7173 17.7985 25.7083 17.7985C25.6993 17.7985 25.6903 17.7985 25.6813 17.7985C25.6723 17.7985 25.6633 17.7985 25.6543 17.7985C25.6454 17.7985 25.6364 17.7985 25.6274 17.7985C25.6185 17.7985 25.6095 17.7985 25.6006 17.7985C25.5916 17.7985 25.5827 17.7985 25.5737 17.7985C25.5648 17.7985 25.5559 17.7985 25.547 17.7985C25.538 17.7985 25.5291 17.7985 25.5202 17.7985C25.5113 17.7985 25.5024 17.7985 25.4935 17.7985C25.4846 17.7985 25.4757 17.7985 25.4668 17.7985C25.4579 17.7985 25.4491 17.7985 25.4402 17.7985C25.4313 17.7985 25.4225 17.7985 25.4136 17.7985C25.4047 17.7985 25.3959 17.7985 25.3871 17.7985C25.3782 17.7985 25.3694 17.7985 25.3605 17.7985C25.3517 17.7985 25.3429 17.7985 25.3341 17.7985C25.3252 17.7985 25.3164 17.7985 25.3076 17.7985C25.2988 17.7985 25.29 17.7985 25.2812 17.7985C25.2724 17.7985 25.2636 17.7985 25.2549 17.7985C25.2461 17.7985 25.2373 17.7985 25.2285 17.7985C25.2198 17.7985 25.211 17.7985 25.2022 17.7985C25.1935 17.7985 25.1847 17.7985 25.176 17.7985C25.1672 17.7985 25.1585 17.7985 25.1498 17.7985C25.141 17.7985 25.1323 17.7985 25.1236 17.7985C25.1149 17.7985 25.1061 17.7985 25.0974 17.7985C25.0887 17.7985 25.08 17.7985 25.0713 17.7985C25.0626 17.7985 25.0539 17.7985 25.0452 17.7985C25.0366 17.7985 25.0279 17.7985 25.0192 17.7985C25.0105 17.7985 25.0019 17.7985 24.9932 17.7985C24.9845 17.7985 24.9759 17.7985 24.9672 17.7985C24.9586 17.7985 24.9499 17.7985 24.9413 17.7985C24.9327 17.7985 24.924 17.7985 24.9154 17.7985C24.9068 17.7985 24.8981 17.7985 24.8895 17.7985C24.8809 17.7985 24.8723 17.7985 24.8637 17.7985C24.8551 17.7985 24.8465 17.7985 24.8379 17.7985C24.8293 17.7985 24.8207 17.7985 24.8121 17.7985C24.8036 17.7985 24.795 17.7985 24.7864 17.7985C24.7778 17.7985 24.7693 17.7985 24.7607 17.7985C24.7521 17.7985 24.7436 17.7985 24.735 17.7985C24.7265 17.7985 24.7179 17.7985 24.7094 17.7985C24.7009 17.7985 24.6923 17.7985 24.6838 17.7985C24.6753 17.7985 24.6668 17.7985 24.6582 17.7985C24.6497 17.7985 24.6412 17.7985 24.6327 17.7985C24.6242 17.7985 24.6157 17.7985 24.6072 17.7985C24.5987 17.7985 24.5902 17.7985 24.5817 17.7985C24.5732 17.7985 24.5648 17.7985 24.5563 17.7985C24.5478 17.7985 24.5393 17.7985 24.5309 17.7985C24.5224 17.7985 24.514 17.7985 24.5055 17.7985C24.497 17.7985 24.4886 17.7985 24.4802 17.7985C24.4717 17.7985 24.4633 17.7985 24.4548 17.7985C24.4464 17.7985 24.438 17.7985 24.4296 17.7985C24.4211 17.7985 24.4127 17.7985 24.4043 17.7985C24.3959 17.7985 24.3875 17.7985 24.3791 17.7985C24.3707 17.7985 24.3623 17.7985 24.3539 17.7985C24.3455 17.7985 24.3371 17.7985 24.3287 17.7985C24.3203 17.7985 24.3119 17.7985 24.3036 17.7985C24.2952 17.7985 24.2868 17.7985 24.2785 17.7985C24.2701 17.7985 24.2617 17.7985 24.2534 17.7985C24.245 17.7985 24.2367 17.7985 24.2283 17.7985C24.22 17.7985 24.2116 17.7985 24.2033 17.7985C24.195 17.7985 24.1866 17.7985 24.1783 17.7985C24.17 17.7985 24.1617 17.7985 24.1533 17.7985C24.145 17.7985 24.1367 17.7985 24.1284 17.7985C24.1201 17.7985 24.1118 17.7985 24.1035 17.7985C24.0952 17.7985 24.0869 17.7985 24.0786 17.7985C24.0703 17.7985 24.062 17.7985 24.0537 17.7985C24.0455 17.7985 24.0372 17.7985 24.0289 17.7985C24.0206 17.7985 24.0124 17.7985 24.0041 17.7985C23.9958 17.7985 23.9876 17.7985 23.9793 17.7985C23.9711 17.7985 23.9628 17.7985 23.9546 17.7985C23.9463 17.7985 23.9381 17.7985 23.9299 17.7985C23.9216 17.7985 23.9134 17.7985 23.9052 17.7985C23.8969 17.7985 23.8887 17.7985 23.8805 17.7985C23.8723 17.7985 23.864 17.7985 23.8558 17.7985C23.8476 17.7985 23.8394 17.7985 23.8312 17.7985C23.823 17.7985 23.8148 17.7985 23.8066 17.7985C23.7984 17.7985 23.7902 17.7985 23.782 17.7985C23.7739 17.7985 23.7657 17.7985 23.7575 17.7985C23.7493 17.7985 23.7411 17.7985 23.733 17.7985C23.7248 17.7985 23.7166 17.7985 23.7085 17.7985C23.7003 17.7985 23.6921 17.7985 23.684 17.7985C23.6758 17.7985 23.6677 17.7985 23.6595 17.7985C23.6514 17.7985 23.6432 17.7985 23.6351 17.7985C23.627 17.7985 23.6188 17.7985 23.6107 17.7985C23.6026 17.7985 23.5944 17.7985 23.5863 17.7985C23.5782 17.7985 23.5701 17.7985 23.562 17.7985C23.5538 17.7985 23.5457 17.7985 23.5376 17.7985C23.5295 17.7985 23.5214 17.7985 23.5133 17.7985C23.5052 17.7985 23.4971 17.7985 23.489 17.7985C23.4809 17.7985 23.4728 17.7985 23.4647 17.7985C23.4566 17.7985 23.4486 17.7985 23.4405 17.7985C23.4324 17.7985 23.4243 17.7985 23.4163 17.7985C23.4082 17.7985 23.4001 17.7985 23.392 17.7985C23.384 17.7985 23.3759 17.7985 23.3679 17.7985C23.3598 17.7985 23.3517 17.7985 23.3437 17.7985C23.3356 17.7985 23.3276 17.7985 23.3195 17.7985C23.3115 17.7985 23.3035 17.7985 23.2954 17.7985C23.2874 17.7985 23.2793 17.7985 23.2713 17.7985C23.2633 17.7985 23.2553 17.7985 23.2472 17.7985C23.2392 17.7985 23.2312 17.7985 23.2232 17.7985C23.2151 17.7985 23.2071 17.7985 23.1991 17.7985C23.1911 17.7985 23.1831 17.7985 23.1751 17.7985C23.1671 17.7985 23.1591 17.7985 23.1511 17.7985C23.1431 17.7985 23.1351 17.7985 23.1271 17.7985C23.1191 17.7985 23.1111 17.7985 23.1031 17.7985C23.0951 17.7985 23.0872 17.7985 23.0792 17.7985C23.0712 17.7985 23.0632 17.7985 23.0552 17.7985C23.0473 17.7985 23.0393 17.7985 23.0313 17.7985C23.0234 17.7985 23.0154 17.7985 23.0074 17.7985C22.9995 17.7985 22.9915 17.7985 22.9836 17.7985C22.9756 17.7985 22.9676 17.7985 22.9597 17.7985C22.9517 17.7985 22.9438 17.7985 22.9358 17.7985C22.9279 17.7985 22.92 17.7985 22.912 17.7985C22.9041 17.7985 22.8961 17.7985 22.8882 17.7985C22.8803 17.7985 22.8723 17.7985 22.8644 17.7985C22.8565 17.7985 22.8486 17.7985 22.8406 17.7985C22.8327 17.7985 22.8248 17.7985 22.8169 17.7985C22.8089 17.7985 22.801 17.7985 22.7931 17.7985C22.7852 17.7985 22.7773 17.7985 22.7694 17.7985C22.7615 17.7985 22.7536 17.7985 22.7457 17.7985C22.7378 17.7985 22.7299 17.7985 22.722 17.7985C22.7141 17.7985 22.7062 17.7985 22.6983 17.7985C22.6904 17.7985 22.6825 17.7985 22.6746 17.7985C22.6667 17.7985 22.6588 17.7985 22.651 17.7985C22.6431 17.7985 22.6352 17.7985 22.6273 17.7985C22.6194 17.7985 22.6116 17.7985 22.6037 17.7985C22.5958 17.7985 22.5879 17.7985 22.5801 17.7985C22.5722 17.7985 22.5643 17.7985 22.5565 17.7985C22.5486 17.7985 22.5407 17.7985 22.5329 17.7985C22.525 17.7985 22.5172 17.7985 22.5093 17.7985C22.5014 17.7985 22.4936 17.7985 22.4857 17.7985C22.4779 17.7985 22.47 17.7985 22.4622 17.7985C22.4543 17.7985 22.4465 17.7985 22.4387 17.7985C22.4308 17.7985 22.423 17.7985 22.4151 17.7985C22.4073 17.7985 22.3995 17.7985 22.3916 17.7985C22.3838 17.7985 22.376 17.7985 22.3681 17.7985C22.3603 17.7985 22.3525 17.7985 22.3446 17.7985C22.3368 17.7985 22.329 17.7985 22.3212 17.7985C22.3133 17.7985 22.3055 17.7985 22.2977 17.7985C22.2899 17.7985 22.2821 17.7985 22.2742 17.7985C22.2664 17.7985 22.2586 17.7985 22.2508 17.7985C22.243 17.7985 22.2352 17.7985 22.2274 17.7985C22.2196 17.7985 22.2117 17.7985 22.2039 17.7985C22.1961 17.7985 22.1883 17.7985 22.1805 17.7985C22.1727 17.7985 22.1649 17.7985 22.1571 17.7985C22.1493 17.7985 22.1415 17.7985 22.1337 17.7985C22.1259 17.7985 22.1181 17.7985 22.1104 17.7985C22.1026 17.7985 22.0948 17.7985 22.087 17.7985C22.0792 17.7985 22.0714 17.7985 22.0636 17.7985C22.0558 17.7985 22.048 17.7985 22.0403 17.7985C22.0325 17.7985 22.0247 17.7985 22.0169 17.7985C22.0091 17.7985 22.0014 17.7985 21.9936 17.7985C21.9858 17.7985 21.978 17.7985 21.9702 17.7985C21.9625 17.7985 21.9547 17.7985 21.9469 17.7985C21.9392 17.7985 21.9314 17.7985 21.9236 17.7985C21.9158 17.7985 21.9081 17.7985 21.9003 17.7985C21.8925 17.7985 21.8848 17.7985 21.877 17.7985C21.8692 17.7985 21.8615 17.7985 21.8537 17.7985C21.8459 17.7985 21.8382 17.7985 21.8304 17.7985C21.8227 17.7985 21.8149 17.7985 21.8071 17.7985C21.7994 17.7985 21.7916 17.7985 21.7839 17.7985C21.7761 17.7985 21.7684 17.7985 21.7606 17.7985C21.7529 17.7985 21.7451 17.7985 21.7374 17.7985C21.7296 17.7985 21.7218 17.7985 21.7141 17.7985C21.7063 17.7985 21.6986 17.7985 21.6908 17.7985C21.6831 17.7985 21.6754 17.7985 21.6676 17.7985C21.6599 17.7985 21.6521 17.7985 21.6444 17.7985C21.6366 17.7985 21.6289 17.7985 21.6211 17.7985C21.6134 17.7985 21.6056 17.7985 21.5979 17.7985C21.5902 17.7985 21.5824 17.7985 21.5747 17.7985C21.5669 17.7985 21.5592 17.7985 21.5515 17.7985C21.5437 17.7985 21.536 17.7985 21.5283 17.7985C21.5205 17.7985 21.5128 17.7985 21.505 17.7985C21.4973 17.7985 21.4896 17.7985 21.4818 17.7985C21.4741 17.7985 21.4664 17.7985 21.4586 17.7985C21.4509 17.7985 21.4432 17.7985 21.4354 17.7985C21.4277 17.7985 21.42 17.7985 21.4122 17.7985C21.4045 17.7985 21.3968 17.7985 21.389 17.7985C21.3813 17.7985 21.3736 17.7985 21.3658 17.7985C21.3581 17.7985 21.3504 17.7985 21.3427 17.7985C21.3349 17.7985 21.3272 17.7985 21.3195 17.7985C21.3117 17.7985 21.304 17.7985 21.2963 17.7985C21.2886 17.7985 21.2808 17.7985 21.2731 17.7985C21.2654 17.7985 21.2576 17.7985 21.2499 17.7985C21.2422 17.7985 21.2345 17.7985 21.2267 17.7985C21.219 17.7985 21.2113 17.7985 21.2036 17.7985C21.1958 17.7985 21.1881 17.7985 21.1804 17.7985C21.1727 17.7985 21.1649 17.7985 21.1572 17.7985C21.1495 17.7985 21.1417 17.7985 21.134 17.7985C21.1263 17.7985 21.1186 17.7985 21.1108 17.7985C21.1031 17.7985 21.0954 17.7985 21.0877 17.7985C21.0799 17.7985 21.0722 17.7985 21.0645 17.7985C21.0568 17.7985 21.049 17.7985 21.0413 17.7985C21.0336 17.7985 21.0259 17.7985 21.0181 17.7985C21.0104 17.7985 21.0027 17.7985 20.995 17.7985C20.9872 17.7985 20.9795 17.7985 20.9718 17.7985C20.964 17.7985 20.9563 17.7985 20.9486 17.7985C20.9409 17.7985 20.9331 17.7985 20.9254 17.7985C20.9177 17.7985 20.9099 17.7985 20.9022 17.7985C20.8945 17.7985 20.8868 17.7985 20.879 17.7985C20.8713 17.7985 20.8636 17.7985 20.8558 17.7985C20.8481 17.7985 20.8404 17.7985 20.8326 17.7985C20.8249 17.7985 20.8172 17.7985 20.8095 17.7985C20.8017 17.7985 20.794 17.7985 20.7863 17.7985C20.7785 17.7985 20.7708 17.7985 20.7631 17.7985C20.7553 17.7985 20.7476 17.7985 20.7399 17.7985C20.7321 17.7985 20.7244 17.7985 20.7166 17.7985C20.7089 17.7985 20.7012 17.7985 20.6934 17.7985C20.6857 17.7985 20.678 17.7985 20.6702 17.7985C20.6625 17.7985 20.6547 17.7985 20.647 17.7985C20.6393 17.7985 20.6315 17.7985 20.6238 17.7985C20.616 17.7985 20.6083 17.7985 20.6006 17.7985C20.5928 17.7985 20.5851 17.7985 20.5773 17.7985C20.5696 17.7985 20.5618 17.7985 20.5541 17.7985C20.5463 17.7985 20.5386 17.7985 20.5308 17.7985C20.5231 17.7985 20.5153 17.7985 20.5076 17.7985C20.4998 17.7985 20.4921 17.7985 20.4843 17.7985C20.4766 17.7985 20.4688 17.7985 20.4611 17.7985C20.4533 17.7985 20.4456 17.7985 20.4378 17.7985C20.4301 17.7985 20.4223 17.7985 20.4145 17.7985C20.4068 17.7985 20.399 17.7985 20.3913 17.7985C20.3835 17.7985 20.3757 17.7985 20.368 17.7985C20.3602 17.7985 20.3524 17.7985 20.3447 17.7985C20.3369 17.7985 20.3292 17.7985 20.3214 17.7985C20.3136 17.7985 20.3058 17.7985 20.2981 17.7985C20.2903 17.7985 20.2825 17.7985 20.2748 17.7985C20.267 17.7985 20.2592 17.7985 20.2514 17.7985C20.2437 17.7985 20.2359 17.7985 20.2281 17.7985C20.2203 17.7985 20.2126 17.7985 20.2048 17.7985C20.197 17.7985 20.1892 17.7985 20.1814 17.7985C20.1736 17.7985 20.1659 17.7985 20.1581 17.7985C20.1503 17.7985 20.1425 17.7985 20.1347 17.7985C20.1269 17.7985 20.1191 17.7985 20.1113 17.7985C20.1035 17.7985 20.0957 17.7985 20.088 17.7985C20.0802 17.7985 20.0724 17.7985 20.0646 17.7985C20.0568 17.7985 20.049 17.7985 20.0412 17.7985C20.0334 17.7985 20.0255 17.7985 20.0177 17.7985C20.0099 17.7985 20.0021 17.7985 19.9943 17.7985C19.9865 17.7985 19.9787 17.7985 19.9709 17.7985C19.9631 17.7985 19.9553 17.7985 19.9474 17.7985C19.9396 17.7985 19.9318 17.7985 19.924 17.7985C19.9162 17.7985 19.9084 17.7985 19.9005 17.7985C19.8927 17.7985 19.8849 17.7985 19.8771 17.7985C19.8692 17.7985 19.8614 17.7985 19.8536 17.7985C19.8457 17.7985 19.8379 17.7985 19.8301 17.7985C19.8222 17.7985 19.8144 17.7985 19.8066 17.7985C19.7987 17.7985 19.7909 17.7985 19.783 17.7985C19.7752 17.7985 19.7673 17.7985 19.7595 17.7985C19.7516 17.7985 19.7438 17.7985 19.7359 17.7985C19.7281 17.7985 19.7202 17.7985 19.7124 17.7985C19.7045 17.7985 19.6967 17.7985 19.6888 17.7985C19.6809 17.7985 19.6731 17.7985 19.6652 17.7985C19.6574 17.7985 19.6495 17.7985 19.6416 17.7985C19.6337 17.7985 19.6259 17.7985 19.618 17.7985C19.6101 17.7985 19.6023 17.7985 19.5944 17.7985C19.5865 17.7985 19.5786 17.7985 19.5707 17.7985C19.5629 17.7985 19.555 17.7985 19.5471 17.7985C19.5392 17.7985 19.5313 17.7985 19.5234 17.7985C19.5155 17.7985 19.5076 17.7985 19.4997 17.7985C19.4918 17.7985 19.4839 17.7985 19.476 17.7985C19.4681 17.7985 19.4602 17.7985 19.4523 17.7985C19.4444 17.7985 19.4365 17.7985 19.4286 17.7985C19.4207 17.7985 19.4127 17.7985 19.4048 17.7985C19.3969 17.7985 19.389 17.7985 19.3811 17.7985C19.3731 17.7985 19.3652 17.7985 19.3573 17.7985C19.3494 17.7985 19.3414 17.7985 19.3335 17.7985C19.3256 17.7985 19.3176 17.7985 19.3097 17.7985C19.3017 17.7985 19.2938 17.7985 19.2858 17.7985C19.2779 17.7985 19.27 17.7985 19.262 17.7985C19.254 17.7985 19.2461 17.7985 19.2381 17.7985C19.2302 17.7985 19.2222 17.7985 19.2143 17.7985C19.2063 17.7985 19.1983 17.7985 19.1904 17.7985C19.1824 17.7985 19.1744 17.7985 19.1664 17.7985C19.1585 17.7985 19.1505 17.7985 19.1425 17.7985C19.1345 17.7985 19.1265 17.7985 19.1186 17.7985C19.1106 17.7985 19.1026 17.7985 19.0946 17.7985C19.0866 17.7985 19.0786 17.7985 19.0706 17.7985C19.0626 17.7985 19.0546 17.7985 19.0466 17.7985C19.0386 17.7985 19.0306 17.7985 19.0226 17.7985C19.0146 17.7985 19.0065 17.7985 18.9985 17.7985C18.9905 17.7985 18.9825 17.7985 18.9745 17.7985C18.9664 17.7985 18.9584 17.7985 18.9504 17.7985C18.9423 17.7985 18.9343 17.7985 18.9263 17.7985C18.9182 17.7985 18.9102 17.7985 18.9021 17.7985C18.8941 17.7985 18.886 17.7985 18.878 17.7985C18.8699 17.7985 18.8619 17.7985 18.8538 17.7985C18.8458 17.7985 18.8377 17.7985 18.8296 17.7985C18.8216 17.7985 18.8135 17.7985 18.8054 17.7985C18.7974 17.7985 18.7893 17.7985 18.7812 17.7985C18.7731 17.7985 18.765 17.7985 18.757 17.7985C18.7489 17.7985 18.7408 17.7985 18.7327 17.7985C18.7246 17.7985 18.7165 17.7985 18.7084 17.7985C18.7003 17.7985 18.6922 17.7985 18.6841 17.7985C18.676 17.7985 18.6679 17.7985 18.6597 17.7985C18.6516 17.7985 18.6435 17.7985 18.6354 17.7985C18.6272 17.7985 18.6191 17.7985 18.611 17.7985C18.6029 17.7985 18.5947 17.7985 18.5866 17.7985C18.5784 17.7985 18.5703 17.7985 18.5622 17.7985C18.554 17.7985 18.5459 17.7985 18.5377 17.7985C18.5295 17.7985 18.5214 17.7985 18.5132 17.7985C18.5051 17.7985 18.4969 17.7985 18.4887 17.7985C18.4805 17.7985 18.4724 17.7985 18.4642 17.7985C18.456 17.7985 18.4478 17.7985 18.4396 17.7985C18.4315 17.7985 18.4233 17.7985 18.4151 17.7985C18.4069 17.7985 18.3987 17.7985 18.3905 17.7985C18.3823 17.7985 18.3741 17.7985 18.3659 17.7985C18.3576 17.7985 18.3494 17.7985 18.3412 17.7985C18.333 17.7985 18.3248 17.7985 18.3165 17.7985C18.3083 17.7985 18.3001 17.7985 18.2918 17.7985C18.2836 17.7985 18.2753 17.7985 18.2671 17.7985C18.2589 17.7985 18.2506 17.7985 18.2424 17.7985C18.2341 17.7985 18.2258 17.7985 18.2176 17.7985C18.2093 17.7985 18.201 17.7985 18.1928 17.7985C18.1845 17.7985 18.1762 17.7985 18.1679 17.7985C18.1597 17.7985 18.1514 17.7985 18.1431 17.7985C18.1348 17.7985 18.1265 17.7985 18.1182 17.7985C18.1099 17.7985 18.1016 17.7985 18.0933 17.7985C18.085 17.7985 18.0767 17.7985 18.0683 17.7985C18.06 17.7985 18.0517 17.7985 18.0434 17.7985C18.0351 17.7985 18.0267 17.7985 18.0184 17.7985C18.01 17.7985 18.0017 17.7985 17.9934 17.7985C17.985 17.7985 17.9767 17.7985 17.9683 17.7985C17.96 17.7985 17.9516 17.7985 17.9432 17.7985C17.9349 17.7985 17.9265 17.7985 17.9181 17.7985C17.9097 17.7985 17.9014 17.7985 17.893 17.7985C17.8846 17.7985 17.8762 17.7985 17.8678 17.7985C17.8594 17.7985 17.851 17.7985 17.8426 17.7985C17.8342 17.7985 17.8258 17.7985 17.8174 17.7985C17.809 17.7985 17.8006 17.7985 17.7921 17.7985C17.7837 17.7985 17.7753 17.7985 17.7668 17.7985C17.7584 17.7985 17.75 17.7985 17.7415 17.7985C17.7331 17.7985 17.7246 17.7985 17.7162 17.7985C17.7077 17.7985 17.6993 17.7985 17.6908 17.7985C17.6823 17.7985 17.6739 17.7985 17.6654 17.7985C17.6569 17.7985 17.6484 17.7985 17.64 17.7985C17.6315 17.7985 17.623 17.7985 17.6145 17.7985C17.606 17.7985 17.5975 17.7985 17.589 17.7985C17.5805 17.7985 17.572 17.7985 17.5634 17.7985C17.5549 17.7985 17.5464 17.7985 17.5379 17.7985C17.5293 17.7985 17.5208 17.7985 17.5123 17.7985C17.5037 17.7985 17.4952 17.7985 17.4866 17.7985C17.4781 17.7985 17.4695 17.7985 17.461 17.7985C17.4524 17.7985 17.4439 17.7985 17.4353 17.7985C17.4267 17.7985 17.4181 17.7985 17.4095 17.7985C17.401 17.7985 17.3924 17.7985 17.3838 17.7985C17.3752 17.7985 17.3666 17.7985 17.358 17.7985C17.3494 17.7985 17.3408 17.7985 17.3322 17.7985C17.3235 17.7985 17.3149 17.7985 17.3063 17.7985C17.2977 17.7985 17.289 17.7985 17.2804 17.7985C17.2717 17.7985 17.2631 17.7985 17.2545 17.7985C17.2458 17.7985 17.2371 17.7985 17.2285 17.7985C17.2198 17.7985 17.2112 17.7985 17.2025 17.7985C17.1938 17.7985 17.1851 17.7985 17.1764 17.7985C17.1678 17.7985 17.1591 17.7985 17.1504 17.7985C17.1417 17.7985 17.133 17.7985 17.1243 17.7985C17.1155 17.7985 17.1068 17.7985 17.0981 17.7985C17.0894 17.7985 17.0807 17.7985 17.0719 17.7985C17.0632 17.7985 17.0545 17.7985 17.0457 17.7985C17.037 17.7985 17.0282 17.7985 17.0195 17.7985C17.0107 17.7985 17.0019 17.7985 16.9932 17.7985C16.9844 17.7985 16.9756 17.7985 16.9668 17.7985C16.9581 17.7985 16.9493 17.7985 16.9405 17.7985C16.9317 17.7985 16.9229 17.7985 16.9141 17.7985C16.9053 17.7985 16.8964 17.7985 16.8876 17.7985C16.8788 17.7985 16.87 17.7985 16.8611 17.7985C16.8523 17.7985 16.8435 17.7985 16.8346 17.7985C16.8258 17.7985 16.8169 17.7985 16.8081 17.7985C16.7992 17.7985 16.7904 17.7985 16.7815 17.7985C16.7726 17.7985 16.7637 17.7985 16.7549 17.7985C16.746 17.7985 16.7371 17.7985 16.7282 17.7985C16.7193 17.7985 16.7104 17.7985 16.7015 17.7985C16.6926 17.7985 16.6837 17.7985 16.6747 17.7985C16.6658 17.7985 16.6569 17.7985 16.6479 17.7985C16.639 17.7985 16.6301 17.7985 16.6211 17.7985C16.6122 17.7985 16.6032 17.7985 16.5943 17.7985C16.5853 17.7985 16.5763 17.7985 16.5673 17.7985C16.5584 17.7985 16.5494 17.7985 16.5404 17.7985C16.5314 17.7985 16.5224 17.7985 16.5134 17.7985C16.5044 17.7985 16.4954 17.7985 16.4864 17.7985C16.4774 17.7985 16.4683 17.7985 16.4593 17.7985C16.4503 17.7985 16.4412 17.7985 16.4322 17.7985C16.4232 17.7985 16.4141 17.7985 16.405 17.7985C16.396 17.7985 16.3869 17.7985 16.3779 17.7985C16.3688 17.7985 16.3597 17.7985 16.3506 17.7985C16.3415 17.7985 16.3324 17.7985 16.3233 17.7985C16.3142 17.7985 16.3051 17.7985 16.296 17.7985C16.2869 17.7985 16.2778 17.7985 16.2687 17.7985C16.2595 17.7985 16.2504 17.7985 16.2413 17.7985C16.2321 17.7985 16.223 17.7985 16.2138 17.7985C16.2046 17.7985 16.1955 17.7985 16.1863 17.7985C16.1771 17.7985 16.168 17.7985 16.1588 17.7985C16.1496 17.7985 16.1404 17.7985 16.1312 17.7985C16.122 17.7985 16.1128 17.7985 16.1036 17.7985C16.0944 17.7985 16.0851 17.7985 16.0759 17.7985C16.0667 17.7985 16.0574 17.7985 16.0482 17.7985C16.039 17.7985 16.0297 17.7985 16.0205 17.7985C16.0112 17.7985 16.0019 17.7985 15.9927 17.7985C15.9834 17.7985 15.9741 17.7985 15.9648 17.7985C15.9555 17.7985 15.9462 17.7985 15.9369 17.7985C15.9276 17.7985 15.9183 17.7985 15.909 17.7985C15.8997 17.7985 15.8903 17.7985 15.881 17.7985C15.8717 17.7985 15.8623 17.7985 15.853 17.7985C15.8436 17.7985 15.8343 17.7985 15.8249 17.7985C15.8155 17.7985 15.8062 17.7985 15.7968 17.7985C15.7874 17.7985 15.778 17.7985 15.7686 17.7985C15.7592 17.7985 15.7498 17.7985 15.7404 17.7985C15.731 17.7985 15.7216 17.7985 15.7122 17.7985C15.7027 17.7985 15.6933 17.7985 15.6839 17.7985C15.6744 17.7985 15.665 17.7985 15.6555 17.7985C15.646 17.7985 15.6366 17.7985 15.6271 17.7985C15.6176 17.7985 15.6081 17.7985 15.5987 17.7985C15.5892 17.7985 15.5797 17.7985 15.5702 17.7985C15.5607 17.7985 15.5511 17.7985 15.5416 17.7985C15.5321 17.7985 15.5226 17.7985 15.513 17.7985C15.5035 17.7985 15.4939 17.7985 15.4844 17.7985C15.4748 17.7985 15.4653 17.7985 15.4557 17.7985C15.4461 17.7985 15.4365 17.7985 15.427 17.7985C15.4174 17.7985 15.4078 17.7985 15.3982 17.7985C15.3886 17.7985 15.379 17.7985 15.3693 17.7985C15.3597 17.7985 15.3501 17.7985 15.3405 17.7985C15.3308 17.7985 15.3212 17.7985 15.3115 17.7985C15.3019 17.7985 15.2922 17.7985 15.2825 17.7985C15.2729 17.7985 15.2632 17.7985 15.2535 17.7985C15.2438 17.7985 15.2341 17.7985 15.2244 17.7985C15.2147 17.7985 15.205 17.7985 15.1953 17.7985C15.1856 17.7985 15.1758 17.7985 15.1661 17.7985C15.1563 17.7985 15.1466 17.7985 15.1368 17.7985C15.1271 17.7985 15.1173 17.7985 15.1076 17.7985C15.0978 17.7985 15.088 17.7985 15.0782 17.7985C15.0684 17.7985 15.0586 17.7985 15.0488 17.7985C15.039 17.7985 15.0292 17.7985 15.0194 17.7985C15.0095 17.7985 14.9997 17.7985 14.9899 17.7985C14.98 17.7985 14.9702 17.7985 14.9603 17.7985C14.9505 17.7985 14.9406 17.7985 14.9307 17.7985C14.9208 17.7985 14.911 17.7985 14.9011 17.7985C14.8912 17.7985 14.8813 17.7985 14.8714 17.7985C14.8614 17.7985 14.8515 17.7985 14.8416 17.7985C14.8317 17.7985 14.8217 17.7985 14.8118 17.7985C14.8018 17.7985 14.7919 17.7985 14.7819 17.7985C14.7719 17.7985 14.762 17.7985 14.752 17.7985C14.742 17.7985 14.732 17.7985 14.722 17.7985C14.712 17.7985 14.702 17.7985 14.692 17.7985C14.6819 17.7985 14.6719 17.7985 14.6619 17.7985C14.6518 17.7985 14.6418 17.7985 14.6317 17.7985C14.6217 17.7985 14.6116 17.7985 14.6015 17.7985C14.5915 17.7985 14.5814 17.7985 14.5713 17.7985V18.3985ZM14.5713 19.768H27.5342V19.168H14.5713V19.768ZM14.8419 21.1375H27.5348V20.5375H14.8419V21.1375ZM15.1662 22.4667H27.8591V21.8667H15.1662V22.4667ZM15.6523 23.6025H26.9949V23.0025H15.6523V23.6025ZM15.9215 24.6981H26.4539V24.0981H15.9215V24.6981ZM16.7319 25.7937H25.6439V25.1937H16.7319V25.7937ZM17.8129 27.1631H25.1045V26.5631H17.8129V27.1631ZM18.6218 28.5327H24.2931V27.9327H18.6218V28.5327ZM19.4322 29.9021H23.2131V29.3021H19.4322V29.9021Z" fill="url(#paint4_linear_93_371)"/>
<g filter="url(#filter1_f_93_371)">
<path d="M4.48586 8.60652C1.68067 11.1872 -0.0810547 14.9136 -0.0810547 19.0573C-0.0810547 23.201 1.68067 26.9274 4.48586 29.508V8.60652ZM6.1692 7.2805C8.36542 5.80855 10.9976 4.95166 13.8271 4.95166C21.5085 4.95166 27.7353 11.2669 27.7353 19.0573C27.7353 26.8476 21.5085 33.1629 13.8271 33.1629C10.9976 33.1629 8.36542 32.3059 6.1692 30.834V7.2805Z" stroke="url(#paint5_linear_93_371)" stroke-width="2"/>
</g>
<path d="M4.48586 8.60652C1.68067 11.1872 -0.0810547 14.9136 -0.0810547 19.0573C-0.0810547 23.201 1.68067 26.9274 4.48586 29.508V8.60652ZM6.1692 7.2805C8.36542 5.80855 10.9976 4.95166 13.8271 4.95166C21.5085 4.95166 27.7353 11.2669 27.7353 19.0573C27.7353 26.8476 21.5085 33.1629 13.8271 33.1629C10.9976 33.1629 8.36542 32.3059 6.1692 30.834V7.2805Z" stroke="url(#paint6_linear_93_371)" stroke-width="2"/>
<path d="M4.48586 8.60652C1.68067 11.1872 -0.0810547 14.9136 -0.0810547 19.0573C-0.0810547 23.201 1.68067 26.9274 4.48586 29.508V8.60652ZM6.1692 7.2805C8.36542 5.80855 10.9976 4.95166 13.8271 4.95166C21.5085 4.95166 27.7353 11.2669 27.7353 19.0573C27.7353 26.8476 21.5085 33.1629 13.8271 33.1629C10.9976 33.1629 8.36542 32.3059 6.1692 30.834V7.2805Z" stroke="url(#paint7_linear_93_371)" stroke-opacity="0.75" stroke-width="0.5"/>
</g>
<defs>
<filter id="filter0_f_93_371" x="10.9971" y="1.67773" width="34.3564" height="34.7588" filterUnits="userSpaceOnUse" color-interpolation-filters="sRGB">
<feFlood flood-opacity="0" result="BackgroundImageFix"/>
<feBlend mode="normal" in="SourceGraphic" in2="BackgroundImageFix" result="shape"/>
<feGaussianBlur stdDeviation="1" result="effect1_foregroundBlur_93_371"/>
</filter>
<filter id="filter1_f_93_371" x="-3.08105" y="1.95166" width="33.8164" height="34.2114" filterUnits="userSpaceOnUse" color-interpolation-filters="sRGB">
<feFlood flood-opacity="0" result="BackgroundImageFix"/>
<feBlend mode="normal" in="SourceGraphic" in2="BackgroundImageFix" result="shape"/>
<feGaussianBlur stdDeviation="1" result="effect1_foregroundBlur_93_371"/>
</filter>
<linearGradient id="paint0_linear_93_371" x1="42.6236" y1="18.9092" x2="17.0936" y2="18.9148" gradientUnits="userSpaceOnUse">
<stop offset="0.563344" stop-color="#3984E4"/>
<stop offset="1" stop-color="#040404" stop-opacity="0"/>
</linearGradient>
<linearGradient id="paint1_linear_93_371" x1="40.0298" y1="18.9123" x2="16.8825" y2="18.9123" gradientUnits="userSpaceOnUse">
<stop stop-color="#0094FF"/>
<stop offset="0.458333" stop-color="#0094FF" stop-opacity="0.749722"/>
<stop offset="1" stop-color="#040404" stop-opacity="0"/>
</linearGradient>
<linearGradient id="paint2_linear_93_371" x1="40.0298" y1="18.9123" x2="16.8825" y2="18.9123" gradientUnits="userSpaceOnUse">
<stop stop-color="#0094FF"/>
<stop offset="0.0001" stop-color="#0094FF"/>
<stop offset="0.458333" stop-color="#0094FF" stop-opacity="0.749722"/>
<stop offset="1" stop-color="#040404" stop-opacity="0"/>
</linearGradient>
<linearGradient id="paint3_linear_93_371" x1="40.0298" y1="18.9123" x2="16.8825" y2="18.9123" gradientUnits="userSpaceOnUse">
<stop stop-color="white"/>
<stop offset="0.458333" stop-color="white" stop-opacity="0.749722"/>
<stop offset="1" stop-color="#040404" stop-opacity="0"/>
</linearGradient>
<linearGradient id="paint4_linear_93_371" x1="14.7377" y1="18.6814" x2="28.0746" y2="18.6814" gradientUnits="userSpaceOnUse">
<stop stop-color="#FF5EBA"/>
<stop offset="0.489583" stop-color="#6831D6" stop-opacity="0.87"/>
<stop offset="1" stop-color="#0094FF"/>
</linearGradient>
<linearGradient id="paint5_linear_93_371" x1="27.7353" y1="18.9148" x2="5.18507" y2="19.1864" gradientUnits="userSpaceOnUse">
<stop offset="0.380208" stop-color="#FB37FF"/>
<stop offset="0.734375" stop-color="#7158B6"/>
<stop offset="1" stop-color="#040404" stop-opacity="0"/>
</linearGradient>
<linearGradient id="paint6_linear_93_371" x1="27.7353" y1="18.9148" x2="5.18507" y2="19.1864" gradientUnits="userSpaceOnUse">
<stop offset="0.380208" stop-color="#FB37FF"/>
<stop offset="0.619792" stop-color="#6831D6"/>
<stop offset="0.908382" stop-color="#040404" stop-opacity="0"/>
</linearGradient>
<linearGradient id="paint7_linear_93_371" x1="27.7353" y1="18.9148" x2="5.18507" y2="19.1864" gradientUnits="userSpaceOnUse">
<stop offset="0.380208" stop-color="white"/>
<stop offset="0.619792" stop-color="white"/>
<stop offset="0.903365" stop-color="#040404" stop-opacity="0"/>
</linearGradient>
<clipPath id="clip0_93_371">
<rect width="205" height="38" fill="white"/>
</clipPath>
</defs>
</svg>
