<svg width="764" height="298" xmlns="http://www.w3.org/2000/svg" fill="none">
    <defs>
        <linearGradient y2="1" x2="0.5" y1="0.02778" x1="0.5" id="paint0_linear_377_851">
            <stop stop-opacity="0.3" stop-color="#6831D6"/>
            <stop stop-opacity="0" stop-color="#6831D6" offset="1"/>
        </linearGradient>
        <linearGradient y2="0.48882" x2="1.03243" y1="0.48882" x1="0.01272" id="paint1_linear_377_851">
            <stop stop-color="#FF5EBA"/>
            <stop stop-opacity="0.87" stop-color="#6831D6" offset="0.48958"/>
            <stop stop-color="#0094FF" offset="1"/>
        </linearGradient>
    </defs>
    <g>
        <title>Layer 1</title>
        <path id="svg_1" fill="#A3A3A3"
              d="m4.34033,59.6494c1.2876,0 2.20606,-0.8921 2.20606,-2.1709l0,-0.0088c0,-1.226 -0.85694,-2.1181 -2.04785,-2.1181c-0.57569,0 -1.07227,0.2329 -1.35352,0.6591l-0.07031,0l0.21533,-2.1445l2.90478,0l0,-0.7075l-3.5288,0l-0.33399,3.6431l0.68555,0c0.0791,-0.1495 0.18017,-0.2725 0.29004,-0.378c0.27246,-0.2592 0.63281,-0.3867 1.05468,-0.3867c0.82178,0 1.41065,0.6021 1.41065,1.4458l0,0.0088c0,0.8569 -0.58008,1.459 -1.42383,1.459c-0.74267,0 -1.29199,-0.4834 -1.3667,-1.0899l-0.00439,-0.0351l-0.76026,0l0.0044,0.0483c0.09228,1.0152 0.93603,1.7754 2.11816,1.7754zm3.52881,-0.1494l0.76465,0l0,-1.7974l0.44385,-0.4306l1.77536,2.228l0.9624,0l-2.20163,-2.7466l2.06543,-1.9907l-0.9272,0l-2.0479,2.0698l-0.07031,0l0,-3.9507l-0.76465,0l0,6.6182z"/>
        <path id="svg_2" fill="#A3A3A3"
              d="m4.9248,96.5l0.77344,0l0,-1.314l0.90088,0l0,-0.7075l-0.90088,0l0,-4.3198l-1.14697,0c-0.8877,1.3227 -1.85889,2.8696 -2.71582,4.3066l0,0.7207l3.08935,0l0,1.314zm-2.28076,-2.0171l0,-0.0527c0.68994,-1.1646 1.52051,-2.4741 2.23242,-3.5376l0.05274,0l0,3.5903l-2.28516,0zm5.2251,2.0171l0.76465,0l0,-1.7974l0.44385,-0.4306l1.77536,2.228l0.9624,0l-2.20163,-2.7466l2.06543,-1.9907l-0.9272,0l-2.0479,2.0698l-0.07031,0l0,-3.9507l-0.76465,0l0,6.6182z"/>
        <path id="svg_3" fill="#A3A3A3"
              d="m4.33594,133.605c1.27002,0 2.20166,-0.782 2.20166,-1.841l0,-0.009c0,-0.901 -0.62842,-1.476 -1.55127,-1.555l0,-0.018c0.79101,-0.167 1.34472,-0.703 1.34472,-1.485l0,-0.009c0,-0.962 -0.79541,-1.635 -2.0039,-1.635c-1.18653,0 -2.00391,0.69 -2.10498,1.723l-0.0044,0.044l0.76026,0l0.00439,-0.044c0.06592,-0.642 0.59766,-1.037 1.34473,-1.037c0.77344,0 1.20849,0.382 1.20849,1.046l0,0.008c0,0.633 -0.52734,1.099 -1.2832,1.099l-0.76025,0l0,0.668l0.79541,0c0.88769,0 1.4458,0.435 1.4458,1.213l0,0.009c0,0.672 -0.5669,1.138 -1.39746,1.138c-0.84375,0 -1.41944,-0.431 -1.48096,-1.055l-0.00439,-0.044l-0.76026,0l0.0044,0.053c0.08349,1.002 0.93164,1.731 2.24121,1.731zm3.5332,-0.105l0.76465,0l0,-1.797l0.44385,-0.431l1.77536,2.228l0.9624,0l-2.20163,-2.747l2.06543,-1.99l-0.9272,0l-2.0479,2.07l-0.07031,0l0,-3.951l-0.76465,0l0,6.618z"/>
        <path id="svg_4" fill="#A3A3A3"
              d="m2.38916,170.5l4.10449,0l0,-0.712l-3.00586,0l0,-0.07l1.44141,-1.49c1.14697,-1.182 1.45898,-1.709 1.45898,-2.435l0,-0.008c0,-1.024 -0.84814,-1.776 -1.95556,-1.776c-1.21289,0 -2.08301,0.809 -2.08741,1.934l0.00879,0.004l0.75586,0.005l0.0044,-0.009c0,-0.747 0.50537,-1.244 1.26562,-1.244c0.74707,0 1.19971,0.501 1.19971,1.169l0,0.009c0,0.554 -0.2373,0.883 -1.0459,1.758l-2.14453,2.32l0,0.545zm5.47998,0l0.76465,0l0,-1.797l0.44385,-0.431l1.77536,2.228l0.9624,0l-2.20163,-2.747l2.06543,-1.99l-0.9272,0l-2.0479,2.07l-0.07031,0l0,-3.951l-0.76465,0l0,6.618z"/>
        <path id="svg_5" fill="#A3A3A3"
              d="m5.19727,207.5l0.79101,0l0,-6.341l-0.78662,0l-1.6875,1.213l0,0.835l1.61279,-1.169l0.07032,0l0,5.462zm2.67187,0l0.76465,0l0,-1.797l0.44385,-0.431l1.77536,2.228l0.9624,0l-2.20163,-2.747l2.06543,-1.99l-0.9272,0l-2.0479,2.07l-0.07031,0l0,-3.951l-0.76465,0l0,6.618z"/>
        <path id="svg_6" fill="#A3A3A3"
              d="m3.2832,244.649c1.42383,0 2.24121,-1.204 2.24121,-3.309c0,-2.1 -0.83056,-3.331 -2.24121,-3.331c-1.41943,0 -2.25,1.226 -2.25,3.318c0,2.11 0.82178,3.322 2.25,3.322zm0,-0.69c-0.93603,0 -1.45459,-0.936 -1.45459,-2.632c0,-1.674 0.52735,-2.623 1.45459,-2.623c0.92725,0 1.4458,0.94 1.4458,2.623c0,1.701 -0.50976,2.632 -1.4458,2.632zm4.41211,-2.126l-0.07031,0l0,-3.951l-0.75586,0l0,6.618l0.75586,0l0,-1.797l0.45264,-0.422l1.77539,2.219l0.96237,0l-2.17526,-2.707l2.03906,-2.03l-0.92725,0l-2.05664,2.07z"/>
        <path id="svg_7" fill="white"
              d="m515,33.3104l0.005,-0.67l3.255,-2.94c0.28,-0.2533 0.465,-0.4933 0.555,-0.72c0.093,-0.23 0.14,-0.47 0.14,-0.72c0,-0.2966 -0.07,-0.565 -0.21,-0.805c-0.14,-0.24 -0.328,-0.43 -0.565,-0.57c-0.237,-0.1433 -0.502,-0.215 -0.795,-0.215c-0.307,0 -0.58,0.0734 -0.82,0.22c-0.24,0.1467 -0.43,0.34 -0.57,0.58c-0.137,0.24 -0.203,0.5017 -0.2,0.785l-0.75,0c0,-0.4366 0.103,-0.8283 0.31,-1.175c0.207,-0.3466 0.487,-0.6183 0.84,-0.815c0.353,-0.2 0.753,-0.3 1.2,-0.3c0.437,0 0.828,0.1034 1.175,0.31c0.35,0.2034 0.625,0.48 0.825,0.83c0.203,0.3467 0.305,0.7334 0.305,1.16c0,0.3 -0.037,0.565 -0.11,0.795c-0.07,0.2267 -0.182,0.4384 -0.335,0.635c-0.15,0.1934 -0.342,0.3934 -0.575,0.6l-2.89,2.61l-0.115,-0.3l4.025,0l0,0.705l-4.7,0zm8.878,0.005l0,-1.395l-3.37,0l0,-0.7l2.41,-5.105l0.825,0l-2.41,5.105l2.545,0l0,-2.1l0.74,0l0,2.1l0.785,0l0,0.7l-0.785,0l0,1.395l-0.74,0zm2.728,0l0,-7.2l0.735,0l0,3.245l3.98,0l0,-3.245l0.73,0l0,7.2l-0.73,0l0,-3.25l-3.98,0l0,3.25l-0.735,0z"/>
        <rect id="svg_8" fill="#2C2C33" rx="5" height="26" width="40" y="16.3154" x="559"/>
        <path id="svg_9" fill="white"
              d="m574.329,33.3154l0,-6.38l-1.355,0.815l0,-0.825l1.355,-0.81l0.745,0l0,7.2l-0.745,0zm4.187,0l-2.08,-7.2l0.765,0l1.685,5.945l1.675,-5.94l0.77,-0.005l1.685,5.945l1.675,-5.945l0.77,0l-2.075,7.2l-0.74,0l-1.7,-5.905l-1.69,5.905l-0.74,0z"/>
        <path id="svg_10" fill="white" d="m629.803,33.3154l0,-6.38l-1.355,0.815l0,-0.825l1.355,-0.81l0.745,0l0,7.2l-0.745,0zm2.641,0l0,-7.2l0.675,0l2.83,6.055l2.815,-6.055l0.685,0l0,7.195l-0.7,0l0,-5.555l-2.565,5.56l-0.475,0l-2.56,-5.56l0,5.56l-0.705,0z"/>
        <path id="svg_11" fill="white" d="m686.228,33.3154l0,-6.38l-1.355,0.815l0,-0.825l1.355,-0.81l0.745,0l0,7.2l-0.745,0zm4.357,0l0,-3.015l-2.415,-4.185l0.85,0l1.935,3.345l1.925,-3.345l0.85,0l-2.405,4.185l0,3.015l-0.74,0z"/>
        <path id="svg_12" fill="white"
              d="m738.697,33.3154l2.48,-7.2l0.975,0l2.48,7.2l-0.765,0l-2.355,-6.79l0.29,0l-2.34,6.79l-0.765,0zm1.105,-1.745l0,-0.69l3.72,0l0,0.69l-3.72,0zm5.833,1.745l0,-7.35l0.735,0l0,7.35l-0.735,0zm2.334,0l0,-7.35l0.735,0l0,7.35l-0.735,0z"/>
        <rect id="svg_13" fill-opacity="0.2" fill="#525766" height="186" width="2.50842" y="54.3154" x="19"/>
        <rect id="svg_14" fill-opacity="0.2" fill="#525766" height="186" width="2.50842" y="54.3154" x="111.811"/>
        <rect id="svg_15" fill-opacity="0.2" fill="#525766" height="186" width="2.50842" y="54.3154" x="204.623"/>
        <rect id="svg_16" fill-opacity="0.2" fill="#525766" height="186" width="2.50842" y="54.3154" x="297.434"/>
        <rect id="svg_17" fill-opacity="0.2" fill="#525766" height="186" width="2.50848" y="54.3154" x="390.246"/>
        <rect id="svg_18" fill-opacity="0.2" fill="#525766" height="186" width="2.50842" y="54.3154" x="483.057"/>
        <rect id="svg_19" fill-opacity="0.2" fill="#525766" height="186" width="2.50842" y="54.3154" x="575.869"/>
        <rect id="svg_20" fill-opacity="0.2" fill="#525766" height="186" width="2.50854" y="54.3154" x="668.68"/>
        <rect id="svg_21" fill-opacity="0.2" fill="#525766" transform="rotate(90 763 239.315)" height="743" width="1.00002" y="239.315" x="763"/>
        <rect id="svg_22" fill-opacity="0.2" fill="#525766" transform="rotate(90 763 202.315)" height="743" width="1.00002" y="202.315" x="763"/>
        <rect id="svg_23" fill-opacity="0.2" fill="#525766" transform="rotate(90 763 165.315)" height="743" width="1.00002" y="165.315" x="763"/>
        <rect id="svg_24" fill-opacity="0.2" fill="#525766" transform="rotate(90 763 128.315)" height="743" width="1.00002" y="128.315" x="763"/>
        <rect id="svg_25" fill-opacity="0.2" fill="#525766" transform="rotate(90 763 91.3154)" height="743" width="1.00001" y="91.3154" x="763"/>
        <rect id="svg_26" fill-opacity="0.2" fill="#525766" transform="rotate(90 763 54.3154)" height="743" width="1.00001" y="54.3154" x="763"/>
        <rect id="svg_27" fill-opacity="0.2" fill="#525766" height="186" width="2.50848" y="54.3154" x="761.492"/>
        <path id="svg_28" fill="url(#paint0_linear_377_851)"
              d="m49.1929,218.068l-29.1929,0l0,20.247c0,0.553 0.4477,1 1,1l741,0c0.552,0 1,-0.447 1,-1l0,-142.9996l-33.24,21.5076c-0.432,0.279 -1.006,0.185 -1.326,-0.217l-14.247,-17.9131c-0.19,-0.2385 -0.478,-0.3775 -0.783,-0.3775l-47.137,0c-0.155,0 -0.307,0.0357 -0.445,0.1043l-19.729,9.7913c-0.138,0.069 -0.29,0.104 -0.444,0.104l-14.741,0c-0.091,0 -0.181,-0.012 -0.268,-0.036l-24.852,-6.907c-0.134,-0.037 -0.274,-0.046 -0.412,-0.026l-24.867,3.608c-0.074,0.011 -0.146,0.03 -0.215,0.056l-11.058,4.24c-0.114,0.043 -0.218,0.107 -0.308,0.188l-4.803,4.29c-0.065,0.058 -0.137,0.107 -0.215,0.147l-18.695,9.435c-0.052,0.026 -0.105,0.047 -0.161,0.064l-16.288,4.941l-12.593,3.5l-25.187,3.5l-23.793,0.995c-0.089,0.004 -0.177,0.019 -0.261,0.046l-12.272,3.898c-0.128,0.04 -0.246,0.106 -0.348,0.194l-31.048,26.627c-0.181,0.155 -0.412,0.24 -0.651,0.24l-14.668,0c-0.049,0 -0.098,-0.003 -0.147,-0.01l-30.011,-4.469c-0.093,-0.014 -0.186,-0.014 -0.279,-0.002l-14.825,1.962c-0.098,0.013 -0.193,0.04 -0.283,0.081l-33.438,15.243c-0.271,0.124 -0.473,0.362 -0.551,0.65l-3.558,13.184c-0.062,0.233 -0.207,0.435 -0.408,0.57l-7.497,5.031c-0.132,0.088 -0.283,0.144 -0.441,0.163l-35.71,4.178c-0.192,0.023 -0.373,0.1 -0.522,0.224l-14.503,12.026c-0.134,0.111 -0.294,0.185 -0.465,0.215l-9.401,1.651c-0.209,0.036 -0.423,0.006 -0.613,-0.087l-19.741,-9.651c-0.137,-0.067 -0.287,-0.102 -0.439,-0.102l-10.835,0c-0.175,0 -0.348,0.046 -0.5,0.134l-33.537,19.375c-0.152,0.088 -0.325,0.134 -0.501,0.134l-11.976,0c-0.226,0 -0.445,-0.076 -0.622,-0.216l-7.14,-5.67c-0.094,-0.075 -0.201,-0.132 -0.316,-0.169l-11.205,-3.595c-0.196,-0.063 -0.407,-0.064 -0.603,-0.003l-17.724,5.531c-0.064,0.02 -0.13,0.033 -0.196,0.04l-20.363,2.071c-0.072,0.008 -0.145,0.007 -0.217,-0.001l-21.066,-2.46c-0.1539,-0.018 -0.3016,-0.072 -0.4313,-0.157l-21.0178,-13.744c-0.1273,-0.083 -0.2718,-0.136 -0.4227,-0.155l-8.5496,-1.075c-0.2084,-0.026 -0.4197,0.014 -0.604,0.115l-17.6144,9.619c-0.147,0.08 -0.3118,0.122 -0.4793,0.122z"/>
        <path id="svg_29" stroke-linecap="round" stroke-width="2" stroke="url(#paint1_linear_377_851)"
              d="m21.756,218.068c0,0 16.1533,1.576 25.1161,0c11.0366,-1.941 6.9453,-8.149 18.1874,-9.896c19.4677,-3.025 16.5797,12.88 36.3745,15.551c13.445,1.814 23.346,2.239 36.375,0c8.285,-1.424 9.166,-5.471 18.187,-5.655c12.604,-0.257 9.246,7.606 20.461,9.896c26.277,5.364 30.559,-25.156 56.836,-19.792c11.215,2.29 7.994,9.118 20.461,9.896c16.824,1.051 10.939,-10.338 25.007,-14.137c12.232,-3.303 24.947,-0.515 36.375,-4.241c15.821,-5.159 0.031,-14.664 15.914,-19.792c8.868,-2.864 16.18,-14.568 37.623,-17.083c18.84,-2.209 39.198,6.83 49.291,4c20.508,-5.749 27.06,-32.214 51.819,-30.5c17.176,1.19 50.787,-5.216 64.457,-9.5c31.75,-9.948 29.013,-24.862 69.513,-25c11.013,-0.037 23.345,7.895 34.124,7c18.551,-1.539 15.521,-11.4345 34.125,-9.9994c7.812,0.6027 34.239,-1.0214 40.411,-1.4161c0.794,-0.0508 1.527,0.3624 1.903,1.0644c2.361,4.4051 10.975,19.9021 14.56,18.3511c14.072,-6.089 16.43,-14 34.124,-20.9996"/>
        <path id="svg_30" fill="white"
              d="m28.0113,261.315l0,-6.48l0.6075,0l2.547,5.45l2.5335,-5.45l0.6165,0l0,6.476l-0.63,0l0,-5l-2.3085,5.004l-0.4275,0l-2.304,-5.004l0,5.004l-0.6345,0zm9.5969,0.135c-0.483,0 -0.8955,-0.109 -1.2375,-0.328c-0.342,-0.219 -0.6045,-0.522 -0.7875,-0.909c-0.183,-0.387 -0.2745,-0.831 -0.2745,-1.332c0,-0.51 0.093,-0.957 0.279,-1.341c0.186,-0.384 0.45,-0.683 0.792,-0.896c0.345,-0.216 0.7545,-0.324 1.2285,-0.324c0.486,0 0.9,0.11 1.242,0.329c0.345,0.216 0.6075,0.517 0.7875,0.904c0.183,0.384 0.2745,0.827 0.2745,1.328c0,0.51 -0.0915,0.958 -0.2745,1.345c-0.183,0.384 -0.447,0.684 -0.792,0.9c-0.345,0.216 -0.7575,0.324 -1.2375,0.324zm0,-0.634c0.54,0 0.942,-0.179 1.206,-0.536c0.264,-0.36 0.396,-0.826 0.396,-1.399c0,-0.588 -0.1335,-1.056 -0.4005,-1.404c-0.264,-0.348 -0.6645,-0.522 -1.2015,-0.522c-0.363,0 -0.663,0.082 -0.9,0.247c-0.234,0.162 -0.4095,0.389 -0.5265,0.68c-0.114,0.288 -0.171,0.621 -0.171,0.999c0,0.585 0.135,1.054 0.405,1.408c0.27,0.351 0.6675,0.527 1.1925,0.527zm6.8067,0.499l0,-2.479c0,-0.27 -0.0255,-0.518 -0.0765,-0.743c-0.051,-0.228 -0.1335,-0.426 -0.2475,-0.594c-0.111,-0.171 -0.2565,-0.303 -0.4365,-0.396c-0.177,-0.093 -0.393,-0.139 -0.648,-0.139c-0.234,0 -0.441,0.04 -0.621,0.121c-0.177,0.081 -0.327,0.198 -0.45,0.351c-0.12,0.15 -0.2115,0.333 -0.2745,0.549c-0.063,0.216 -0.0945,0.462 -0.0945,0.738l-0.468,-0.103c0,-0.498 0.087,-0.917 0.261,-1.256c0.174,-0.339 0.414,-0.595 0.72,-0.769c0.306,-0.174 0.657,-0.261 1.053,-0.261c0.291,0 0.5445,0.045 0.7605,0.135c0.219,0.09 0.4035,0.211 0.5535,0.364c0.153,0.153 0.276,0.329 0.369,0.527c0.093,0.195 0.1605,0.403 0.2025,0.625c0.042,0.219 0.063,0.438 0.063,0.657l0,2.673l-0.666,0zm-3.5145,0l0,-4.86l0.5985,0l0,1.197l0.0675,0l0,3.663l-0.666,0z"/>
        <path id="svg_31" fill="#A3A3A3"
              d="m33.0452,279.315l0,-7.656l-1.626,0.978l0,-0.99l1.626,-0.972l0.894,0l0,8.64l-0.894,0zm5.7198,0.18c-0.448,0 -0.862,-0.092 -1.242,-0.276c-0.38,-0.184 -0.704,-0.438 -0.972,-0.762c-0.268,-0.324 -0.46,-0.696 -0.576,-1.116l0.846,-0.228c0.076,0.312 0.214,0.582 0.414,0.81c0.2,0.224 0.434,0.398 0.702,0.522c0.272,0.124 0.556,0.186 0.852,0.186c0.384,0 0.728,-0.092 1.032,-0.276c0.308,-0.188 0.552,-0.436 0.732,-0.744c0.18,-0.308 0.27,-0.646 0.27,-1.014c0,-0.38 -0.094,-0.722 -0.282,-1.026c-0.188,-0.308 -0.436,-0.552 -0.744,-0.732c-0.308,-0.18 -0.644,-0.27 -1.008,-0.27c-0.408,0 -0.76,0.09 -1.056,0.27c-0.296,0.176 -0.532,0.398 -0.708,0.666l-0.804,-0.336l0.264,-4.494l4.614,0l0,0.846l-4.224,0l0.438,-0.414l-0.234,3.834l-0.222,-0.294c0.248,-0.284 0.548,-0.506 0.9,-0.666c0.352,-0.16 0.722,-0.24 1.11,-0.24c0.532,0 1.012,0.128 1.44,0.384c0.428,0.252 0.768,0.594 1.02,1.026c0.252,0.432 0.378,0.914 0.378,1.446c0,0.528 -0.134,1.012 -0.402,1.452c-0.268,0.436 -0.624,0.786 -1.068,1.05c-0.444,0.264 -0.934,0.396 -1.47,0.396z"/>
        <path id="svg_32" fill="white"
              d="m134.017,261.315l0,-5.845l-2.264,0l0,-0.635l5.189,0l0,0.635l-2.264,0l0,5.845l-0.661,0zm5.057,0.122c-0.291,0 -0.546,-0.045 -0.765,-0.135c-0.216,-0.09 -0.401,-0.212 -0.554,-0.365c-0.15,-0.153 -0.271,-0.327 -0.364,-0.522c-0.093,-0.198 -0.161,-0.406 -0.203,-0.625c-0.042,-0.222 -0.063,-0.443 -0.063,-0.662l0,-2.673l0.666,0l0,2.48c0,0.267 0.026,0.514 0.077,0.742c0.051,0.228 0.132,0.428 0.243,0.599c0.114,0.168 0.259,0.298 0.436,0.391c0.18,0.093 0.398,0.14 0.653,0.14c0.234,0 0.439,-0.041 0.616,-0.122c0.18,-0.081 0.33,-0.196 0.45,-0.346c0.123,-0.153 0.216,-0.338 0.279,-0.554c0.063,-0.219 0.095,-0.465 0.095,-0.738l0.468,0.104c0,0.498 -0.087,0.916 -0.261,1.255c-0.174,0.339 -0.414,0.596 -0.72,0.77c-0.306,0.174 -0.657,0.261 -1.053,0.261zm1.633,-0.122l0,-1.197l-0.067,0l0,-3.663l0.661,0l0,4.86l-0.594,0zm3.909,0.135c-0.474,0 -0.885,-0.105 -1.233,-0.315c-0.345,-0.21 -0.614,-0.505 -0.806,-0.886c-0.192,-0.381 -0.288,-0.828 -0.288,-1.341c0,-0.531 0.095,-0.99 0.284,-1.377c0.189,-0.387 0.454,-0.686 0.796,-0.896c0.345,-0.21 0.752,-0.315 1.22,-0.315c0.48,0 0.889,0.111 1.228,0.333c0.339,0.219 0.596,0.534 0.77,0.945c0.174,0.411 0.253,0.902 0.238,1.472l-0.675,0l0,-0.234c-0.012,-0.63 -0.148,-1.106 -0.409,-1.427c-0.258,-0.321 -0.636,-0.481 -1.134,-0.481c-0.522,0 -0.923,0.169 -1.202,0.508c-0.276,0.339 -0.414,0.822 -0.414,1.449c0,0.612 0.138,1.088 0.414,1.427c0.279,0.336 0.674,0.504 1.184,0.504c0.348,0 0.651,-0.08 0.909,-0.239c0.261,-0.162 0.466,-0.394 0.616,-0.697l0.617,0.238c-0.192,0.423 -0.476,0.752 -0.851,0.986c-0.372,0.231 -0.793,0.346 -1.264,0.346zm-1.859,-2.38l0,-0.554l3.713,0l0,0.554l-3.713,0z"/>
        <path id="svg_33" fill="#A3A3A3"
              d="m135.716,279.315l0,-7.656l-1.626,0.978l0,-0.99l1.626,-0.972l0.894,0l0,8.64l-0.894,0zm6.092,0.18c-0.54,0 -1.032,-0.13 -1.476,-0.39c-0.44,-0.264 -0.792,-0.62 -1.056,-1.068c-0.26,-0.452 -0.39,-0.96 -0.39,-1.524l0,-2.994c0,-0.58 0.13,-1.096 0.39,-1.548c0.26,-0.456 0.614,-0.814 1.062,-1.074c0.452,-0.264 0.964,-0.396 1.536,-0.396c0.492,0 0.948,0.108 1.368,0.324c0.424,0.216 0.77,0.518 1.038,0.906l-0.678,0.558c-0.184,-0.288 -0.428,-0.518 -0.732,-0.69c-0.304,-0.172 -0.636,-0.258 -0.996,-0.258c-0.404,0 -0.764,0.098 -1.08,0.294c-0.316,0.196 -0.564,0.454 -0.744,0.774c-0.18,0.316 -0.27,0.66 -0.27,1.032l0,1.884l-0.222,-0.252c0.252,-0.396 0.582,-0.716 0.99,-0.96c0.412,-0.244 0.86,-0.366 1.344,-0.366c0.536,0 1.018,0.128 1.446,0.384c0.428,0.252 0.768,0.594 1.02,1.026c0.252,0.432 0.378,0.916 0.378,1.452c0,0.532 -0.134,1.016 -0.402,1.452c-0.264,0.436 -0.618,0.784 -1.062,1.044c-0.44,0.26 -0.928,0.39 -1.464,0.39zm0,-0.858c0.376,0 0.718,-0.09 1.026,-0.27c0.312,-0.18 0.558,-0.424 0.738,-0.732c0.184,-0.308 0.276,-0.65 0.276,-1.026c0,-0.376 -0.092,-0.718 -0.276,-1.026c-0.18,-0.312 -0.424,-0.558 -0.732,-0.738c-0.308,-0.184 -0.65,-0.276 -1.026,-0.276c-0.376,0 -0.718,0.092 -1.026,0.276c-0.308,0.18 -0.554,0.426 -0.738,0.738c-0.18,0.308 -0.27,0.65 -0.27,1.026c0,0.372 0.09,0.712 0.27,1.02c0.18,0.308 0.424,0.554 0.732,0.738c0.308,0.18 0.65,0.27 1.026,0.27z"/>
        <path id="svg_34" fill="white"
              d="m235.636,261.315l-1.872,-6.48l0.688,0l1.517,5.351l1.507,-5.346l0.693,-0.005l1.517,5.351l1.507,-5.351l0.693,0l-1.867,6.48l-0.666,0l-1.53,-5.314l-1.521,5.314l-0.666,0zm8.55,0.135c-0.474,0 -0.885,-0.105 -1.233,-0.315c-0.345,-0.21 -0.614,-0.505 -0.806,-0.886c-0.192,-0.381 -0.288,-0.828 -0.288,-1.341c0,-0.531 0.095,-0.99 0.284,-1.377c0.189,-0.387 0.454,-0.686 0.796,-0.896c0.345,-0.21 0.752,-0.315 1.22,-0.315c0.48,0 0.889,0.111 1.228,0.333c0.339,0.219 0.596,0.534 0.77,0.945c0.174,0.411 0.253,0.902 0.238,1.472l-0.675,0l0,-0.234c-0.012,-0.63 -0.148,-1.106 -0.409,-1.427c-0.258,-0.321 -0.636,-0.481 -1.134,-0.481c-0.522,0 -0.923,0.169 -1.202,0.508c-0.276,0.339 -0.414,0.822 -0.414,1.449c0,0.612 0.138,1.088 0.414,1.427c0.279,0.336 0.674,0.504 1.184,0.504c0.348,0 0.651,-0.08 0.909,-0.239c0.261,-0.162 0.466,-0.394 0.616,-0.697l0.617,0.238c-0.192,0.423 -0.476,0.752 -0.851,0.986c-0.372,0.231 -0.793,0.346 -1.264,0.346zm-1.859,-2.38l0,-0.554l3.713,0l0,0.554l-3.713,0zm6.952,2.38c-0.453,0 -0.84,-0.112 -1.161,-0.337c-0.321,-0.228 -0.567,-0.536 -0.738,-0.923c-0.171,-0.387 -0.256,-0.823 -0.256,-1.309c0,-0.483 0.084,-0.918 0.252,-1.305c0.171,-0.387 0.415,-0.693 0.733,-0.918c0.318,-0.225 0.699,-0.338 1.143,-0.338c0.456,0 0.84,0.111 1.152,0.333c0.312,0.222 0.548,0.527 0.707,0.914c0.162,0.384 0.243,0.822 0.243,1.314c0,0.483 -0.08,0.919 -0.239,1.309c-0.159,0.387 -0.393,0.695 -0.702,0.923c-0.309,0.225 -0.687,0.337 -1.134,0.337zm0.068,-0.616c0.345,0 0.63,-0.084 0.855,-0.252c0.225,-0.168 0.393,-0.399 0.504,-0.693c0.111,-0.297 0.166,-0.633 0.166,-1.008c0,-0.381 -0.055,-0.717 -0.166,-1.008c-0.111,-0.294 -0.279,-0.524 -0.504,-0.689c-0.222,-0.165 -0.503,-0.247 -0.842,-0.247c-0.348,0 -0.636,0.085 -0.864,0.256c-0.228,0.171 -0.397,0.404 -0.508,0.698c-0.108,0.294 -0.162,0.624 -0.162,0.99c0,0.369 0.055,0.702 0.166,0.999c0.114,0.294 0.284,0.526 0.509,0.697c0.225,0.171 0.507,0.257 0.846,0.257zm1.525,0.481l0,-3.658l-0.072,0l0,-2.822l0.666,0l0,6.48l-0.594,0z"/>
        <path id="svg_35" fill="#A3A3A3" d="m239.854,279.315l0,-7.656l-1.626,0.978l0,-0.99l1.626,-0.972l0.894,0l0,8.64l-0.894,0zm3.631,0l3.18,-7.782l-4.002,0l0,-0.858l4.944,0l0,0.858l-3.174,7.782l-0.948,0z"/>
        <path id="svg_36" fill="white"
              d="m341.11,261.315l0,-5.845l-2.263,0l0,-0.635l5.188,0l0,0.635l-2.263,0l0,5.845l-0.662,0zm7.157,0l0,-2.479c0,-0.27 -0.025,-0.518 -0.076,-0.743c-0.051,-0.228 -0.134,-0.426 -0.248,-0.594c-0.111,-0.171 -0.256,-0.303 -0.436,-0.396c-0.177,-0.093 -0.393,-0.139 -0.648,-0.139c-0.234,0 -0.441,0.04 -0.621,0.121c-0.177,0.081 -0.327,0.198 -0.45,0.351c-0.12,0.15 -0.212,0.333 -0.275,0.549c-0.063,0.216 -0.094,0.462 -0.094,0.738l-0.468,-0.103c0,-0.498 0.087,-0.917 0.261,-1.256c0.174,-0.339 0.414,-0.595 0.72,-0.769c0.306,-0.174 0.657,-0.261 1.053,-0.261c0.291,0 0.544,0.045 0.76,0.135c0.219,0.09 0.404,0.211 0.554,0.364c0.153,0.153 0.276,0.329 0.369,0.527c0.093,0.195 0.16,0.403 0.202,0.625c0.042,0.219 0.063,0.438 0.063,0.657l0,2.673l-0.666,0zm-3.514,0l0,-6.48l0.598,0l0,3.659l0.068,0l0,2.821l-0.666,0zm7.206,0.122c-0.291,0 -0.546,-0.045 -0.765,-0.135c-0.216,-0.09 -0.4,-0.212 -0.553,-0.365c-0.15,-0.153 -0.272,-0.327 -0.365,-0.522c-0.093,-0.198 -0.16,-0.406 -0.202,-0.625c-0.042,-0.222 -0.063,-0.443 -0.063,-0.662l0,-2.673l0.666,0l0,2.48c0,0.267 0.025,0.514 0.076,0.742c0.051,0.228 0.132,0.428 0.243,0.599c0.114,0.168 0.26,0.298 0.437,0.391c0.18,0.093 0.397,0.14 0.652,0.14c0.234,0 0.44,-0.041 0.617,-0.122c0.18,-0.081 0.33,-0.196 0.45,-0.346c0.123,-0.153 0.216,-0.338 0.279,-0.554c0.063,-0.219 0.094,-0.465 0.094,-0.738l0.468,0.104c0,0.498 -0.087,0.916 -0.261,1.255c-0.174,0.339 -0.414,0.596 -0.72,0.77c-0.306,0.174 -0.657,0.261 -1.053,0.261zm1.634,-0.122l0,-1.197l-0.068,0l0,-3.663l0.662,0l0,4.86l-0.594,0z"/>
        <path id="svg_37" fill="#A3A3A3"
              d="m343.313,279.315l0,-7.656l-1.626,0.978l0,-0.99l1.626,-0.972l0.894,0l0,8.64l-0.894,0zm5.804,0.18c-0.54,0 -1.018,-0.108 -1.434,-0.324c-0.412,-0.216 -0.736,-0.518 -0.972,-0.906c-0.232,-0.392 -0.348,-0.85 -0.348,-1.374c0,-0.536 0.13,-1.012 0.39,-1.428c0.26,-0.42 0.656,-0.738 1.188,-0.954l-0.012,0.348c-0.444,-0.164 -0.782,-0.432 -1.014,-0.804c-0.232,-0.372 -0.348,-0.784 -0.348,-1.236c0,-0.48 0.11,-0.892 0.33,-1.236c0.22,-0.348 0.52,-0.616 0.9,-0.804c0.384,-0.188 0.824,-0.282 1.32,-0.282c0.496,0 0.936,0.094 1.32,0.282c0.384,0.188 0.686,0.456 0.906,0.804c0.22,0.344 0.33,0.756 0.33,1.236c0,0.452 -0.112,0.862 -0.336,1.23c-0.22,0.368 -0.558,0.638 -1.014,0.81l-0.03,-0.348c0.532,0.212 0.93,0.528 1.194,0.948c0.268,0.42 0.402,0.898 0.402,1.434c0,0.524 -0.118,0.982 -0.354,1.374c-0.236,0.388 -0.562,0.69 -0.978,0.906c-0.416,0.216 -0.896,0.324 -1.44,0.324zm0,-0.846c0.544,0 0.986,-0.15 1.326,-0.45c0.34,-0.304 0.51,-0.74 0.51,-1.308c0,-0.576 -0.168,-1.012 -0.504,-1.308c-0.336,-0.3 -0.78,-0.45 -1.332,-0.45c-0.552,0 -0.994,0.15 -1.326,0.45c-0.332,0.296 -0.498,0.732 -0.498,1.308c0,0.568 0.168,1.004 0.504,1.308c0.336,0.3 0.776,0.45 1.32,0.45zm0,-4.368c0.48,0 0.87,-0.122 1.17,-0.366c0.3,-0.248 0.45,-0.614 0.45,-1.098c0,-0.484 -0.15,-0.846 -0.45,-1.086c-0.3,-0.244 -0.69,-0.366 -1.17,-0.366c-0.48,0 -0.87,0.122 -1.17,0.366c-0.296,0.24 -0.444,0.602 -0.444,1.086c0,0.484 0.148,0.85 0.444,1.098c0.3,0.244 0.69,0.366 1.17,0.366z"/>
        <path id="svg_38" fill="white"
              d="m440.905,261.315l0,-6.48l3.721,0l0,0.662l-3.06,0l0,2.25l2.52,0l0,0.657l-2.52,0l0,2.911l-0.661,0zm4.535,0l0,-4.86l0.594,0l0,1.17l-0.117,-0.153c0.054,-0.144 0.124,-0.276 0.211,-0.396c0.087,-0.123 0.182,-0.223 0.284,-0.301c0.126,-0.111 0.273,-0.195 0.441,-0.252c0.168,-0.06 0.337,-0.095 0.508,-0.104c0.171,-0.012 0.327,0 0.468,0.036l0,0.621c-0.177,-0.045 -0.37,-0.055 -0.58,-0.031c-0.21,0.024 -0.404,0.108 -0.581,0.252c-0.162,0.126 -0.283,0.277 -0.364,0.454c-0.081,0.174 -0.135,0.36 -0.162,0.558c-0.027,0.195 -0.041,0.389 -0.041,0.581l0,2.425l-0.661,0zm3.333,-5.782l0,-0.743l0.662,0l0,0.743l-0.662,0zm0,5.782l0,-4.86l0.662,0l0,4.86l-0.662,0z"/>
        <path id="svg_39" fill="#A3A3A3"
              d="m441.502,279.315l0,-7.656l-1.626,0.978l0,-0.99l1.626,-0.972l0.894,0l0,8.64l-0.894,0zm6.013,-8.814c0.544,0 1.036,0.132 1.476,0.396c0.444,0.26 0.796,0.616 1.056,1.068c0.26,0.448 0.39,0.952 0.39,1.512l0,3c0,0.576 -0.13,1.092 -0.39,1.548c-0.26,0.456 -0.616,0.816 -1.068,1.08c-0.448,0.26 -0.958,0.39 -1.53,0.39c-0.492,0 -0.948,-0.108 -1.368,-0.324c-0.416,-0.22 -0.76,-0.522 -1.032,-0.906l0.672,-0.558c0.184,0.284 0.428,0.512 0.732,0.684c0.308,0.172 0.64,0.258 0.996,0.258c0.408,0 0.768,-0.096 1.08,-0.288c0.316,-0.196 0.564,-0.452 0.744,-0.768c0.184,-0.32 0.276,-0.666 0.276,-1.038l0,-1.884l0.216,0.252c-0.248,0.396 -0.578,0.716 -0.99,0.96c-0.408,0.244 -0.856,0.366 -1.344,0.366c-0.532,0 -1.014,-0.128 -1.446,-0.384c-0.428,-0.256 -0.768,-0.6 -1.02,-1.032c-0.248,-0.432 -0.372,-0.914 -0.372,-1.446c0,-0.532 0.132,-1.016 0.396,-1.452c0.264,-0.44 0.618,-0.788 1.062,-1.044c0.444,-0.26 0.932,-0.39 1.464,-0.39zm0,0.852c-0.376,0 -0.718,0.092 -1.026,0.276c-0.308,0.18 -0.554,0.424 -0.738,0.732c-0.18,0.308 -0.27,0.65 -0.27,1.026c0,0.376 0.09,0.718 0.27,1.026c0.18,0.308 0.424,0.554 0.732,0.738c0.308,0.18 0.65,0.27 1.026,0.27c0.376,0 0.718,-0.09 1.026,-0.27c0.312,-0.184 0.558,-0.43 0.738,-0.738c0.184,-0.308 0.276,-0.65 0.276,-1.026c0,-0.372 -0.092,-0.712 -0.276,-1.02c-0.18,-0.308 -0.424,-0.554 -0.732,-0.738c-0.308,-0.184 -0.65,-0.276 -1.026,-0.276z"/>
        <path id="svg_40" fill="white"
              d="m537.948,261.45c-0.453,0 -0.861,-0.075 -1.224,-0.225c-0.36,-0.153 -0.659,-0.369 -0.896,-0.648c-0.234,-0.279 -0.387,-0.61 -0.459,-0.994l0.675,-0.113c0.108,0.42 0.336,0.75 0.684,0.99c0.348,0.237 0.764,0.356 1.247,0.356c0.318,0 0.603,-0.05 0.855,-0.149c0.252,-0.102 0.45,-0.246 0.594,-0.432c0.144,-0.186 0.216,-0.406 0.216,-0.661c0,-0.168 -0.03,-0.311 -0.09,-0.428c-0.06,-0.12 -0.14,-0.219 -0.239,-0.297c-0.099,-0.078 -0.207,-0.142 -0.324,-0.193c-0.117,-0.054 -0.231,-0.098 -0.342,-0.131l-1.642,-0.49c-0.198,-0.057 -0.381,-0.129 -0.549,-0.216c-0.168,-0.09 -0.315,-0.197 -0.441,-0.32c-0.123,-0.126 -0.219,-0.273 -0.288,-0.441c-0.069,-0.168 -0.104,-0.36 -0.104,-0.576c0,-0.366 0.096,-0.682 0.288,-0.949c0.192,-0.267 0.455,-0.473 0.788,-0.617c0.333,-0.144 0.712,-0.214 1.138,-0.211c0.432,0 0.818,0.076 1.157,0.229c0.342,0.153 0.624,0.372 0.846,0.657c0.222,0.282 0.369,0.617 0.441,1.004l-0.693,0.126c-0.045,-0.282 -0.149,-0.527 -0.311,-0.734c-0.162,-0.207 -0.369,-0.366 -0.621,-0.477c-0.249,-0.114 -0.523,-0.172 -0.823,-0.175c-0.291,0 -0.551,0.049 -0.779,0.148c-0.225,0.096 -0.403,0.228 -0.535,0.396c-0.132,0.168 -0.198,0.36 -0.198,0.576c0,0.219 0.06,0.395 0.18,0.527c0.123,0.132 0.273,0.235 0.45,0.31c0.18,0.075 0.354,0.137 0.522,0.185l1.269,0.373c0.132,0.036 0.286,0.089 0.463,0.158c0.18,0.066 0.354,0.162 0.522,0.288c0.171,0.123 0.312,0.285 0.423,0.486c0.111,0.201 0.167,0.456 0.167,0.765c0,0.3 -0.06,0.568 -0.18,0.805c-0.117,0.237 -0.284,0.437 -0.5,0.599c-0.213,0.162 -0.463,0.285 -0.751,0.369c-0.285,0.087 -0.597,0.13 -0.936,0.13zm4.686,0c-0.366,0 -0.673,-0.066 -0.922,-0.198c-0.246,-0.132 -0.431,-0.307 -0.554,-0.526c-0.123,-0.219 -0.184,-0.458 -0.184,-0.716c0,-0.264 0.052,-0.489 0.157,-0.675c0.108,-0.189 0.254,-0.343 0.437,-0.463c0.186,-0.12 0.4,-0.212 0.643,-0.275c0.246,-0.06 0.518,-0.112 0.815,-0.157c0.3,-0.048 0.592,-0.089 0.877,-0.122c0.288,-0.036 0.54,-0.07 0.756,-0.103l-0.234,0.144c0.009,-0.48 -0.084,-0.836 -0.279,-1.067c-0.195,-0.231 -0.534,-0.346 -1.017,-0.346c-0.333,0 -0.615,0.075 -0.846,0.225c-0.228,0.15 -0.388,0.387 -0.481,0.711l-0.644,-0.189c0.111,-0.435 0.335,-0.773 0.671,-1.013c0.336,-0.24 0.772,-0.36 1.309,-0.36c0.444,0 0.821,0.084 1.13,0.252c0.312,0.165 0.532,0.405 0.661,0.72c0.06,0.141 0.099,0.299 0.117,0.473c0.018,0.174 0.027,0.351 0.027,0.531l0,3.019l-0.589,0l0,-1.219l0.171,0.072c-0.165,0.417 -0.422,0.735 -0.77,0.954c-0.348,0.219 -0.765,0.328 -1.251,0.328zm0.077,-0.571c0.309,0 0.579,-0.056 0.81,-0.167c0.231,-0.111 0.417,-0.262 0.558,-0.454c0.141,-0.195 0.232,-0.414 0.274,-0.657c0.036,-0.156 0.056,-0.327 0.059,-0.513c0.003,-0.189 0.004,-0.33 0.004,-0.423l0.252,0.13c-0.225,0.03 -0.469,0.06 -0.733,0.09c-0.261,0.03 -0.519,0.065 -0.774,0.104c-0.252,0.039 -0.48,0.085 -0.684,0.139c-0.138,0.039 -0.272,0.095 -0.401,0.167c-0.129,0.069 -0.235,0.162 -0.319,0.279c-0.081,0.117 -0.122,0.262 -0.122,0.436c0,0.141 0.035,0.278 0.104,0.41c0.072,0.132 0.186,0.241 0.342,0.328c0.159,0.087 0.369,0.131 0.63,0.131zm6.18,0.436c-0.273,0.057 -0.543,0.08 -0.81,0.068c-0.264,-0.012 -0.501,-0.069 -0.711,-0.171c-0.207,-0.102 -0.365,-0.261 -0.473,-0.477c-0.087,-0.18 -0.135,-0.362 -0.144,-0.545c-0.006,-0.186 -0.009,-0.397 -0.009,-0.634l0,-4.451l0.657,0l0,4.424c0,0.204 0.002,0.375 0.005,0.513c0.006,0.135 0.037,0.255 0.094,0.36c0.108,0.201 0.279,0.321 0.513,0.36c0.237,0.039 0.53,0.03 0.878,-0.027l0,0.58zm-3.186,-4.293l0,-0.567l3.186,0l0,0.567l-3.186,0z"/>
        <path id="svg_41" fill="#A3A3A3"
              d="m535.659,279.309l0.006,-0.804l3.906,-3.528c0.336,-0.304 0.558,-0.592 0.666,-0.864c0.112,-0.276 0.168,-0.564 0.168,-0.864c0,-0.356 -0.084,-0.678 -0.252,-0.966c-0.168,-0.288 -0.394,-0.516 -0.678,-0.684c-0.284,-0.172 -0.602,-0.258 -0.954,-0.258c-0.368,0 -0.696,0.088 -0.984,0.264c-0.288,0.176 -0.516,0.408 -0.684,0.696c-0.164,0.288 -0.244,0.602 -0.24,0.942l-0.9,0c0,-0.524 0.124,-0.994 0.372,-1.41c0.248,-0.416 0.584,-0.742 1.008,-0.978c0.424,-0.24 0.904,-0.36 1.44,-0.36c0.524,0 0.994,0.124 1.41,0.372c0.42,0.244 0.75,0.576 0.99,0.996c0.244,0.416 0.366,0.88 0.366,1.392c0,0.36 -0.044,0.678 -0.132,0.954c-0.084,0.272 -0.218,0.526 -0.402,0.762c-0.18,0.232 -0.41,0.472 -0.69,0.72l-3.468,3.132l-0.138,-0.36l4.83,0l0,0.846l-5.64,0zm9.904,0.186c-0.532,0 -1.012,-0.124 -1.44,-0.372c-0.424,-0.248 -0.76,-0.584 -1.008,-1.008c-0.248,-0.428 -0.372,-0.908 -0.372,-1.44l0,-3.36c0,-0.532 0.124,-1.01 0.372,-1.434c0.248,-0.428 0.584,-0.766 1.008,-1.014c0.428,-0.248 0.908,-0.372 1.44,-0.372c0.532,0 1.01,0.124 1.434,0.372c0.428,0.248 0.766,0.586 1.014,1.014c0.248,0.424 0.372,0.902 0.372,1.434l0,3.36c0,0.532 -0.124,1.012 -0.372,1.44c-0.248,0.424 -0.586,0.76 -1.014,1.008c-0.424,0.248 -0.902,0.372 -1.434,0.372zm0,-0.852c0.356,0 0.68,-0.086 0.972,-0.258c0.292,-0.176 0.524,-0.41 0.696,-0.702c0.172,-0.292 0.258,-0.614 0.258,-0.966l0,-3.444c0,-0.356 -0.086,-0.68 -0.258,-0.972c-0.172,-0.292 -0.404,-0.524 -0.696,-0.696c-0.292,-0.176 -0.616,-0.264 -0.972,-0.264c-0.356,0 -0.68,0.088 -0.972,0.264c-0.292,0.172 -0.524,0.404 -0.696,0.696c-0.172,0.292 -0.258,0.616 -0.258,0.972l0,3.444c0,0.352 0.086,0.674 0.258,0.966c0.172,0.292 0.404,0.526 0.696,0.702c0.292,0.172 0.616,0.258 0.972,0.258z"/>
        <path id="svg_42" fill="white"
              d="m637.835,261.45c-0.453,0 -0.861,-0.075 -1.224,-0.225c-0.36,-0.153 -0.659,-0.369 -0.896,-0.648c-0.234,-0.279 -0.387,-0.61 -0.459,-0.994l0.675,-0.113c0.108,0.42 0.336,0.75 0.684,0.99c0.348,0.237 0.764,0.356 1.247,0.356c0.318,0 0.603,-0.05 0.855,-0.149c0.252,-0.102 0.45,-0.246 0.594,-0.432c0.144,-0.186 0.216,-0.406 0.216,-0.661c0,-0.168 -0.03,-0.311 -0.09,-0.428c-0.06,-0.12 -0.14,-0.219 -0.239,-0.297c-0.099,-0.078 -0.207,-0.142 -0.324,-0.193c-0.117,-0.054 -0.231,-0.098 -0.342,-0.131l-1.642,-0.49c-0.198,-0.057 -0.381,-0.129 -0.549,-0.216c-0.168,-0.09 -0.315,-0.197 -0.441,-0.32c-0.123,-0.126 -0.219,-0.273 -0.288,-0.441c-0.069,-0.168 -0.104,-0.36 -0.104,-0.576c0,-0.366 0.096,-0.682 0.288,-0.949c0.192,-0.267 0.455,-0.473 0.788,-0.617c0.333,-0.144 0.712,-0.214 1.138,-0.211c0.432,0 0.818,0.076 1.157,0.229c0.342,0.153 0.624,0.372 0.846,0.657c0.222,0.282 0.369,0.617 0.441,1.004l-0.693,0.126c-0.045,-0.282 -0.149,-0.527 -0.311,-0.734c-0.162,-0.207 -0.369,-0.366 -0.621,-0.477c-0.249,-0.114 -0.523,-0.172 -0.823,-0.175c-0.291,0 -0.551,0.049 -0.779,0.148c-0.225,0.096 -0.403,0.228 -0.535,0.396c-0.132,0.168 -0.198,0.36 -0.198,0.576c0,0.219 0.06,0.395 0.18,0.527c0.123,0.132 0.273,0.235 0.45,0.31c0.18,0.075 0.354,0.137 0.522,0.185l1.269,0.373c0.132,0.036 0.286,0.089 0.463,0.158c0.18,0.066 0.354,0.162 0.522,0.288c0.171,0.123 0.312,0.285 0.423,0.486c0.111,0.201 0.167,0.456 0.167,0.765c0,0.3 -0.06,0.568 -0.18,0.805c-0.117,0.237 -0.284,0.437 -0.5,0.599c-0.213,0.162 -0.463,0.285 -0.751,0.369c-0.285,0.087 -0.597,0.13 -0.936,0.13zm5.154,-0.013c-0.291,0 -0.546,-0.045 -0.765,-0.135c-0.216,-0.09 -0.4,-0.212 -0.553,-0.365c-0.15,-0.153 -0.272,-0.327 -0.365,-0.522c-0.093,-0.198 -0.16,-0.406 -0.202,-0.625c-0.042,-0.222 -0.063,-0.443 -0.063,-0.662l0,-2.673l0.666,0l0,2.48c0,0.267 0.025,0.514 0.076,0.742c0.051,0.228 0.132,0.428 0.243,0.599c0.114,0.168 0.26,0.298 0.437,0.391c0.18,0.093 0.397,0.14 0.652,0.14c0.234,0 0.44,-0.041 0.617,-0.122c0.18,-0.081 0.33,-0.196 0.45,-0.346c0.123,-0.153 0.216,-0.338 0.279,-0.554c0.063,-0.219 0.094,-0.465 0.094,-0.738l0.468,0.104c0,0.498 -0.087,0.916 -0.261,1.255c-0.174,0.339 -0.414,0.596 -0.72,0.77c-0.306,0.174 -0.657,0.261 -1.053,0.261zm1.634,-0.122l0,-1.197l-0.068,0l0,-3.663l0.662,0l0,4.86l-0.594,0zm5.361,0l0,-2.479c0,-0.27 -0.025,-0.518 -0.076,-0.743c-0.051,-0.228 -0.134,-0.426 -0.248,-0.594c-0.111,-0.171 -0.256,-0.303 -0.436,-0.396c-0.177,-0.093 -0.393,-0.139 -0.648,-0.139c-0.234,0 -0.441,0.04 -0.621,0.121c-0.177,0.081 -0.327,0.198 -0.45,0.351c-0.12,0.15 -0.212,0.333 -0.275,0.549c-0.063,0.216 -0.094,0.462 -0.094,0.738l-0.468,-0.103c0,-0.498 0.087,-0.917 0.261,-1.256c0.174,-0.339 0.414,-0.595 0.72,-0.769c0.306,-0.174 0.657,-0.261 1.053,-0.261c0.291,0 0.544,0.045 0.76,0.135c0.219,0.09 0.404,0.211 0.554,0.364c0.153,0.153 0.276,0.329 0.369,0.527c0.093,0.195 0.16,0.403 0.202,0.625c0.042,0.219 0.063,0.438 0.063,0.657l0,2.673l-0.666,0zm-3.514,0l0,-4.86l0.598,0l0,1.197l0.068,0l0,3.663l-0.666,0z"/>
        <path id="svg_43" fill="#A3A3A3"
              d="m637.912,279.309l0.006,-0.804l3.906,-3.528c0.336,-0.304 0.558,-0.592 0.666,-0.864c0.112,-0.276 0.168,-0.564 0.168,-0.864c0,-0.356 -0.084,-0.678 -0.252,-0.966c-0.168,-0.288 -0.394,-0.516 -0.678,-0.684c-0.284,-0.172 -0.602,-0.258 -0.954,-0.258c-0.368,0 -0.696,0.088 -0.984,0.264c-0.288,0.176 -0.516,0.408 -0.684,0.696c-0.164,0.288 -0.244,0.602 -0.24,0.942l-0.9,0c0,-0.524 0.124,-0.994 0.372,-1.41c0.248,-0.416 0.584,-0.742 1.008,-0.978c0.424,-0.24 0.904,-0.36 1.44,-0.36c0.524,0 0.994,0.124 1.41,0.372c0.42,0.244 0.75,0.576 0.99,0.996c0.244,0.416 0.366,0.88 0.366,1.392c0,0.36 -0.044,0.678 -0.132,0.954c-0.084,0.272 -0.218,0.526 -0.402,0.762c-0.18,0.232 -0.41,0.472 -0.69,0.72l-3.468,3.132l-0.138,-0.36l4.83,0l0,0.846l-5.64,0zm8.589,0.006l0,-7.656l-1.626,0.978l0,-0.99l1.626,-0.972l0.894,0l0,8.64l-0.894,0z"/>
        <path id="svg_44" fill="white"
              d="m738.011,261.315l0,-6.48l0.608,0l2.547,5.45l2.533,-5.45l0.617,0l0,6.476l-0.63,0l0,-5l-2.309,5.004l-0.427,0l-2.304,-5.004l0,5.004l-0.635,0zm9.597,0.135c-0.483,0 -0.895,-0.109 -1.237,-0.328c-0.342,-0.219 -0.605,-0.522 -0.788,-0.909c-0.183,-0.387 -0.274,-0.831 -0.274,-1.332c0,-0.51 0.093,-0.957 0.279,-1.341c0.186,-0.384 0.45,-0.683 0.792,-0.896c0.345,-0.216 0.754,-0.324 1.228,-0.324c0.486,0 0.9,0.11 1.242,0.329c0.345,0.216 0.608,0.517 0.788,0.904c0.183,0.384 0.274,0.827 0.274,1.328c0,0.51 -0.091,0.958 -0.274,1.345c-0.183,0.384 -0.447,0.684 -0.792,0.9c-0.345,0.216 -0.758,0.324 -1.238,0.324zm0,-0.634c0.54,0 0.942,-0.179 1.206,-0.536c0.264,-0.36 0.396,-0.826 0.396,-1.399c0,-0.588 -0.133,-1.056 -0.4,-1.404c-0.264,-0.348 -0.665,-0.522 -1.202,-0.522c-0.363,0 -0.663,0.082 -0.9,0.247c-0.234,0.162 -0.409,0.389 -0.526,0.68c-0.114,0.288 -0.171,0.621 -0.171,0.999c0,0.585 0.135,1.054 0.405,1.408c0.27,0.351 0.667,0.527 1.192,0.527zm6.807,0.499l0,-2.479c0,-0.27 -0.026,-0.518 -0.077,-0.743c-0.051,-0.228 -0.133,-0.426 -0.247,-0.594c-0.111,-0.171 -0.257,-0.303 -0.437,-0.396c-0.177,-0.093 -0.393,-0.139 -0.648,-0.139c-0.234,0 -0.441,0.04 -0.621,0.121c-0.177,0.081 -0.327,0.198 -0.45,0.351c-0.12,0.15 -0.211,0.333 -0.274,0.549c-0.063,0.216 -0.095,0.462 -0.095,0.738l-0.468,-0.103c0,-0.498 0.087,-0.917 0.261,-1.256c0.174,-0.339 0.414,-0.595 0.72,-0.769c0.306,-0.174 0.657,-0.261 1.053,-0.261c0.291,0 0.545,0.045 0.761,0.135c0.219,0.09 0.403,0.211 0.553,0.364c0.153,0.153 0.276,0.329 0.369,0.527c0.093,0.195 0.161,0.403 0.203,0.625c0.042,0.219 0.063,0.438 0.063,0.657l0,2.673l-0.666,0zm-3.515,0l0,-4.86l0.599,0l0,1.197l0.067,0l0,3.663l-0.666,0z"/>
        <path id="svg_45" fill="#A3A3A3"
              d="m740.256,279.309l0.006,-0.804l3.906,-3.528c0.336,-0.304 0.558,-0.592 0.666,-0.864c0.112,-0.276 0.168,-0.564 0.168,-0.864c0,-0.356 -0.084,-0.678 -0.252,-0.966c-0.168,-0.288 -0.394,-0.516 -0.678,-0.684c-0.284,-0.172 -0.602,-0.258 -0.954,-0.258c-0.368,0 -0.696,0.088 -0.984,0.264c-0.288,0.176 -0.516,0.408 -0.684,0.696c-0.164,0.288 -0.244,0.602 -0.24,0.942l-0.9,0c0,-0.524 0.124,-0.994 0.372,-1.41c0.248,-0.416 0.584,-0.742 1.008,-0.978c0.424,-0.24 0.904,-0.36 1.44,-0.36c0.524,0 0.994,0.124 1.41,0.372c0.42,0.244 0.75,0.576 0.99,0.996c0.244,0.416 0.366,0.88 0.366,1.392c0,0.36 -0.044,0.678 -0.132,0.954c-0.084,0.272 -0.218,0.526 -0.402,0.762c-0.18,0.232 -0.41,0.472 -0.69,0.72l-3.468,3.132l-0.138,-0.36l4.83,0l0,0.846l-5.64,0zm6.844,0l0.006,-0.804l3.906,-3.528c0.336,-0.304 0.558,-0.592 0.666,-0.864c0.112,-0.276 0.168,-0.564 0.168,-0.864c0,-0.356 -0.084,-0.678 -0.252,-0.966c-0.168,-0.288 -0.394,-0.516 -0.678,-0.684c-0.284,-0.172 -0.602,-0.258 -0.954,-0.258c-0.368,0 -0.696,0.088 -0.984,0.264c-0.288,0.176 -0.516,0.408 -0.684,0.696c-0.164,0.288 -0.244,0.602 -0.24,0.942l-0.9,0c0,-0.524 0.124,-0.994 0.372,-1.41c0.248,-0.416 0.584,-0.742 1.008,-0.978c0.424,-0.24 0.904,-0.36 1.44,-0.36c0.524,0 0.994,0.124 1.41,0.372c0.42,0.244 0.75,0.576 0.99,0.996c0.244,0.416 0.366,0.88 0.366,1.392c0,0.36 -0.044,0.678 -0.132,0.954c-0.084,0.272 -0.218,0.526 -0.402,0.762c-0.18,0.232 -0.41,0.472 -0.69,0.72l-3.468,3.132l-0.138,-0.36l4.83,0l0,0.846l-5.64,0z"/>
        <text font-weight="400" xml:space="preserve" text-anchor="start" font-family="'Manrope', sans-serif" font-size="72" id="svg_47" y="162.5" x="277" stroke-width="2" stroke="#ffffff" fill="#ffffff">SOON</text>
    </g>
</svg>
