<svg width="24" height="24" viewBox="0 0 24 24" fill="none" xmlns="http://www.w3.org/2000/svg">
<path opacity="0.4" d="M16.19 22H7.81C4.17 22 2 19.83 2 16.19V7.82C2 4.17 4.17 2 7.81 2H16.18C19.82 2 21.99 4.17 21.99 7.81V16.19C22 19.83 19.83 22 16.19 22Z" fill="#C8534F"/>
<path d="M15.6604 16.0733C15.5368 16.2093 15.3575 16.2934 15.1738 16.3014C15.0884 16.3024 14.997 16.2906 14.9123 16.26L13.1632 15.6274C12.7964 15.4948 12.6104 15.0979 12.743 14.7311C12.8756 14.3643 13.2726 14.1782 13.6393 14.3109L13.8086 14.3721L12.5419 11.6703L11.0658 12.7528C10.8952 12.8718 10.6851 12.9235 10.4808 12.8709C10.2671 12.8149 10.1122 12.6844 10.0222 12.4923L8.23327 8.67651C8.07119 8.33078 8.22082 7.91701 8.56996 7.74552C8.74922 7.66148 8.9295 7.66287 9.09877 7.72408C9.26804 7.7853 9.4135 7.91234 9.49154 8.0788L10.9203 11.1263L12.3964 10.0438C12.5671 9.92478 12.7771 9.87315 12.9814 9.92576C13.1951 9.98177 13.35 10.1122 13.44 10.3043L15.0729 13.7872L15.1341 13.6179C15.2667 13.2512 15.6637 13.0651 16.0304 13.1977C16.3972 13.3303 16.5833 13.7273 16.4506 14.0941L15.8147 15.8526C15.7653 15.9304 15.7252 16.0117 15.6604 16.0733Z" fill="#C8534F"/>
</svg>
