<svg width="336" height="187" viewBox="0 0 336 187" fill="none" xmlns="http://www.w3.org/2000/svg">
<path d="M4.93205 41.1305C4.61105 41.1305 4.31555 41.0735 4.04555 40.9595C3.77555 40.8455 3.54305 40.6835 3.34805 40.4735C3.15305 40.2605 3.01055 40.007 2.92055 39.713L3.55055 39.524C3.65855 39.845 3.83555 40.088 4.08155 40.253C4.33055 40.418 4.61105 40.4975 4.92305 40.4915C5.21105 40.4855 5.45855 40.421 5.66555 40.298C5.87555 40.175 6.03605 40.004 6.14705 39.785C6.25805 39.566 6.31355 39.3125 6.31355 39.0245C6.31355 38.5835 6.18455 38.2295 5.92655 37.9625C5.67155 37.6925 5.33405 37.5575 4.91405 37.5575C4.79705 37.5575 4.67405 37.574 4.54505 37.607C4.41605 37.637 4.29605 37.6805 4.18505 37.7375L3.85205 37.211L6.37205 34.8845L6.48005 35.1545H3.17705V34.52H6.92105V35.1635L4.72505 37.2605L4.71605 36.9995C5.16605 36.9425 5.56205 36.9935 5.90405 37.1525C6.24605 37.3115 6.51305 37.5545 6.70505 37.8815C6.90005 38.2055 6.99755 38.5865 6.99755 39.0245C6.99755 39.4385 6.90755 39.8045 6.72755 40.1225C6.55055 40.4375 6.30605 40.685 5.99405 40.865C5.68205 41.042 5.32805 41.1305 4.93205 41.1305ZM8.16066 41L8.16516 34.52H8.83116V38.48L11.0002 36.14H11.8822L9.60516 38.57L12.1792 41H11.2162L8.83116 38.66V41H8.16066Z" fill="#B9C1D9"/>
<path d="M2.85234 77.9955L2.85684 77.3925L5.78634 74.7465C6.03834 74.5185 6.20484 74.3025 6.28584 74.0985C6.36984 73.8915 6.41184 73.6755 6.41184 73.4505C6.41184 73.1835 6.34884 72.942 6.22284 72.726C6.09684 72.51 5.92734 72.339 5.71434 72.213C5.50134 72.084 5.26284 72.0195 4.99884 72.0195C4.72284 72.0195 4.47684 72.0855 4.26084 72.2175C4.04484 72.3495 3.87384 72.5235 3.74784 72.7395C3.62484 72.9555 3.56484 73.191 3.56784 73.446H2.89284C2.89284 73.053 2.98584 72.7005 3.17184 72.3885C3.35784 72.0765 3.60984 71.832 3.92784 71.655C4.24584 71.475 4.60584 71.385 5.00784 71.385C5.40084 71.385 5.75334 71.478 6.06534 71.664C6.38034 71.847 6.62784 72.096 6.80784 72.411C6.99084 72.723 7.08234 73.071 7.08234 73.455C7.08234 73.725 7.04934 73.9635 6.98334 74.1705C6.92034 74.3745 6.81984 74.565 6.68184 74.742C6.54684 74.916 6.37434 75.096 6.16434 75.282L3.56334 77.631L3.45984 77.361H7.08234V77.9955H2.85234ZM8.16066 78L8.16516 71.52H8.83116V75.48L11.0002 73.14H11.8822L9.60516 75.57L12.1792 78H11.2162L8.83116 75.66V78H8.16066Z" fill="#B9C1D9"/>
<path d="M5.78782 115V109.258L4.56832 109.991V109.249L5.78782 108.52H6.45832V115H5.78782ZM8.16066 115L8.16516 108.52H8.83116V112.48L11.0002 110.14H11.8822L9.60516 112.57L12.1792 115H11.2162L8.83116 112.66V115H8.16066Z" fill="#B9C1D9"/>
<path d="M3.78699 152.135C3.38799 152.135 3.02799 152.042 2.70699 151.856C2.38899 151.67 2.13699 151.418 1.95099 151.1C1.76499 150.779 1.67199 150.419 1.67199 150.02V147.5C1.67199 147.101 1.76499 146.742 1.95099 146.424C2.13699 146.103 2.38899 145.85 2.70699 145.664C3.02799 145.478 3.38799 145.385 3.78699 145.385C4.18599 145.385 4.54449 145.478 4.86249 145.664C5.18349 145.85 5.43699 146.103 5.62299 146.424C5.80899 146.742 5.90199 147.101 5.90199 147.5V150.02C5.90199 150.419 5.80899 150.779 5.62299 151.1C5.43699 151.418 5.18349 151.67 4.86249 151.856C4.54449 152.042 4.18599 152.135 3.78699 152.135ZM3.78699 151.496C4.05399 151.496 4.29699 151.431 4.51599 151.302C4.73499 151.17 4.90899 150.995 5.03799 150.776C5.16699 150.557 5.23149 150.315 5.23149 150.051V147.468C5.23149 147.201 5.16699 146.958 5.03799 146.739C4.90899 146.52 4.73499 146.346 4.51599 146.217C4.29699 146.085 4.05399 146.019 3.78699 146.019C3.51999 146.019 3.27699 146.085 3.05799 146.217C2.83899 146.346 2.66499 146.52 2.53599 146.739C2.40699 146.958 2.34249 147.201 2.34249 147.468V150.051C2.34249 150.315 2.40699 150.557 2.53599 150.776C2.66499 150.995 2.83899 151.17 3.05799 151.302C3.27699 151.431 3.51999 151.496 3.78699 151.496ZM7.16066 152L7.16516 145.52H7.83116V149.48L10.0002 147.14H10.8822L8.60516 149.57L11.1792 152H10.2162L7.83116 149.66V152H7.16066Z" fill="#B9C1D9"/>
<rect x="19" y="37.5" width="1.82659" height="149" fill="#525766" fill-opacity="0.2"/>
<rect x="97.5433" y="37.5" width="1.82658" height="149" fill="#525766" fill-opacity="0.2"/>
<rect x="176.087" y="37.5" width="1.82657" height="149" fill="#525766" fill-opacity="0.2"/>
<rect x="254.63" y="37.5" width="1.8266" height="149" fill="#525766" fill-opacity="0.2"/>
<rect x="334" y="185.5" width="1.00002" height="314" transform="rotate(90 334 185.5)" fill="#525766" fill-opacity="0.2"/>
<rect x="334" y="148.5" width="1.00002" height="314" transform="rotate(90 334 148.5)" fill="#525766" fill-opacity="0.2"/>
<rect x="334" y="111.5" width="1.00002" height="314" transform="rotate(90 334 111.5)" fill="#525766" fill-opacity="0.2"/>
<rect x="334" y="74.5" width="1.00002" height="314" transform="rotate(90 334 74.5)" fill="#525766" fill-opacity="0.2"/>
<rect x="334" y="37.5" width="1.00001" height="314" transform="rotate(90 334 37.5)" fill="#525766" fill-opacity="0.2"/>
<rect x="333.173" y="37.5" width="1.82654" height="149" fill="#525766" fill-opacity="0.2"/>
<path d="M31.9545 164.253H20V184.5C20 185.052 20.4477 185.5 21 185.5H333C333.552 185.5 334 185.052 334 184.5V41.5L320.758 61.7731C320.302 62.4725 319.239 62.3367 318.973 61.5449L313.473 45.1814C313.336 44.7743 312.955 44.5 312.525 44.5H293.482C293.189 44.5 292.911 44.6285 292.721 44.8517L284.805 54.1483C284.615 54.3714 284.336 54.5 284.043 54.5H278.418C278.223 54.5 278.032 54.4428 277.869 54.3355L267.885 47.7697C267.626 47.5996 267.303 47.5588 267.01 47.6594L257.025 51.088C256.897 51.1321 256.779 51.2019 256.678 51.2932L252.188 55.3665C252.091 55.4547 252.012 55.561 251.956 55.6796L249.967 59.884C249.93 59.961 249.884 60.0331 249.829 60.0984L242.01 69.4365C241.956 69.5008 241.894 69.558 241.826 69.6068L235.01 74.5L229.799 77.927C229.725 77.9755 229.646 78.0139 229.562 78.0415L219.149 81.4656C219.079 81.4885 219.007 81.5036 218.935 81.5108L209.211 82.4724C209.029 82.4905 208.855 82.5582 208.708 82.6682L203.801 86.3566C203.676 86.4509 203.574 86.5733 203.505 86.714L190.58 112.942C190.412 113.284 190.064 113.5 189.683 113.5H184.09C183.976 113.5 183.864 113.481 183.757 113.443L171.459 109.111C171.256 109.039 171.034 109.035 170.828 109.099L165.013 110.921C164.847 110.973 164.697 111.067 164.579 111.195L150.613 126.259C150.468 126.416 150.377 126.614 150.353 126.826L148.819 140.273C148.802 140.423 148.752 140.566 148.672 140.693L145.615 145.547C145.482 145.757 145.276 145.911 145.035 145.978L130.516 149.998C130.245 150.073 130.019 150.258 129.892 150.508L123.947 162.172C123.839 162.384 123.659 162.55 123.44 162.641L120.228 163.975C119.83 164.141 119.37 164.032 119.088 163.706L111.306 154.703C111.116 154.483 110.84 154.357 110.549 154.357H106.724C106.405 154.357 106.106 154.509 105.917 154.766L92.1471 173.59C91.9588 173.848 91.6589 174 91.34 174H87.126C86.7564 174 86.4169 173.796 86.2433 173.47L83.4354 168.194C83.3674 168.066 83.2725 167.955 83.1573 167.867L78.9927 164.705C78.6392 164.437 78.1511 164.434 77.794 164.697L70.9008 169.787C70.7932 169.867 70.6708 169.924 70.5408 169.955L62.2953 171.94C62.1305 171.979 61.9584 171.976 61.795 171.931L53.3635 169.601C53.1272 169.536 52.9231 169.386 52.79 169.18L44.1498 155.81C44.0203 155.61 43.8235 155.463 43.5949 155.395L40.7603 154.552C40.3645 154.434 39.9371 154.572 39.6844 154.898L32.7454 163.865C32.556 164.109 32.264 164.253 31.9545 164.253Z" fill="url(#paint0_linear_405_708)"/>
<path d="M21.756 164.253C21.756 164.253 28.5605 165.829 32.336 164.253C36.9851 162.312 35.2616 156.103 39.9973 154.357C48.1979 151.332 46.9814 167.236 55.3199 169.908C60.9833 171.722 65.1543 172.147 70.6425 169.908C74.1327 168.483 74.5035 164.437 78.3038 164.253C83.6131 163.996 82.1985 171.859 86.9228 174.148C97.9919 179.513 99.7953 148.992 110.864 154.357C115.589 156.646 114.232 163.474 119.483 164.253C126.571 165.303 124.092 153.914 130.018 150.115C135.17 146.812 140.526 149.6 145.34 145.874C152.005 140.716 145.353 131.211 152.044 126.082C155.78 123.219 158.86 111.515 167.892 109C175.829 106.791 184.405 115.83 188.656 113C197.295 107.25 200.055 80.7857 210.484 82.5C217.72 83.6893 231.878 77.2831 237.636 73C251.011 63.0519 249.858 48.1376 266.918 48C271.557 47.9626 276.752 55.8943 281.293 55C289.107 53.4609 287.831 43.5651 295.668 45.0002C298.554 45.5288 307.47 44.3447 311.374 43.7791C312.423 43.6272 313.412 44.3029 313.649 45.3362C314.821 50.4657 318.186 64.4785 319.625 63C325.553 56.9106 326.547 49 334 42" stroke="url(#paint1_linear_405_708)" stroke-width="2" stroke-linecap="round"/>
<defs>
<linearGradient id="paint0_linear_405_708" x1="177" y1="45.5" x2="177" y2="185.5" gradientUnits="userSpaceOnUse">
<stop stop-color="#6831D6" stop-opacity="0.3"/>
<stop offset="1" stop-color="#6831D6" stop-opacity="0"/>
</linearGradient>
<linearGradient id="paint1_linear_405_708" x1="25.729" y1="106.908" x2="344.127" y2="106.908" gradientUnits="userSpaceOnUse">
<stop stop-color="#FF5EBA"/>
<stop offset="0.489583" stop-color="#6831D6" stop-opacity="0.87"/>
<stop offset="1" stop-color="#0094FF"/>
</linearGradient>
</defs>
</svg>
