<svg width="215" height="215" viewBox="0 0 215 215" fill="none" xmlns="http://www.w3.org/2000/svg">
<g filter="url(#filter0_d_2468_43366)">
<path d="M130.279 39.5811C123.303 39.5811 108.858 45.4846 98.771 50.0296C91.9098 53.1211 87.3576 59.7208 87.2764 67.2459C87.1448 79.446 88.2443 98.1262 95.1669 109.805C100.544 118.875 111.699 127.543 120 133.157C126.248 137.383 134.309 137.383 140.557 133.157C148.858 127.543 160.013 118.875 165.39 109.805C172.313 98.1262 173.412 79.446 173.281 67.2458C173.2 59.7207 168.647 53.1212 161.786 50.0296C151.699 45.4846 137.255 39.5811 130.279 39.5811Z" fill="url(#paint0_linear_2468_43366)"/>
<g filter="url(#filter1_b_2468_43366)">
<path d="M99.312 5C87.6511 5 60.5974 17.1671 48.2037 23.0473C44.186 24.9535 41.5235 28.8144 41.2972 33.2555C40.5588 47.745 40.3127 80.9743 51.7107 100.203C59.8101 113.866 77.58 126.855 88.9691 134.241C95.2971 138.345 103.327 138.345 109.655 134.241C121.044 126.855 138.814 113.866 146.913 100.203C158.311 80.9743 158.065 47.745 157.327 33.2555C157.1 28.8144 154.438 24.9535 150.42 23.0473C138.027 17.1671 110.973 5 99.312 5Z" fill="url(#paint1_linear_2468_43366)"/>
</g>
<path d="M156.893 30.6208C145.761 42.8543 128.1 56.4668 100.083 69.0441C78.0761 78.9236 62.3521 89.3353 51.1172 99.17C40.3216 79.8056 40.5719 47.4889 41.2972 33.2555C41.5235 28.8144 44.186 24.9535 48.2037 23.0473C60.5974 17.1671 87.6511 5 99.312 5C110.973 5 138.027 17.1671 150.42 23.0473C153.618 24.5645 155.957 27.32 156.893 30.6208Z" fill="white" fill-opacity="0.09"/>
<g filter="url(#filter2_d_2468_43366)">
<path fill-rule="evenodd" clip-rule="evenodd" d="M120.569 46.6593C123.236 48.2944 124.074 51.7826 122.438 54.4504L102.574 86.8609C100.955 89.5022 97.5149 90.3535 94.8511 88.7719L78.1231 78.8396C75.4326 77.2421 74.5465 73.7661 76.144 71.0756C77.7415 68.3851 81.2176 67.499 83.9081 69.0965L95.8324 76.1765L112.778 48.5292C114.413 45.8614 117.901 45.0242 120.569 46.6593Z" fill="url(#paint2_linear_2468_43366)"/>
</g>
</g>
<defs>
<filter id="filter0_d_2468_43366" x="0" y="0" width="214.291" height="217.532" filterUnits="userSpaceOnUse" color-interpolation-filters="sRGB">
<feFlood flood-opacity="0" result="BackgroundImageFix"/>
<feColorMatrix in="SourceAlpha" type="matrix" values="0 0 0 0 0 0 0 0 0 0 0 0 0 0 0 0 0 0 127 0" result="hardAlpha"/>
<feOffset dy="36"/>
<feGaussianBlur stdDeviation="20.5"/>
<feComposite in2="hardAlpha" operator="out"/>
<feColorMatrix type="matrix" values="0 0 0 0 0.435294 0 0 0 0 0.294118 0 0 0 0 0.894118 0 0 0 0.17 0"/>
<feBlend mode="normal" in2="BackgroundImageFix" result="effect1_dropShadow_2468_43366"/>
<feBlend mode="normal" in="SourceGraphic" in2="effect1_dropShadow_2468_43366" result="shape"/>
</filter>
<filter id="filter1_b_2468_43366" x="24" y="-12" width="150.624" height="166.319" filterUnits="userSpaceOnUse" color-interpolation-filters="sRGB">
<feFlood flood-opacity="0" result="BackgroundImageFix"/>
<feGaussianBlur in="BackgroundImage" stdDeviation="8.5"/>
<feComposite in2="SourceAlpha" operator="in" result="effect1_backgroundBlur_2468_43366"/>
<feBlend mode="normal" in="SourceGraphic" in2="effect1_backgroundBlur_2468_43366" result="shape"/>
</filter>
<filter id="filter2_d_2468_43366" x="69.3491" y="45.8234" width="59.9252" height="55.7433" filterUnits="userSpaceOnUse" color-interpolation-filters="sRGB">
<feFlood flood-opacity="0" result="BackgroundImageFix"/>
<feColorMatrix in="SourceAlpha" type="matrix" values="0 0 0 0 0 0 0 0 0 0 0 0 0 0 0 0 0 0 127 0" result="hardAlpha"/>
<feOffset dy="6"/>
<feGaussianBlur stdDeviation="3"/>
<feComposite in2="hardAlpha" operator="out"/>
<feColorMatrix type="matrix" values="0 0 0 0 0.635294 0 0 0 0 0.294118 0 0 0 0 0.894118 0 0 0 0.27 0"/>
<feBlend mode="normal" in2="BackgroundImageFix" result="effect1_dropShadow_2468_43366"/>
<feBlend mode="normal" in="SourceGraphic" in2="effect1_dropShadow_2468_43366" result="shape"/>
</filter>
<linearGradient id="paint0_linear_2468_43366" x1="88.3611" y1="86.8726" x2="176.081" y2="86.8726" gradientUnits="userSpaceOnUse">
<stop stop-color="#FF5EBA"/>
<stop offset="0.489583" stop-color="#6831D6" stop-opacity="0.42"/>
<stop offset="1" stop-color="#0094FF" stop-opacity="0.42"/>
</linearGradient>
<linearGradient id="paint1_linear_2468_43366" x1="42.484" y1="69.6808" x2="161.406" y2="69.6808" gradientUnits="userSpaceOnUse">
<stop stop-color="#FF5EBA" stop-opacity="0.42"/>
<stop offset="0.489583" stop-color="#6831D6" stop-opacity="0.42"/>
<stop offset="1" stop-color="#0094FF" stop-opacity="0.42"/>
</linearGradient>
<linearGradient id="paint2_linear_2468_43366" x1="74.1137" y1="77.4771" x2="125.093" y2="77.1936" gradientUnits="userSpaceOnUse">
<stop stop-color="#E9C7FC"/>
<stop offset="1" stop-color="#FEFCFF"/>
</linearGradient>
</defs>
</svg>
